<?xml version="1.0" encoding="utf-8"?>
<!-- Generator: Adobe Illustrator 21.1.0, SVG Export Plug-In . SVG Version: 6.00 Build 0)  -->
<svg version="1.1" id="Layer_1" xmlns="http://www.w3.org/2000/svg" xmlns:xlink="http://www.w3.org/1999/xlink" x="0px" y="0px"
	 viewBox="0 0 67.5 100" width="259" height="383"
 enable-background="new 0 0 67.6 100" xml:space="preserve">
<g>
	<g>
		<path fill="#F08E21" d="M38.6,84.1l0.2,0.2l3.2-4.7c0,0-0.2-0.2-2.2-0.4c-2-0.2-2.8-0.1-2.8-0.1s-0.8,0.3-2.1,1.3
			c-1.3,1-2.4,2.1-2.4,2.1s0-5,0-5.3s0.1-0.9,0.3-1.2c0.2-0.3,0.9-1.2,0.9-1.2l-0.2-0.2L30,77.6c0,0,0,18,0,19.2
			c0,1.3-1.5,2.9-1.5,2.9l0.2,0.2c0,0,0.5-0.6,1.7-2.1c1.3-1.5,2-2.2,2-3c0-0.8,0-1.7,0-1.7s0.5,0.6,2,1.5c1.5,0.8,3.5,0.5,3.5,0.5
			l2.8-2.8l-0.1-0.1c0,0-0.5,0.4-1,0.6c-0.6,0.2-1.7,0.3-3.8-0.5c-2.2-0.9-3.4-2.8-3.4-6.3c0-3.5,2-4.6,3.3-4.6
			C40.6,81.3,38.6,84.1,38.6,84.1z"/>
		<g>
			<path d="M0.4,90.2c-0.1,0-0.1-0.1-0.1-0.2c0-0.3,0.4-0.6,1.2-1c0.5-0.2,0.9-0.5,1.1-0.8c0.2-0.3,0.2-0.7,0.2-1.3
				c0-0.5-0.1-0.9-0.2-1.3c-0.2-0.5-0.5-0.7-1-0.7c-0.3,0-0.5,0.1-0.8,0.4c-0.2,0.3-0.3,0.6-0.3,0.9c0,0.5,0.3,0.8,0.8,0.8
				c0,0,0.2,0,0.3-0.2c0.2-0.1,0.3-0.2,0.3-0.2c0,0,0.1,0.1,0.2,0.2C2.2,86.9,2.2,87,2.2,87c0,0.3-0.3,0.5-0.9,0.5
				c-0.4,0-0.7-0.2-1-0.5C0.1,86.7,0,86.4,0,85.9c0-0.2,0.1-0.6,0.4-1.1l1.3-1.3c0.1-0.1,0.2-0.1,0.4-0.1c0.3,0,0.7,0.1,1.1,0.4
				c0.4,0.2,0.6,0.5,0.8,0.8c0.4-0.2,0.7-0.5,1-0.7c0.5-0.4,0.7-0.5,0.8-0.5c0.1,0,0.2,0,0.2,0c0.2,0.2,0.3,0.4,0.4,0.5L6.4,84
				c0.1,0.1,0.1,0.2,0.2,0.2c0.2,0.3,0.3,0.6,0.3,0.8c0,0.1-0.1,0.3-0.3,0.7l-0.3,0.5c0,0,0,0,0,0c0.7,0.3,1.1,0.9,1.1,1.7
				c0,0.8-0.3,1.5-0.9,2.2C5.8,90.7,5.1,91,4.2,91c-0.4,0-0.8-0.1-1.2-0.3l-0.9-0.5C1.8,90.1,1.5,90,1.3,90
				C1.1,90,0.8,90.1,0.4,90.2z M4,89.7C4.6,90,5,90.1,5.3,90.1c0.7,0,1-0.4,1-1.2c0-0.4-0.2-0.8-0.6-1.1c-0.4-0.3-0.8-0.5-1.2-0.5
				c-0.2,0-0.4,0.1-0.6,0.3c-0.4,0.5-0.7,0.9-0.9,1.2v0.1c0,0,0,0,0,0C3,89.1,3.3,89.3,4,89.7z M4.2,86.7L4.2,86.7
				c1-0.2,1.4-0.5,1.4-1c0-0.2-0.3-0.6-0.9-1.2c-0.4,0.1-0.6,0.4-0.6,0.7C4.2,85.8,4.2,86.3,4.2,86.7z"/>
			<path d="M11.5,86.5c0.2,0.5,0.3,1.1,0.3,1.6c0,0.6-0.1,1-0.4,1.3c-0.1,0.2-0.3,0.4-0.6,0.6c-0.2,0.2-0.4,0.4-0.6,0.6
				C10.2,90.9,10,91,9.9,91c-0.1,0-0.7-0.3-1.6-0.8v-2.8c0-0.2,0.1-0.4,0.2-0.5c0.6-0.5,1-0.8,1.2-1c0.4-0.3,0.6-0.5,0.6-0.5
				C10.9,85.5,11.3,85.8,11.5,86.5z M9.6,86.7v2.7c0,0.1,0.3,0.2,0.8,0.4h0c0,0,0,0,0,0l0,0c0.1,0,0.1-0.1,0.1-0.1c0,0,0-0.1,0-0.2
				v-0.9c0-0.6,0-1-0.1-1.3c-0.1-0.2-0.3-0.4-0.6-0.7l-0.1,0C9.6,86.6,9.6,86.6,9.6,86.7z"/>
			<path d="M12.7,89.7c0.1-0.6,0.1-1.3,0.1-2.1c0-1.3,0-2.1-0.1-2.4c0-0.1-0.1-0.2-0.1-0.5c0.1,0,0.2,0,0.3,0.1
				c0.2,0.1,0.3,0.1,0.3,0.1c0,0,0,0,0.1,0h0.1c0.3-0.3,0.5-0.5,0.5-0.6c0.2-0.2,0.5-0.3,0.7-0.3c0.1,0,0.1,0.1,0.1,0.1
				c0,0,0-0.1,0-0.1c0,0-0.1,0.1-0.2,0.3c-0.1,0.3-0.2,0.5-0.2,0.6c-0.1,1.6-0.1,2.8-0.1,3.6v0.4c0,0.2,0.1,0.4,0.2,0.5l0.2,0.2
				c0.1,0.1,0.2,0.2,0.2,0.2c0,0,0,0,0,0.1c-0.2,0.3-0.4,0.5-0.5,0.6c-0.2,0.2-0.4,0.4-0.6,0.4h0c-0.6-0.5-1-0.8-1.1-0.9v-0.1
				C12.6,90,12.7,89.9,12.7,89.7z"/>
			<path d="M15.3,87.6c0.1-0.3,0.3-0.6,0.6-0.9c0.1-0.1,0.2-0.2,0.4-0.3c0.3-0.3,0.5-0.5,0.6-0.5l0.4-0.4c0,0,0,0,0.1,0l1,0.5
				c0.1,0,0.2,0.1,0.3,0.1c0.2,0.1,0.3,0.1,0.3,0.2v0.1c0,0.1-0.1,0.2-0.2,0.5v2.6c0,0.1,0.1,0.2,0.3,0.3c0.2,0.1,0.3,0.2,0.3,0.3v0
				l-0.8,1c0,0-0.1,0-0.2,0c-0.2,0-0.3-0.1-0.5-0.2c-0.1-0.1-0.1-0.2-0.2-0.3c-0.2-0.2-0.3-0.3-0.4-0.3h-0.1
				c-0.2,0.2-0.4,0.4-0.5,0.6c-0.1,0.2-0.2,0.3-0.3,0.3c-0.8,0-1.2-0.8-1.2-2.4C15.2,88.1,15.3,87.8,15.3,87.6z M17.3,89.6
				c0.1-0.8,0.1-1.3,0.1-1.7c0,0,0-0.1,0-0.2l0-0.2c0-0.2,0-0.3,0-0.4c0-0.1-0.1-0.2-0.3-0.3c-0.2-0.1-0.4-0.1-0.5-0.1
				c-0.2,0-0.3,0.2-0.3,0.5c0,0,0,0.3,0,0.7v0.5c0,0.6,0,0.9,0.1,1.1c0.1,0.2,0.2,0.3,0.5,0.3C17.2,89.7,17.3,89.7,17.3,89.6z"/>
			<path d="M24.3,90.2L24.3,90.2l-0.2,0.3c-0.1,0.1-0.2,0.2-0.2,0.3C23.8,91,23.6,91,23.5,91c-0.2,0-0.4-0.1-0.6-0.3
				c-0.2-0.2-0.3-0.5-0.3-0.7v-2.9c0,0-0.2-0.2-0.3-0.2c-0.3,0-0.5,0.3-0.6,0.6c0,0,0,0.1,0,0.5c0,0.6,0,1.2,0.1,1.8
				c0.1,0.1,0.2,0.3,0.2,0.4c0,0-0.2,0.2-0.5,0.5c-0.3,0.3-0.5,0.5-0.5,0.5c-0.1,0-0.3-0.1-0.6-0.4s-0.4-0.5-0.4-0.6v-0.1
				c0.1-0.1,0.2-0.3,0.2-0.4c0.1-0.2,0.1-0.6,0.1-1.3v-1c0-0.1,0-0.2,0-0.2l-0.5-0.5c0,0,0,0,0,0c0-0.1,0.1-0.3,0.4-0.5
				c0.2-0.2,0.4-0.4,0.5-0.5h0.2c0.4,0.3,0.7,0.6,0.7,0.8c0,0,0.1,0,0.1,0c0.1,0,0.3-0.1,0.7-0.4c0.4-0.3,0.6-0.4,0.7-0.4
				c0.7,0.5,1,0.8,1,1c0,0-0.1,0.2-0.3,0.6c0,1.7,0.1,2.5,0.2,2.7C24.3,90,24.3,90.1,24.3,90.2C24.3,90.2,24.3,90.2,24.3,90.2z"/>
			<path d="M25.3,89.7v-2.8c0,0,0.1-0.1,0.3-0.3c0.2-0.2,0.3-0.3,0.3-0.4c0,0-0.1-0.2-0.4-0.5c-0.3-0.3-0.4-0.5-0.4-0.7
				c0-0.2,0.1-0.4,0.2-0.5c0.2-0.2,0.3-0.3,0.4-0.4h0.1c0,0,0,0,0.1,0c0.1,0,0.2,0.1,0.4,0.3c0.1,0.2,0.3,0.3,0.3,0.4
				c0.1,0.1,0.5,0.4,1.2,0.9c0.5,0.3,0.8,0.7,0.9,1c0.1,0.3,0.2,0.8,0.2,1.4c0,0.8-0.2,1.3-0.5,1.7L27,91h-0.2
				c-0.1,0-0.2-0.1-0.4-0.2l-0.6-0.3l-0.4-0.1c-0.2,0-0.3-0.1-0.3-0.2v-0.1C25.2,90.1,25.3,89.8,25.3,89.7z M26.7,89.4
				c0,0.1,0.3,0.2,0.8,0.4h0c0.1,0,0.1-0.1,0.2-0.3v-0.6c0-1.5-0.3-2.3-1-2.3V89.4z"/>
			<path d="M36.7,87.6c0.1-0.3,0.3-0.6,0.6-0.9c0.1-0.1,0.2-0.2,0.4-0.3c0.3-0.3,0.5-0.5,0.6-0.5l0.4-0.4c0,0,0,0,0.1,0l1,0.5
				c0.1,0,0.2,0.1,0.3,0.1c0.2,0.1,0.3,0.1,0.3,0.2v0.1c0,0.1-0.1,0.2-0.2,0.5v2.6c0,0.1,0.1,0.2,0.3,0.3c0.2,0.1,0.3,0.2,0.3,0.3v0
				l-0.8,1c0,0-0.1,0-0.2,0c-0.2,0-0.3-0.1-0.5-0.2c-0.1-0.1-0.1-0.2-0.2-0.3c-0.2-0.2-0.3-0.3-0.4-0.3h-0.1
				c-0.2,0.2-0.4,0.4-0.5,0.6c-0.1,0.2-0.2,0.3-0.3,0.3c-0.8,0-1.2-0.8-1.2-2.4C36.6,88.1,36.6,87.8,36.7,87.6z M38.7,89.6
				c0.1-0.8,0.1-1.3,0.1-1.7c0,0,0-0.1,0-0.2l0-0.2c0-0.2,0-0.3,0-0.4c0-0.1-0.1-0.2-0.3-0.3c-0.2-0.1-0.4-0.1-0.5-0.1
				c-0.2,0-0.3,0.2-0.3,0.5c0,0,0,0.3,0,0.7v0.5c0,0.6,0,0.9,0.1,1.1c0.1,0.2,0.2,0.3,0.5,0.3C38.6,89.7,38.7,89.7,38.7,89.6z"/>
			<path d="M41.8,89.7l0.1-2.2c0,0-0.1-0.2-0.3-0.5c-0.2-0.3-0.2-0.5-0.2-0.5c0-0.2,0.1-0.5,0.2-0.6c0.1-0.1,0.2-0.3,0.5-0.5h0
				c0.1,0,0.2,0.1,0.2,0.4l0.9,0.9c0.2-0.1,0.3-0.2,0.4-0.3c0-0.1,0.2-0.3,0.2-0.3c0.2-0.2,0.3-0.3,0.5-0.3c0,0,0,0,0,0h0
				c0.2,0.2,0.4,0.4,0.6,0.6c0.2,0.3,0.3,0.6,0.3,0.8v1.7c0,0.3-0.3,0.8-0.9,1.4c-0.6,0.6-1,0.9-1.3,0.9c-0.1,0-0.4-0.1-0.8-0.3
				c-0.4-0.2-0.6-0.4-0.6-0.5v-0.2C41.8,90.1,41.8,89.9,41.8,89.7z M44.1,89.8c0,0,0-0.6,0-1.7c0-0.6-0.2-1-0.5-1.2
				c-0.2,0.1-0.4,0.2-0.4,0.4c0,0.1,0,0.3,0,0.6c0,0.3,0,0.5,0,0.6c0,0.5,0,0.9,0,1.1v0.1c0,0.1,0.1,0.2,0.2,0.3
				c0.2,0.1,0.3,0.1,0.4,0.1C43.9,90.1,44,90,44.1,89.8z"/>
			<path d="M46.1,87.6c0.1-0.3,0.3-0.6,0.6-0.9c0.1-0.1,0.2-0.2,0.4-0.3c0.3-0.3,0.5-0.5,0.6-0.5l0.4-0.4c0,0,0,0,0.1,0l1,0.5
				c0.1,0,0.2,0.1,0.3,0.1c0.2,0.1,0.3,0.1,0.3,0.2v0.1c0,0.1-0.1,0.2-0.2,0.5v2.6c0,0.1,0.1,0.2,0.3,0.3c0.2,0.1,0.3,0.2,0.3,0.3v0
				l-0.8,1c0,0-0.1,0-0.2,0c-0.2,0-0.3-0.1-0.5-0.2c-0.1-0.1-0.1-0.2-0.2-0.3c-0.2-0.2-0.3-0.3-0.4-0.3H48c-0.2,0.2-0.4,0.4-0.5,0.6
				c-0.1,0.2-0.2,0.3-0.3,0.3c-0.8,0-1.2-0.8-1.2-2.4C46,88.1,46,87.8,46.1,87.6z M48.1,89.6c0.1-0.8,0.1-1.3,0.1-1.7
				c0,0,0-0.1,0-0.2l0-0.2c0-0.2,0-0.3,0-0.4c0-0.1-0.1-0.2-0.3-0.3c-0.2-0.1-0.4-0.1-0.5-0.1c-0.2,0-0.3,0.2-0.3,0.5
				c0,0,0,0.3,0,0.7v0.5c0,0.6,0,0.9,0.1,1.1c0.1,0.2,0.2,0.3,0.5,0.3C48,89.7,48.1,89.7,48.1,89.6z"/>
			<path d="M50.7,89.7c0.1-0.6,0.1-1.3,0.1-2.1c0-1.3,0-2.1-0.1-2.4c0-0.1-0.1-0.2-0.1-0.5c0.1,0,0.2,0,0.3,0.1
				c0.2,0.1,0.3,0.1,0.3,0.1c0,0,0,0,0.1,0h0.1c0.3-0.3,0.5-0.5,0.5-0.6c0.2-0.2,0.5-0.3,0.7-0.3c0.1,0,0.1,0.1,0.1,0.1
				c0,0,0-0.1,0-0.1c0,0-0.1,0.1-0.2,0.3c-0.1,0.3-0.2,0.5-0.2,0.6c-0.1,1.6-0.1,2.8-0.1,3.6v0.4c0,0.2,0.1,0.4,0.2,0.5l0.2,0.2
				c0.1,0.1,0.2,0.2,0.2,0.2c0,0,0,0,0,0.1c-0.2,0.3-0.4,0.5-0.5,0.6c-0.2,0.2-0.4,0.4-0.6,0.4h0c-0.6-0.5-1-0.8-1.1-0.9v-0.1
				C50.6,90,50.7,89.9,50.7,89.7z"/>
			<path d="M52.9,87c0-0.2,0.3-0.5,1-1H54c0.3,0.3,0.6,0.6,1,0.9c0,0,0,0.2-0.1,0.4c-0.1,0.3-0.1,0.5-0.1,0.6c0,0.6,0,1.3,0.1,2.1
				c0,0.1,0.2,0.1,0.5,0.1c0,0.2-0.1,0.4-0.3,0.6c-0.3,0.2-0.4,0.4-0.6,0.5c0,0,0,0,0,0h-0.1c-0.3,0-0.5-0.1-0.7-0.4
				c-0.2-0.3-0.3-0.5-0.3-0.8v-2.6C53.1,87.3,53,87.1,52.9,87z M53.5,84.9l0.6-0.6c0,0,0.1,0,0.1,0c0.3,0,0.5,0.3,0.5,0.6
				c0,0.2-0.1,0.4-0.3,0.6c-0.2,0.2-0.4,0.3-0.6,0.3c-0.1,0-0.1-0.1-0.2-0.3C53.5,85.2,53.5,85.1,53.5,84.9
				C53.5,85,53.5,84.9,53.5,84.9z"/>
			<path d="M57.7,85.6c0.2,0,0.5,0.2,0.7,0.5c0.3,0.3,0.4,0.6,0.4,0.9c0,0.3-0.1,0.7-0.4,1c-0.3,0.3-0.6,0.6-0.8,0.7
				c-0.3,0.2-0.4,0.5-0.4,0.7c0,0.3,0.2,0.5,0.6,0.5c0.1,0,0.3-0.1,0.5-0.2c0.3-0.1,0.4-0.2,0.6-0.2v0.2l-0.8,1
				c-0.2,0.2-0.3,0.3-0.4,0.3c-0.1,0-0.2,0-0.4,0c-0.4,0-0.7-0.1-1-0.3c-0.3-0.2-0.5-0.6-0.5-0.9v-2c0-0.5,0.2-0.9,0.7-1.3
				L57.7,85.6L57.7,85.6z M57,86.9v1.5c0,0,0,0,0.1,0.1h0c0.2,0,0.3-0.1,0.4-0.3c0.1-0.2,0.2-0.4,0.2-0.6c0-0.1-0.1-0.3-0.2-0.5
				c-0.1-0.2-0.3-0.3-0.4-0.3C57,86.8,57,86.9,57,86.9z"/>
			<path d="M59.9,89.3c0.1-0.4,0.1-0.7,0.1-0.9v-0.7c0-0.4-0.1-0.6-0.2-0.7c-0.1,0-0.2-0.1-0.2-0.1c-0.1-0.1-0.2-0.1-0.2-0.2
				c0-0.1,0-0.1,0-0.2l0.9-0.9h0.4l0.7,0.7l0.7-0.7c0,0,0,0,0.1,0c0.2,0,0.3,0.1,0.5,0.3c0.2,0.2,0.3,0.4,0.3,0.5
				c0,0.3-0.1,0.5-0.3,0.8c-0.2,0.3-0.4,0.4-0.7,0.4c0-0.5-0.2-0.8-0.3-0.8c-0.2,0-0.2,0.2-0.2,0.7v0.7c0,0.8,0,1.3,0.1,1.4l0.2,0.2
				h0.8c0,0.1-0.2,0.4-0.5,0.7c-0.3,0.4-0.5,0.5-0.6,0.5c-0.1,0-0.4-0.1-0.9-0.4c-0.5-0.2-0.7-0.4-0.7-0.5
				C59.8,90,59.8,89.7,59.9,89.3z"/>
			<path d="M63.6,91c-0.1-0.1-0.1-0.1-0.1-0.1c0-0.1,0.1-0.2,0.2-0.4c0.1-0.2,0.2-0.3,0.3-0.4c0.3-0.3,0.6-0.5,1-0.5
				c0.1,0,0.3,0.1,0.6,0.2c0.3,0.1,0.5,0.2,0.5,0.2c0.2,0,0.3-0.2,0.3-0.6c0-0.6-0.4-0.9-0.9-0.9c-0.1,0-0.3,0.1-0.6,0.4
				c-0.3,0.2-0.5,0.4-0.6,0.5h0c0,0,0,0-0.1,0c-0.3,0-0.5-0.2-0.6-0.6c-0.1-0.3-0.2-0.6-0.2-0.9c0-0.4,0.2-0.8,0.7-1.4
				c0.5-0.6,0.9-0.8,1.2-0.8c0.1,0,0.3,0.1,0.5,0.2c0.3,0.1,0.4,0.2,0.6,0.2c0.1,0,0.2,0,0.4-0.1c0.2,0,0.3-0.1,0.3-0.1
				c0,0.3-0.2,0.6-0.5,0.9c-0.3,0.2-0.6,0.4-1,0.4c-0.2,0-0.6-0.1-0.9-0.3h0c-0.1,0-0.2,0.1-0.2,0.4c0,0.4,0.3,0.8,0.7,0.8
				c0.1,0,0.4-0.1,0.7-0.4c0.4-0.3,0.6-0.4,0.7-0.4c0.3,0,0.6,0.2,0.8,0.5c0.2,0.3,0.3,0.6,0.3,1c0,0.4-0.1,0.8-0.2,1
				c-0.1,0.1-0.3,0.4-0.7,0.7c-0.5,0.6-0.9,0.8-1.2,0.8c-0.1,0-0.3-0.1-0.6-0.2c-0.3-0.1-0.5-0.2-0.6-0.2
				C64.1,90.7,63.9,90.8,63.6,91z"/>
		</g>
	</g>
	<polygon fill="none" points="32,74 32,74 32,74 	"/>
	<polygon fill="none" points="32,74 32,74 32,74 	"/>
	<g>
		<path fill="#FFFFFF" d="M44.7,4.4C36.5,3.2,32.2,0.3,32,0.2c-0.2,0.1-4.4,3.1-12.7,4.2C10.9,5.5,6.5,5.5,6.5,5.5s0,37.6,0,45.4
			s5.9,12.8,12.1,16.7c6.1,3.9,13.3,6.3,13.5,6.3c0.2-0.1,7.4-2.4,13.5-6.3c6.1-3.9,12.1-8.9,12.1-16.7s0-45.4,0-45.4
			S53.1,5.5,44.7,4.4z"/>
		<path d="M21.1,17.1l0.2,0.2l3.5-5.1c0,0-0.2-0.2-2.4-0.4c-2.2-0.2-3-0.1-3-0.1s-0.8,0.4-2.2,1.4c-1.4,1.1-2.6,2.3-2.6,2.3
			s0-5.4,0-5.8c0-0.3,0.1-1,0.3-1.3c0.2-0.3,0.9-1.2,0.9-1.2L15.5,7L11.8,10c0,0,0,19.5,0,20.8c0,1.4-1.6,3.2-1.6,3.2l0.3,0.3
			c0,0,0.5-0.7,1.9-2.3c1.4-1.6,2.1-2.4,2.1-3.3c0-0.9,0-1.9,0-1.9s0.5,0.7,2.2,1.6c1.6,0.9,3.8,0.5,3.8,0.5l3.1-3.1l-0.1-0.1
			c0,0-0.5,0.5-1.1,0.6c-0.6,0.2-1.8,0.4-4.2-0.6c-2.4-0.9-3.7-3.1-3.7-6.9s2.2-5,3.5-5C23.3,14.1,21.1,17.1,21.1,17.1z"/>
		<g>
			<path fill="#F08E21" d="M44.5,6C37.9,5.1,33.8,3.1,32,2.1c-0.2,0.1-0.3,0.2-0.5,0.3v32.7h24.4v-28C53.9,7.1,50,6.8,44.5,6z"/>
			<path fill="#F08E21" d="M8.1,35.1v15.8c0,3.2,1.1,6,3.4,8.7c2.3,2.8,5.7,5.1,8,6.6c4.6,2.9,9.8,5,12,5.8V35.1H8.1z"/>
		</g>
		<path d="M32,74.1L32,74.1c-0.3-0.1-7.5-2.5-13.5-6.3c-6-3.8-12.1-8.8-12.1-16.8V5.4l0.1,0c0,0,4.6,0,12.9-1.2
			c8.2-1.1,12.4-4.1,12.6-4.2L32,0l0.1,0.1c0.2,0.1,4.4,3.1,12.6,4.2C53,5.4,57.5,5.4,57.6,5.4l0.1,0v45.5c0,8-6.1,13-12.1,16.8
			C39.5,71.6,32.4,74,32,74.1L32,74.1z M6.6,5.7v45.3c0,7.8,6.1,12.8,12,16.6c5.8,3.7,12.7,6.1,13.4,6.3c0.7-0.2,7.6-2.6,13.4-6.3
			c5.9-3.8,12-8.7,12-16.6V5.7c-0.8,0-5.2-0.1-12.8-1.2c-7.8-1.1-12-3.8-12.7-4.2c-0.6,0.4-4.9,3.1-12.7,4.2
			C11.8,5.5,7.4,5.7,6.6,5.7z"/>
		<g>
			<path d="M56,7l-0.7,0.2l-13.6,13l-1.9,0l-0.7-0.7c0-0.1,0-0.1,0-0.2c0-0.3-0.2-0.5-0.5-0.5s-0.5,0.2-0.5,0.5
				c0,0.3,0.2,0.5,0.5,0.5c0.1,0,0.2,0,0.2,0l0.6,0.6V22l-1.3,1.3c-0.1,0-0.3,0-0.3,0c-0.2,0-0.5,0.2-0.6,0.4
				c-0.1,0.2-0.4,0.3-0.7,0.6c-0.3,0.3-0.1,0.8-0.2,1c0,0.2-1.9,1.7-2.6,2.5c-0.7,0.8-1.7,1.9-1.7,1.9s-0.2,0-0.6-0.2
				c-0.4-0.2-0.7-0.7-0.7-1c0-0.4-0.2-0.3-0.3-0.5c-0.1-0.2-0.2-0.6,0-1c0.2-0.4,0.3-0.5,0.3-1.2c0.1-0.7,0.3-1.1,0.2-1.7
				c-0.1-0.7-1-0.7-1.7-0.6c-0.6,0.1-2.2,1-2.9,1.7c-0.6,0.7-0.5,1.7-0.7,2c-0.1,0.3-1.1,0.1-1.5,0.3c-0.4,0.2-2.5,1.9-2.6,2.3
				c-0.2,0.4-0.6,0.7-0.9,1c-0.2,0.4-0.2,1.8-0.1,2c0.1,0.2,0.3,0.2,0.7,0c0.4-0.2,2.1-1.9,2.1-1.9s0.3,0,0.7,0
				c0.4,0,0.2-0.4,0.4-0.7c0.2-0.4,0.8,0,0.8,0s0,0.6-0.2,1c-0.2,0.4-0.2,0.6-0.2,0.6s0.8-0.1,1.2-0.5c0.4-0.4,0.3-0.7,0.3-0.7
				l0.5,0c0,0,0.1,0.1,0.1,0.4c0,0.3-0.2,0.9-0.3,1c-0.1,0.1-0.4,0.3-0.4,0.3s0.1,0.4,0.2,0.5c0.1,0.1,0.4,0.2,0.4,0.2v0.4
				c0,0-0.2,0-0.7,0.2c-0.5,0.1-0.7,0.3-1.5,0.7c-0.8,0.3-1.1,0.9-1.1,1.2c0,0.3-0.5,0.6-0.7,0.9c-0.2,0.3-1.1,1.8-1.2,2.5
				c-0.1,0.7,1.8,2.5,1.8,2.5l-0.1,1.1l0.3,0.2c0,0,0.5-0.4,0.7-0.5c0.2-0.1,0.7,0,0.7,0l1,1.2l-0.1,0.8l0.2,0.2
				c0,0,0.4-0.2,0.8-0.3c0.3-0.1,0.5,0.2,0.5,0.5c0.1,0.3,0.3,0.4,0.3,0.4s0,0.4,0,1.1c0,0.7,0.5,1.3,0.5,1.3s-0.8,0.3-1.4,0.5
				c-0.6,0.2-1.4,1.1-3,1.1c-1.6,0-2.6,0.6-3.7,1.6c-1.1,1-2.7,2.6-3.6,3.2c-1,0.6-3.3,0.4-3.7,0.1c-0.4-0.3-0.8-0.5-0.9-0.3
				c-0.1,0.2,0.3,1.7,2.4,2.8c2.1,1.1,4.2,1.2,6.1-0.1c1.8-1.2,2.9-3.9,3.2-4.5c0.3-0.6,0.9-0.3,0.9-0.3s-0.2,0.4-0.3,1.3
				c-0.1,0.9,0.6,2.4,0.8,2.8c0.2,0.4,0.1,2.5,0,2.9c-0.1,0.4-1.7,1.1-1.7,1.3c0,0.2,1.9,7.1,1.9,7.3c-0.1,0.2-3.7,1.2-3.8,1.3
				c-0.1,0.2,1.5,2.8,1.8,2.8c0.3,0,4.3-2.7,4.4-3c0-0.3,0.3-5.2,0.3-5.8c0-0.6,0.6-1.3,1.4-2.1c0.8-0.8,2.5-2.4,3-3
				c0.5-0.6,0.5-1.5,0.6-1.8c0.1-0.3,0.9-1,1.1-1c0.3,0,1-0.1,1-0.1s0,0.2,0.1,0.3c0.1,0.1,0.6,0.7,0.6,0.7s0.5-0.2,0.7-0.2
				c0.2,0,0.7,1.1,0.9,1.2c0.2,0.1,1.4,0.1,1.5,0.1c0.1,0,0.1-0.3,0.1-0.5c-0.1-0.2-1.6-1.6-1.6-1.6l0.1-0.5c0,0,0.2-0.1,1.1-0.3
				s2.3-0.8,2.3-0.8s0,0.5,0.2,0.5c0.2,0.1,2.4,0,2.4-0.2c0-0.1-0.5-0.9-0.5-0.9s1.2-0.4,3.2-1.4c2-1,3.9-2,4-2
				c0.2,0,2.9,2.6,2.9,2.7c0,0.1-2.7,2-2.9,2.1c-0.2,0.1-0.7,0.1-0.8,0.3c0,0.2,2.4,3.3,2.6,3.2c0.2-0.1,0.2-0.5,0.3-0.8
				c0.1-0.3,0.5-1,0.9-1.5c0.4-0.5,2.7-2.7,2.6-3c0-0.2-0.4-1-0.6-1.4c-0.1-0.3-1.9-3.1-2.2-3.7c-0.3-0.6-1-1.2-1.5-1.2
				c-0.5,0-1.5,0-2,0.1c-0.6,0.1-1.5,0.4-1.6,0.3c-0.2-0.2-0.1-1.6-0.1-2.2c0-0.6-0.6-2.1-0.8-2.7c-0.2-0.6-0.7-1.9-0.8-2.5
				c0-0.5-0.1-2,0-2.3c0.1-0.3,0.3-0.8,0.6-0.6c0.2,0.1,2,2,2.4,2c0.4,0,1.9-0.6,2-1c0-0.4-0.8-1.6-1.1-2c-0.3-0.4-0.6-0.9-0.8-2.1
				c-0.2-1.1-1.4-2.7-1.4-2.9c-0.1-0.2,0.3-1.1,0.4-1.3c0.1-0.2,0.3-0.5,0-0.5c-0.3,0-1,0.5-1.3,0.6c-0.3,0.1-1.1-0.9-2.1-1
				c-1-0.1-2.2,0.4-2.7,0.6c-0.5,0.2-0.9,0.2-1.8,0.6c-0.9,0.4-1.6,0.2-2.1,0.2s-0.7,0-0.7,0.3c0,0.3,0.7,0.4,1,0.6
				c0.3,0.2,0.1,0.4,0.1,0.6c-0.1,0.2-0.5,0.1-0.8,0.2c-0.3,0.1-1.1,0.6-1.3,0.8c-0.2,0.2,0.2,0.2,0.6,0.4c0.3,0.1,0.8,0.4,1.3,0.6
				c0.5,0.1,0.2,0.3,0.2,0.5c0,0.2-0.2,0.2-0.4,0.4c-0.2,0.2-0.7,0.6-0.8,0.8c-0.2,0.2-0.4-0.4-0.6-0.6c-0.1-0.2-0.3-0.2-0.4,0
				c-0.1,0.3,0,0.7-0.1,1.1c0,0.5-0.2,0.3-0.3,0.6c-0.2,0.3,0,0.5,0.1,1c0,0.5-0.3,0.6-0.4,1c0,0.4-0.3,1.4-0.5,1.8
				C35,39,34.5,39.1,34,39.2c-0.5,0.2-0.9,0.6-1.1,0.8c-0.2,0.2-0.8,0.1-0.9,0c-0.1-0.1-0.2-2-0.2-2.7c0-0.7,0.2-1.1,0.5-1.5
				c0.3-0.4,0-1.4,0.1-1.7c0-0.3,0.3-0.4,0.8-0.9c0.5-0.4,0.5-1.6,0.5-1.9c0-0.3,1.2-1.6,1.7-2.1c0.5-0.6,0.6-0.7,0.6-1
				c0.1-0.4,1.7-1.9,1.8-2c0.1-0.1,0.1-0.1,0.4-0.1c0.3,0,0.3-0.3,0.6-0.5c0.2-0.2,0.1-0.6,0.2-1c0-0.1,0-0.1,0-0.2l1.4-1.3H42
				l0.7,0.7c0,0.1,0,0.1,0,0.2c0,0.3,0.2,0.5,0.5,0.5c0.3,0,0.5-0.2,0.5-0.5c0-0.3-0.2-0.5-0.5-0.5c-0.1,0-0.2,0-0.2,0l-0.7-0.7
				l0-1.8L55.8,7.7L56,7z M27.5,40.5c-0.1,0.1-0.3,0.1-0.3,0.4c0,0.3-0.1,0.5-0.2,0.6c-0.1,0.1-0.3,0.2-0.5,0
				c-0.2-0.2-0.5-0.6-0.7-1c-0.3-0.4-0.5-1-0.7-1c-0.2,0-0.3,0.1-0.5,0c-0.2-0.2-0.7-0.8-0.7-0.9c0-0.2,0.5-0.9,0.7-1
				c0.2-0.1,0.6,0.1,0.8-0.1c0.2-0.2,0.6-0.6,0.8-0.7c0.2,0,0.6,0.4,0.6,0.7c0,0.3,0,0.4,0.1,0.6c0.2,0.3,0.2,0.7,0.4,0.9
				c0.2,0.1,0.2,0.4,0.3,0.8C27.5,40.2,27.6,40.4,27.5,40.5z M28.8,31.8c-0.1,0.1-0.5,0.5-0.7,0.4c-0.2-0.1-0.4-0.4-0.3-0.6
				c0.1-0.2,0.3-0.5,0.4-0.6s0.3-0.2,0.4,0C28.7,31.3,28.9,31.7,28.8,31.8z M31.2,30.6c-0.1,0.2-0.6,0.2-0.7,0.1
				c-0.1-0.1-0.2-0.5-0.2-0.5c0.1-0.1,0.1-0.3,0.4-0.4s0.7,0.1,0.7,0.2C31.4,30.1,31.3,30.4,31.2,30.6z"/>
		</g>
	</g>
</g>
</svg>
