<?xml version="1.0" encoding="utf-8"?>
<!-- Generator: Adobe Illustrator 21.1.0, SVG Export Plug-In . SVG Version: 6.00 Build 0)  -->
<svg version="1.1" id="Layer_1" xmlns="http://www.w3.org/2000/svg" xmlns:xlink="http://www.w3.org/1999/xlink" x="0px" y="0px"
	 viewBox="0 0 113.4 127.6" width="298.11318883" height="335.443059036" enable-background="new 0 0 113.4 127.6" xml:space="preserve">
<g>
	<rect fill="#554190" width="113.4" height="127.6"/>
	<path fill="#DFB725" d="M93.7,23.2c-0.3-0.6-0.6-1.1-0.6-1.1s-0.4,0.5-1.2,1.2c-0.8,0.7-1.3,1.1-1.3,1.1s0.7-1.5,0.9-2.7
		c0.2-1.2,0.2-2.4,0.2-2.4l-0.8-0.8c0,0-0.6-0.1-1,0.2c-0.4,0.3-1.1,0.7-1.4,1.2c-0.3,0.5-0.8,1.2-2.4,2.1c-1.6,0.9-3.6,2.1-3.6,2.1
		l0.4-3.8l-0.5,0.5l1.5-3.6c0,0-1.5,0.6-2.3,0.9c-0.8,0.3-1.4,0.5-2.4,1.2c-1.1,0.7-1.8,1.1-2.8,2.2c-1,1.1-2.4,2.5-2.4,2.5
		s-0.1-0.7-0.5-1.4c-0.3-0.7-0.6-1.1-0.6-1.1s-0.5,0.8-1.5,2c-1.1,1.3-2.5,2.5-3.6,3.1c-1.2,0.6-3.9,2-3.9,2s1.7-2.8,1.8-3.2
		c0.1-0.4,0.1-2.2,0-2.6c-0.1-0.4-1-1.2-2-1.2c-1.1,0-1.8,0.3-1.8,0.3s-0.2-1.2-1.6-1.2c-1.4,0-2.6,0.2-4.2,1.2
		c-1.6,0.9-4.8,3.4-4.9,3.4s-2-0.4-2.9-0.5c-0.9-0.1-2.1-0.1-2.7,0c-0.6,0.2-1.2,0.5-1.7,1s-0.6,0.7-0.6,0.7S42,26.6,41.2,27
		c-0.7,0.4-1.3,1-1.3,1s0.1-0.6-0.1-1.5c-0.1-0.9-0.5-1.5-1.3-2.4c-0.9-0.9-1.6-0.8-1.6-0.8s-0.5,0.4-0.7,0.9
		c-0.2,0.5-0.1,0.9-0.1,0.9s-0.2,0-0.4,0.1c-0.2,0.1-0.5,0.3-0.5,0.3s-0.5-1-1.2-1.5c-0.7-0.5-1.3-0.4-1.3-0.4s-1.1-1-2.3-0.8
		c-1.2,0.3-1.7,0.5-2.4,1c-0.7,0.5-1.2,0.9-1.2,0.9s0.5,0.3,1.1,0.6c0.6,0.3,1.1,0.5,1.1,0.5s-0.3,0.5-0.3,1c0,0.6,0.2,1.2,0.2,1.2
		s-2.4,0-3.3,0.1c-0.9,0.2-1.7,0.9-2,1.5c-0.4,0.6-0.9,3.5-0.9,3.5s0.5-0.1,1.2-0.2c0.7-0.1,1-0.3,1-0.3s0.5,0.5,1.5,0.7
		c1,0.2,2,0.1,2,0.1s-0.4,1-0.6,1.2c-0.2,0.3-0.8,0.7-1.2,1.2c-0.3,0.5-0.4,0.9-1.2,1.2c-0.9,0.3-1.4,0.3-1.4,0.3l-0.1,1.6
		c0,0,0.5,0.6,1.2,1.1c0.7,0.4,1.5,0.7,2.1,0.5c0.6-0.2,0.8-0.3,0.8-0.3l0.5,0.3c0,0-0.6,1-0.6,1.4c-0.1,0.5,0.2,0.9,0.3,1.2
		c0.1,0.2,0.3,0.6,0.3,0.6s-0.2,0.5-0.2,0.8c0.1,0.3,0.4,0.9,0.9,1.4c0.5,0.5,0.8,0.6,0.8,0.6s-0.1,0.3,0.2,0.7
		c0.3,0.4,1.3,1.4,1.3,1.4s-0.9-0.3-1.8-0.3c-0.9,0-2.3,0.6-2.4,0.8s-0.1,1-0.1,1.2c0.1,0.2,0.4,0.5,0.6,0.6
		c0.1,0.1,0.5,0.3,0.5,0.3l-0.1,0.7c0,0-0.3-0.1-0.5-0.1c-0.2,0-1,0-1.4,0.1c-0.4,0.1-1,0.5-1.7,0.6c-0.6,0.2-1.1,0.5-1.3,0.7
		s-0.5,1.1-0.6,1.6c0,0.5-0.3,1.4-0.2,1.6c0.1,0.2,0.6,0.9,0.8,1.1c0.2,0.1,0.5,0.2,0.9,0.1c0.4-0.2,0.7-0.5,0.7-0.5
		s0.2,0.1,0.5,0.1c0.2,0.1,0.6,0.1,0.6,0.1s-0.6,0.7-0.7,0.9c-0.1,0.2-0.2,0.9-0.3,1.2c0,0.3,0.1,1.7,0.4,2.2
		c0.3,0.5,0.4,0.6,0.7,0.9c0.3,0.3,0.7,0.6,0.7,0.6s0.8-0.2,1.1-0.7c0.3-0.5,0.5-0.9,0.5-0.9s0.5,0.1,1.6-0.7
		c1.1-0.8,1.3-1.1,1.3-1.1s0.4,0.3,0.8,0.5c0.3,0.2,0.6,0.5,0.7,0.8c0.1,0.4,0,0.7,0.6,1.1c0.6,0.4,1.5,0.6,1.5,0.6l-0.1,3
		c0,0-0.4,0-1-0.1c-0.6,0-1.8,0-2.1,0.1c-0.4,0.2-0.8,0.5-1.2,1.1c-0.4,0.6-0.8,1.6-0.8,1.6s-0.5,0.4-0.8,0.6
		c-0.3,0.3-0.4,0.5-0.7,0.8c-0.3,0.3-1,1-1.3,1.5c-0.3,0.5-0.4,1.8-0.5,2.4c-0.1,0.6-0.1,1-0.1,1s1.2-0.6,1.9-0.8
		c0.6-0.2,0.9-0.3,0.9-0.3s0.6,0.7,1.6,1c1,0.3,2.1,0,2.1,0s-0.5,0.8-0.4,1.5c0.1,0.6,0.4,1.3,0.4,1.3s0,0.6,0.1,1
		c0.1,0.3,0.8,1.1,1.6,1.7c0.7,0.6,1.1,0.8,1.4,0.8c0.3,0,0.7,0,0.9-0.2c0.2-0.2,0.5-0.5,0.5-0.8c-0.1-0.3-0.3-1-0.1-1.4
		c0.2-0.4,1.1-1.2,1.1-1.2s0.3,0.2,0.5,0.3c0.3,0.1,0.4,0.3,0.4,0.7c0,0.4,0,0.8-0.1,1.4c-0.1,0.6-0.2,1.3-0.2,1.3s1,0,1.8-0.1
		s1.2-0.5,1.5-1.1c0.3-0.6,0.4-0.9,0.4-0.9s0.7-0.2,1-1.2c0.4-1,0.3-2.5-0.2-3.2c-0.5-0.7-0.9-1.1-0.9-1.1s1-0.4,1.9-0.2
		c1,0.2,2,0.5,2.5,1.4c0.5,0.8,1.8,3,1.8,3l0.9-4c0,0,0.4,0.5,0.9,1.3c0.6,0.8,1,1.5,1,1.5s0.1-1.1,0.1-2.1c0.1-1,0.3-1.7,0.3-1.7
		l0.8,1.4c0,0,1.1-1.5,1.8-3c0.7-1.4,1.3-1.9,1.3-1.9s0.3,0.5,0.4,0.6c0.1,0.1,0.8,0,1.1-0.1c0.2-0.1,2-1,2-1s0.1,0.6,0.3,1.4
		c0.2,0.7,0.4,1.2,0.1,1.4c-0.4,0.2-0.6,0.3-1.7,0.5C57.3,72,57,72,57,72s0.1,0.9,0.5,1.6c0.4,0.7,1.1,1.8,2.1,2
		c1.1,0.2,2,0.1,2,0.1l0.1,0.4c0,0-0.8,0-0.9,0c-0.1,0-1.9,1.4-2.2,1.7c-0.3,0.3-0.2,1.3-0.1,1.4c0.1,0.2,0.4,0.4,0.6,0.5
		c0.2,0.1,0.7,0.1,0.7,0.1l0.1,0.3c0,0-0.8,0.6-1.4,1.4c-0.6,0.7-0.8,1.3-0.8,1.5c0,0.2,0.1,0.8,0.1,1c0.1,0.2,0.5,1,1,2.4
		c0.5,1.4,0.8,2.4,0.8,2.4s0.6-1.2,0.8-1.7c0.2-0.5,0.7-1.3,1.1-1.3c0.4,0,1,0.2,1.7-0.1c0.7-0.3,1.2-0.7,1.2-0.7s0.2,1.2,0.3,1.8
		s0.7,1.5,1.5,1.8c0.8,0.3,4,0.2,4,0.2L69,86.5c0,0,0.6-0.5,1.1-1.2c0.5-0.7,0.5-1.2,0.5-1.2s1.1,0.8,1.4,1c0.3,0.3,0.3,0.6,0.4,1
		c0.1,0.4,0.4,1.7,0.4,1.7s0.7-0.9,1.6-2.2c0.9-1.2,1.1-1.9,1.2-2.9c0.1-0.9-0.1-1.7-0.4-2.2c-0.3-0.6-0.7-0.8-0.7-0.8
		s0.9-1.7,1.1-2.7c0.2-1,0-2.3-0.3-3.5s-0.7-1.9-0.7-1.9s0.4-0.4,0.3-1c-0.1-0.6-0.6-1-0.6-1s0.2-0.3,0.3-0.6c0-0.3,0.1-0.6-0.2-0.7
		c-0.3-0.2-0.8-0.8-0.8-0.8l0.3-0.2c0,0,0.9,1,1.6,1.6c0.7,0.6,2.3,1.1,3.4,1.3c1.1,0.1,2,0,3.1-0.5c1.1-0.5,1.7-0.6,1.8-0.6
		c0.1,0,0.4,0.2,0.5,0.7c0.2,0.5,0.1,0.9,0.2,1.2c0.1,0.2,1,0.5,1.4,0.4c0.4-0.1,1.1-0.7,1.4-1.2c0.3-0.5,0.7-1.9,0.4-2.8
		c-0.3-0.9-0.4-1.5-0.4-1.5s0.6-0.3,0.7-0.7c0.1-0.4,0.3-2.1,0.1-3.3c-0.1-1.2-0.4-2.5-0.9-3.7c-0.5-1.3-0.4-1.8-0.4-2.7
		c0-0.8,0.1-2.1,0.4-2.5c0.3-0.4,1.7-1.4,2.2-1.9c0.6-0.6,1.2-1.5,1.5-2.2c0.3-0.8,0.4-1.7,0.1-2.1c-0.3-0.4-0.5-0.5-0.5-0.5
		s0.4-0.7,0.6-2.6c0.2-1.9-0.3-3.4-1.7-4.1c-1.4-0.7-2.9-0.5-2.9-0.5s1-0.7,2.4-2.1c1.4-1.4,2.1-2.7,1.8-3.7c-0.4-1-1.4-1.2-1.4-1.2
		s1.8-1.7,2.8-2.8c1-1.1,1.6-2.3,1.8-3.3C94.2,24.8,94,23.8,93.7,23.2z"/>
	<path fill="#554190" d="M40,31.2c0.5,0.9,1.6,1.4,1.6,1.4s0,0.7,0.3,1.6c0.3,0.9,1.4,1.6,1.4,1.6s-0.1,0.1-0.2,0.3
		c-0.1,0.1-0.1,0.3-0.1,0.3s-1.3,0.1-2.4,0.4c-1.1,0.3-1.4,1.1-1.4,1.1s-0.1-0.2-0.4-0.4c-0.3-0.3-0.6-0.4-0.6-0.4s-0.1-0.5-0.1-1
		c-0.1-0.5-0.5-1.1-1-1.2c-0.5-0.1-1.2,0.1-1.2,0.1s-0.2-1-0.4-1.8c-0.1-0.8-0.1-1.4,0.5-1.9c0.6-0.5,1.4-0.3,2.2-0.8
		c0.8-0.4,1.2-1.1,1.2-1.1S39.4,30.3,40,31.2z M93.4,25.7c-0.1,0.6-0.5,1.8-1.6,3c-1,1.1-2.8,2.5-2.8,2.6l-2.6,2
		c0,0,1.1-0.5,1.9-0.7c0.8-0.3,1.1-0.1,1.1-0.1c0,0,0.7,0.1,0.9,0.8c0.2,0.7-0.3,1.9-1.6,3.1c-0.7,0.6-1.3,1.1-2.7,2.2
		c-1.4,1.1-2.9,1.8-2.9,1.8s0.6,0,1.6-0.2s1-0.3,1-0.3s-0.8,1.2-1.4,1.9c-0.6,0.8-1,1.3-2.4,2.4c-1.4,1-3.3,1.8-3.3,1.8
		s2.1-0.1,3.6-0.3c1.5-0.2,1.8-0.3,1.8-0.3s-0.4,1.2-2.7,2.9c-2.3,1.7-4.3,2.1-4.3,2.1l2.7,0.6c0,0-1,0.8-3.3,1.5
		c-2.3,0.7-2.7,0.7-2.7,0.7s0.8,0.8,0,1.2c-0.8,0.4-1.6,0.6-3.1,0.9c-1.5,0.3-2.9,0.4-2.9,0.4s2.2,1.2,3.8,2.3
		c1.6,1.1,2.8,2.8,3.9,4.1c1.1,1.3,1.9,2.3,3.2,3c1.3,0.7,3-0.1,3.4-0.4c0.4-0.3,0.7-0.8,0.8-1.2c0.1-0.3-0.1-1-0.9-1.4
		c-0.8-0.4-1.6-0.8-1.4-1.5c0.2-0.7,0.5-0.9,0.9-1.1c0.4-0.2,0.5-0.2,0.5-0.2s-0.6-1.7-0.8-2.9c-0.2-1.2,0.1-3,0.6-4.5
		c0.5-1.5,1.5-2.9,2.6-4.5c1.2-1.6,1.7-2.1,2.1-2.9c0.4-0.8,0.4-1.1,0.4-1.1s-1.1,0-1.6-0.7c-0.4-0.7-0.2-1.6,0.3-2.2
		s1.3-0.8,1.3-0.8s0.2,0,0.4,0c0.4,0,1.3,0.1,2.1,0.5c1.4,0.7,1.5,2.3,1.4,3.5c-0.2,1.7-0.6,2.4-0.6,2.4c-0.2,0.3-0.4,1-0.4,1
		s0.4-0.2,0.6-0.1c0.2,0,0.4,0.3,0.4,0.3c0.1,0.1,0.1,0.7-0.2,1.5c-0.2,0.7-0.9,1.5-1.4,2c-0.3,0.3-0.9,0.8-1.3,1.2
		c-0.4,0.3-0.7,0.6-0.9,0.8c-0.4,0.4-0.6,1.4-0.6,2.9l0,0.2c0,0.8,0,1.4,0.4,2.7c0.5,1.3,0.7,2.5,0.9,3.6c0.1,1.1-0.1,2.7-0.1,3.1
		c0,0.1-0.2,0.2-0.3,0.3l-0.4,0.2l0.1,0.5c0,0,0.1,0.6,0.4,1.5c0.2,0.7-0.1,2-0.3,2.4c-0.2,0.4-0.8,0.9-1,0.9c0,0,0,0-0.1,0
		c-0.2,0-0.5-0.1-0.7-0.2c0-0.1,0-0.1,0-0.2c0-0.2,0-0.5-0.1-0.8c-0.2-0.7-0.6-1.2-1.1-1.2c-0.3,0-1.1,0.2-2.1,0.6
		c-0.9,0.3-1.5,0.5-2.1,0.5c-0.2,0-0.4,0-0.7,0c-1.1-0.1-2.5-0.6-3.1-1.1c0,0-0.6-0.3-1.5-1.4c-0.9-1.1-1.6-2.2-1.6-2.2l-0.3,0.5
		c0,0,0,0.1,0.3,0.5c0.3,0.4,0.6,1,0.6,1s0,0.2-0.2,0.4c-0.2,0.2-0.7,0.2-0.7,0.2s0.3,0.3,0.8,0.8c0.5,0.4,0.7,0.8,0.5,1.1
		c-0.1,0.3-0.5,0.4-0.5,0.4s0.2,0.1,0.5,0.5c0.4,0.3,0.5,0.9,0.2,1.1c-0.2,0.2-0.6,0.3-0.6,0.3s0.3,0.3,0.4,0.5c0,0,0.3,0.5,0.6,1.6
		c0.3,1.3,0.4,2.4,0.2,3.2c0,0-0.1,0.6-0.5,1.4c-0.4,0.8-0.8,1.2-1,1.2c-0.2,0-0.6-0.2-0.6-0.2s0,0.1,0.3,0.4
		c0.3,0.3,0.4,0.2,0.9,0.5c0,0,0.3,0.2,0.6,0.7c0.3,0.5,0.4,1.1,0.3,1.9c-0.1,0.8-0.2,1.4-1,2.6c-0.3,0.4-0.6,0.8-0.8,1.1
		c0-0.2-0.1-0.5-0.1-0.5c-0.1-0.4-0.2-0.7-0.5-1.1c0,0-0.4-0.3-0.9-0.7c-0.5-0.3-0.7-0.6-1-1c-0.3-0.4-0.4-0.9-0.4-0.9l-0.2,0.3
		c0,0,0.3,0.8,0.2,1.6c0,0-0.1,0.4-0.4,1c-0.4,0.6-0.9,1.1-0.9,1.1l-0.4,0.3l0.2,0.4l0.7,1.4c-2.2,0-2.7-0.1-2.9-0.2
		c-0.6-0.2-1-1-1.1-1.3c0,0-0.1-0.5-0.2-1.2c-0.1-0.7,0-1.7,0-1.7s-0.6,0.4-1.1,0.8c0,0-0.4,0.3-1,0.5c-0.2,0.1-0.4,0.1-0.6,0.1
		c-0.2,0-0.3,0-0.4,0c-0.1,0-0.3,0-0.4,0c0,0-0.1,0-0.1,0c-0.7,0-1.3,0.9-1.6,1.7c0,0.1-0.1,0.2-0.2,0.3c-0.1-0.3-0.2-0.6-0.3-0.9
		c-0.4-1.1-0.7-1.9-0.9-2.3c0-0.1-0.1-0.1-0.1-0.2c0-0.1-0.1-0.5-0.1-0.7c0-0.1,0.2-0.6,0.7-1.3c0.5-0.6,1.3-1.3,1.3-1.3l0.3-0.2
		l-0.3-1.1l-0.4-0.1c-0.2,0-0.4-0.1-0.5-0.1c-0.1,0-0.2-0.1-0.3-0.2c0-0.2,0-0.6,0-0.7c0.3-0.3,1.6-1.3,2-1.6c0,0,1.4-0.2,1.9-0.1
		c0.6,0.1,1.7,0.4,2,0.7c0.3,0.3,0.9,1.1,0.9,1.1s1.2-1.7,1.3-1.9c0.1-0.2,0-0.5-0.2-0.7c-0.2-0.2-0.6-0.4-0.6-0.4s0.3,0.6,0.3,0.9
		c0,0.3,0.1,0.7-0.2,0.8c-0.3,0.1-1,0.1-1.8-0.2c-0.8-0.2-1.5-0.4-1.9-0.9c-0.4-0.5-0.7-1.1-0.7-1.1l-0.5,0.1c0,0-0.3,0-0.7,0
		c-0.4,0-0.8,0-1.1-0.1c-0.9-0.2-1.5-1.3-1.7-1.7c-0.1-0.2-0.2-0.5-0.3-0.8c0.2,0,0.4-0.1,0.7-0.1c1.1-0.2,1.4-0.3,1.9-0.6
		c0.7-0.4,0.5-1.3,0.3-1.9c0-0.1,0-0.1-0.1-0.2c-0.2-0.7-0.3-1.3-0.3-1.3l-0.1-0.8L59.3,68c-0.2,0.1-1.8,0.9-2.1,1.1
		c0,0-0.3,0.2-0.6,0.1c-0.3-0.1-0.3-0.3-0.3-0.5c-0.1-0.3,0.1-1.1,0.1-1.1s-0.4,0.3-1.2,1.3c-0.8,1-1,1.5-1.4,2.4
		c-0.4,0.9-1,1.3-1,1.3s-0.1-0.2-0.3-0.9c-0.2-0.8-0.2-1.2-0.2-1.2s-0.2,0.2-0.6,1.4c-0.4,1.2-0.4,1.7-0.4,1.7s-0.5-0.3-0.8-0.7
		c-0.3-0.3-0.4-1-0.4-1S49.6,72,49.2,73c-0.4,1-0.6,2.1-0.6,2.1s-0.8-0.9-1.8-1.6c-1-0.7-1.6-0.8-2.2-0.9c-0.2-0.1-0.5-0.1-0.8-0.1
		c-0.8,0-1.5,0.3-1.6,0.3l-0.8,0.4l0.6,0.6c0,0,0.4,0.4,0.8,1c0.4,0.6,0.4,1.9,0.1,2.7c-0.2,0.6-0.6,0.8-0.6,0.8l-0.3,0.1l-0.1,0.3
		c0,0-0.1,0.3-0.4,0.9c-0.2,0.4-0.4,0.6-1.1,0.8c-0.3,0.1-0.7,0.1-1,0.1c0-0.2,0.1-0.4,0.1-0.6c0.1-0.5,0.1-0.9,0.1-1.2
		c0-0.1,0-0.2,0-0.3c0,0,0-0.3-0.2-0.7c-0.2-0.4-0.6-0.5-0.9-0.7c-0.3-0.2-0.6-1-0.6-1s0,0.2-0.1,0.5c-0.1,0.3-0.3,0.5-0.6,0.8
		c-0.3,0.3-0.7,0.6-0.9,1c-0.2,0.6-0.1,1.3,0,1.7c0,0.1,0,0.1,0,0.1c0,0.1-0.1,0.2-0.2,0.3c-0.1,0-0.2,0.1-0.4,0.1c0,0-0.1,0-0.1,0
		c-0.2,0-0.6-0.3-1.1-0.7c-0.8-0.6-1.3-1.3-1.4-1.5c0-0.1-0.1-0.5,0-0.7l0-0.2l-0.1-0.1c0,0-0.4-0.5-0.4-1.1c0-0.7,0.1-1.1,0.5-1.6
		C33.8,74.3,34,74,34,74s-0.1-0.1-0.5-0.1c-0.5,0-0.7,0.2-1,0.4c0,0-0.5,0.1-1,0.1c-0.3,0-0.5,0-0.7-0.1c-0.8-0.2-1.3-0.8-1.3-0.8
		l-0.2-0.3l-0.4,0.1c0,0-0.3,0.1-1,0.3c-0.3,0.1-0.6,0.2-0.9,0.4c0.2-1.6,0.4-2,0.4-2.1c0.2-0.4,0.8-1,1.1-1.3
		c0.2-0.2,0.3-0.3,0.5-0.5c0.1-0.1,0.2-0.2,0.3-0.3c0.4-0.3,0.9-0.8,1.5-0.8c0.6,0,1.2,0,1.4,0.1c0.2,0.1,0.4,0.1,0.4,0.1
		s-0.1-0.2-0.2-0.4c-0.2-0.2-0.3-0.2-0.7-0.2c-0.4,0-1.1,0-1.1,0s0.1-0.3,0.2-0.6c0.1-0.3,0.3-0.6,0.3-0.6c0.3-0.5,0.6-0.7,0.9-0.9
		c0.1,0,0.4-0.1,1.2-0.1c0.2,0,0.5,0,0.7,0c0.6,0,0.9,0,0.9,0c0,0,0.6,0,1.1,0.1c0.5,0.1,0.9,0.2,1.1,0.4c0.2,0.2,0.3,0.6,0.5,1.1
		s0.4,0.9,0.7,1.1c0.3,0.1,0.9,0.2,1.3,0c0.4-0.1,1.2-0.5,1.8-0.6c0.6-0.1,0.9-0.1,1.1-0.3c0.2-0.1,0.5-0.5,0.6-0.9
		c0.1-0.4,0.2-0.7,0.2-1c0-0.3,0.1-0.7,0.1-0.7s-0.5-0.1-1.3-0.6S41,64.6,41,64.6s0.2-0.6,1.3-1c1.1-0.4,2-0.7,2-0.7
		s-0.6-0.7-0.7-0.9c0-0.3,0.1-0.5,0.5-0.8c0.4-0.2,1.4-0.4,2-0.4c0.5-0.1,1.7-0.3,2.7-0.6c1-0.3,1.7-0.5,2.1-0.6
		c0.4,0,1.2-0.1,1.2-0.1S51.4,59.3,51,59c-0.4-0.3-0.6-0.5-0.6-0.5s-0.2,0.5-0.3,0.7c-0.1,0.2-0.3,0.3-0.7,0c-0.4-0.3-1-1.4-1-1.4
		s-0.5,0.8-1.2,1.2c-0.7,0.4-1.4,0.9-2.2,0.9c-0.8,0.1-1.2-0.3-1.2-0.3s-0.5,0.3-1.2,0.4c-0.7,0.1-1-0.1-1.2-0.3
		c-0.1-0.2-0.3-0.4-0.3-0.4s-0.7,0.2-1.4,0.3c-0.6,0.1-0.9,0-0.9-0.2c-0.1-0.2-0.1-0.4-0.1-0.4l-1.2,0c0,0,0.6,0.5,0.6,1.1
		c0.1,0.6,0.2,1.3-0.1,2.2c-0.3,0.9-0.5,1.4-1.4,2.2c-0.8,0.7-1.4,0.9-1.4,0.9s0-2.1,0-2.5c0-0.4-0.1-0.7-0.4-0.8
		c-0.3,0-0.8,0-1.3-0.3c-0.2-0.1-0.2-0.2-0.3-0.4c0-0.1,0-0.2-0.1-0.3c-0.2-0.6-0.5-0.9-0.9-1.2c-0.3-0.2-0.8-0.5-0.8-0.5l-0.4-0.2
		l-0.4,0.4c0,0-0.3,0.3-1.2,1c-0.7,0.5-1.1,0.6-1.2,0.6c-0.3,0.1-0.6,0.1-0.6,0.1s-0.1,0.7-0.4,1c-0.1,0.1-0.3,0.3-0.5,0.4
		c-0.1-0.1-0.2-0.2-0.4-0.3l-0.1-0.1c-0.2-0.2-0.3-0.3-0.5-0.7c-0.2-0.3-0.3-1.5-0.3-1.9c0-0.3,0.1-0.9,0.2-1c0-0.1,0.3-0.5,0.6-0.8
		c0,0,0.2-0.3,0.5-0.5c0.3-0.2,0.6-0.3,0.6-0.3S27.4,57,27.1,57c-0.3-0.1-0.6,0-1.1-0.1c-0.1,0-0.4,0-0.5-0.1
		c-0.2-0.1-0.4-0.1-0.4-0.1l-0.3-0.1l-0.3,0.2c-0.1,0.1-0.3,0.3-0.6,0.4c0,0-0.1,0-0.1,0c-0.1,0-0.2,0-0.2-0.1
		c-0.1-0.1-0.4-0.5-0.5-0.7c0-0.1,0.1-0.5,0.1-0.7c0-0.3,0.1-0.5,0.1-0.7c0-0.3,0.3-1,0.4-1.2c0.1-0.1,0.5-0.4,1-0.5
		c0.4-0.1,0.7-0.3,1.1-0.4c0.2-0.1,0.5-0.2,0.6-0.2c0.2,0,0.6-0.1,1-0.1c0.1,0,0.2,0,0.2,0c0.1,0,0.4,0.1,0.4,0.1
		c0.2,0.1,0.9,0.6,0.9,0.6l0-2.3l-0.4-0.2c-0.1-0.1-0.3-0.2-0.4-0.2c-0.2-0.2-0.3-0.3-0.4-0.3c0-0.1,0-0.4,0-0.6
		c0.4-0.2,1.3-0.6,1.9-0.6c0,0,0.1,0,0.1,0c0.8,0,1.6,0.2,1.6,0.2l0.8,0.4c0.5,0.3,1,0.9,1.1,1.3c0.1,0.3,0,1.1,0.1,1.6
		c0,0.5-0.1,0.9,0.1,1.1c0.3,0.2,1.2,0.6,1.9,0.8c0.6,0.1,1.2,0,1.4-0.2c0.2-0.2,0.6-0.9,0.6-0.9s0.2,0,1.2,0.1
		c1,0.1,1.8,0.1,1.8,0.1l-0.8-1c0,0-0.5,0-1.1,0s-1.4-0.2-2.6-0.7c-1.2-0.5-1.8-0.8-2.3-1.3c-0.6-0.5-1-1.2-1-1.2l0.4-0.4
		c0,0-0.2-0.1-0.4-0.3c-0.2-0.2-0.5-0.4-0.5-0.4c-0.3-0.3-1-1-1.3-1.3C30.5,47,30.5,47,30.5,47c-0.1-0.2,0-0.4,0-0.4s-0.6-0.3-1-0.8
		c-0.4-0.4-0.7-1-0.8-1.2c0-0.1,0.1-0.3,0.1-0.4l0.1-0.3l-0.2-0.3c0,0-0.2-0.3-0.3-0.5c-0.2-0.3-0.2-0.6-0.2-0.8
		c0-0.5,0.3-0.8,0.4-0.8c0.2,0,0.5,0.2,0.5,0.2s-0.4-0.6-0.5-1c-0.1-0.4-0.1-0.6-0.1-0.6L28,39.9c0,0-0.6,0.2-1.1,0.3
		c-0.1,0-0.1,0-0.2,0c-0.3,0-0.7-0.1-1.4-0.5c-0.4-0.2-0.7-0.6-1-0.7l0.1-0.9c0.4-0.1,0.7-0.1,1.2-0.3c0.9-0.3,1.2-0.8,1.4-1.2
		c0.1-0.1,0.1-0.2,0.2-0.3c0.2-0.3,0.5-0.6,0.7-0.8c0.2-0.2,0.3-0.3,0.4-0.4c0.3-0.3,0.6-1.1,0.7-1.4l0.3-0.9l-1,0.1
		c0,0-0.2,0-0.4,0c-0.3,0-0.9,0-1.4-0.1c-0.8-0.2-1.2-0.5-1.2-0.6L25,32l-0.4,0.2c0,0-0.3,0.1-0.9,0.2c-0.1,0-0.2,0-0.4,0.1
		c0.2-1.1,0.5-2.2,0.7-2.4c0.3-0.5,0.9-1.1,1.6-1.2c0.4-0.1,1.4-0.1,2.7-0.1c0.3,0,0.6,0,0.6,0l0.9,0l-0.3-0.8
		c-0.1-0.2-0.2-0.6-0.2-1c0-0.4,0.2-0.7,0.2-0.7l0.4-0.6l-0.6-0.3c0,0-0.5-0.2-1.1-0.5c-0.1,0-0.2-0.1-0.2-0.1
		c0.1-0.1,0.3-0.2,0.4-0.3c0.6-0.4,1-0.7,2.2-0.9c0.1,0,0.2,0,0.3,0c0.5,0,0.7,0.1,1.2,0.3c0.5,0.3,0.6,0.5,0.6,0.5s0.5-0.1,1,0.3
		c0.6,0.4,1,1.2,1,1.2l0.3,0.7l0.6-0.5c0.1-0.1,0.2-0.2,0.3-0.2c0.1-0.1,0.3-0.1,0.3-0.1l0.8-0.1l-0.3-0.7c0,0-0.1-0.3,0.1-0.5
		c0.1-0.2,0.3-0.4,0.4-0.5c0,0,0.8,0.2,1.3,0.9c0.5,0.7,0.8,1.3,0.9,1.9c0.1,0.7,0,1.2,0,1.2s0,0.7-0.6,1.3c-0.6,0.6-1.1,0.9-2,1
		c-0.9,0.1-1.3,0.7-1.7,1.2c-0.4,0.5-0.2,1.7,0.1,3c0.3,1.3,0.8,2.8,0.8,2.8s0.1-1.1,0.3-1.6c0.2-0.4,0.5-0.4,0.6-0.4
		c0.2,0,0.5,0.4,0.7,1.1c0.2,0.7,0.2,2.5,0.2,2.5s0.1-0.4,0.2-0.6c0.1-0.3,0.3-0.6,0.3-0.6s0.3,0.2,0.5,0.6c0.3,0.5,0.2,2.2,0.2,2.5
		c0,0.2,0.2,0.3,0.2,0.3s0-0.5,0.3-1.1c0.3-0.6,0.8-0.9,0.8-0.9s-0.6-0.4-0.6-0.8c0-0.4,0.4-0.8,1.5-1c1-0.2,2.5-0.5,2.5-0.5
		s0-0.2,0.1-0.7c0.1-0.4,0.5-0.7,0.5-0.7s-1.2-0.3-1.6-0.9c-0.4-0.6-0.1-2.5-0.1-2.5s-0.9-0.1-1.4-0.6c-0.5-0.5-0.8-0.8-1.1-1.6
		c-0.3-0.9,0.1-1.1,0.4-1.6c0,0,0.5-0.5,1.1-0.8c0.6-0.3,1.3-0.5,1.3-0.5l0.2,0l0.1-0.2c0,0,0.2-0.2,0.6-0.7
		c0.4-0.5,0.8-0.7,1.3-0.9c0.1,0,0.3-0.1,1-0.1c0.5,0,1,0,1.7,0.1c0.6,0.1,1.5,0.2,2.1,0.3c0.6,0.1,0.8,0.1,0.9,0.1
		c0.3,0,0.3,0,1.7-1.1c1.1-0.8,2.6-1.9,3.5-2.4c1.4-0.8,2.4-1.1,3.6-1.1c0.1,0,0.2,0,0.2,0c0.8,0,1,0.6,1.1,0.8
		c0,0.3-0.1,0.7-0.1,0.7s1.5-0.6,2.5-0.5c0.8,0.1,1.4,0.6,1.5,0.8c0.1,0.3,0.1,2,0,2.3c-0.1,0.3-1,1.7-1.7,3c0,0-0.7,0.7-2.1,1.8
		c-1.4,1.1-3,1.7-3,1.7l0.1,0.7c0,0,0.6-0.6,1.7-1.2s2.2-1.3,3.4-1.8c1.3-0.6,3.7-1.6,5-2.5c1.3-0.9,3.1-2.7,3.4-3.1
		c0.4-0.5,0.8-0.9,1-1.3c0,0.1,0.1,0.1,0.1,0.2c0.3,0.6,0.4,1.2,0.4,1.3l0.2,1.1l0.8-0.8c0.1-0.1,1.5-1.4,2.5-2.5
		c0.9-1,1.5-1.4,2.4-2l0.2-0.1c1-0.6,1.5-0.8,2.3-1.1c0.3-0.1,0.7-0.2,1-0.4l-0.9,2.3c-0.3,0.5-1.7,3.1-1.7,3.1l1.9-1.8
		c0,0,0.1,0.3-0.1,1.5c-0.2,1.2-0.7,2.2-0.7,2.2l1.6-1c0,0,2-1.2,3.6-2.1c1.6-0.9,2.2-1.6,2.7-2.3c0.3-0.4,0.9-0.8,1.3-1
		c0.1-0.1,0.2-0.1,0.4-0.1l0.5,0.5c0,0.4,0,1.2-0.2,2c-0.2,1.1-0.8,2.5-0.8,2.5c0,0-0.2,0.4-0.7,1.1c-0.5,0.7-1.2,1.6-1.2,1.6
		s1.8-1.2,2.8-1.9c0,0,0.5-0.3,1.4-1.1c0.3-0.3,0.5-0.5,0.7-0.7c0.1,0.1,0.1,0.2,0.2,0.4C93.4,23.9,93.6,24.8,93.4,25.7z M80.6,57.4
		c0.3,0.9,0.5,1.4,0.5,1.4s-0.9,0.4-1.1,1c-0.3,0.7-0.5,1.4,0.3,2c0.8,0.6,1.5,0.7,1.7,1c0.2,0.3,0.1,0.8-0.5,1.2
		c-0.6,0.4-1.9,0.7-2.7,0.4c-0.8-0.4-2.4-1.9-3.5-3.5c-1.1-1.5-1.9-2.4-3.1-3.3c-1.3-0.9-2.4-1.6-2.4-1.6s1.8-0.3,3-0.6
		c1.2-0.3,1.4-0.5,1.6-0.8c0.3-0.3,0.2-0.8,0.2-0.8s1.5-0.3,3.6-1.2c2.1-0.9,2.8-1.6,2.8-1.6l0.3,0.1c0,0-0.8,1.9-0.8,3.2
		C80.4,55.7,80.3,56.6,80.6,57.4z M80.5,50.6c-0.7-0.2-1-0.3-1-0.3s0.5-0.2,1.7-1.1c1.2-0.9,2.1-1.9,2.1-1.9S83,47.8,82.2,49
		c-0.7,1.2-0.9,1.8-0.9,1.8S81.2,50.8,80.5,50.6z M38.9,60.3c0,0,0.3,0.1,1,0c0.7-0.1,0.9-0.2,0.9-0.2s0.4,0.7,1.1,0.7
		c0.7,0,2-0.3,2-0.3s-0.9,0.8-0.9,1.2s0.3,0.9,0.3,0.9s-1.3,0.3-2,0.8c-0.7,0.5-1,1.4-1,1.4s0.6,0.4,1.3,0.8
		c0.7,0.4,1.2,0.6,1.2,0.6s-0.1,0.8-0.2,1c-0.1,0.2-0.2,0.3-0.5,0.4c-0.3,0.1-1,0.3-1.8,0.5c-0.7,0.2-1,0.4-1.3,0.4
		c-0.3,0-0.6-0.1-0.8-0.5c-0.2-0.4-0.5-1.4-1.1-1.8C36.4,66,36,66,36,66l0-0.1c0,0,1.6-0.9,2.1-1.8c0.5-0.8,0.8-1.8,0.9-2.7
		C39,60.6,38.9,60.3,38.9,60.3z M47,60c0,0,0.1,0,0.7-0.5c0.6-0.5,0.7-0.7,0.7-0.7s0.1,0.2,0.2,0.4c0.1,0.2,0.3,0.3,0.3,0.3
		s-0.1,0.1-0.8,0.3C47.3,60,47,60,47,60z M34,51.9c0,0,0.4,0.3,1.3,0.7c0.9,0.4,1.6,0.5,1.6,0.5s-0.4,0.8-0.6,0.9
		c-0.2,0.1-0.4,0.2-1,0.1c-0.6-0.1-1.2-0.3-1.3-0.6C33.8,53.2,34,51.9,34,51.9z"/>
	<path fill="#DFB725" d="M55.8,59.9l-1.1-0.2c0,0-0.5-0.7-0.4-0.8C54.3,58.8,55.8,59.9,55.8,59.9z M56.8,59.1c-0.1,0.2,0.3,1,0.3,1
		l1.1,0.2C58.1,60.3,56.9,58.9,56.8,59.1z M59,59.8c-0.3,0-0.3,0.6-0.3,0.6l1.2,0.3C59.9,60.7,59.3,59.8,59,59.8z M71.5,50.2
		c0.3,0.2,0.9,0.4,2.1,0.6c2.3,0.4,3.2,0.3,3.2,0.3s-0.4,0.3-1.5,0.7c-1.2,0.4-1.6,0.5-2.8,0.6c-1.2,0.1-3,0.1-3,0.1
		s-0.1,0.3,0.8,0.6c0.8,0.3,1.1,0.4,1.1,0.4s-1.4,0.5-4,0.7c-2.6,0.2-3.4,0.1-3.4,0.1s1,0.8,3.5,2.2s3.6,1.9,3.6,1.9l-0.3,0.2
		c0,0,1.7,0.9,2.9,2.7c1.2,1.8,3,3.9,4.4,4.4c1.3,0.5,3.3,0.4,4.4-0.4c1.2-0.9,1.5-2.6,1-3.4c-0.5-0.7-2.1-1.3-2.1-1.3
		s0.2-0.6,0.9-0.6c0.7-0.1,0.9,0.1,0.9,0.1s-1.2-2.5-1.2-5.2c0-2.7,1.4-4.9,3.3-7.5c1.9-2.6,2.2-3.4,2.2-4.2c0-0.8-0.4-1.2-0.4-1.2
		s-0.5,0.1-0.8,0c-0.4-0.1-0.6-0.5-0.4-0.9c0.2-0.4,1-0.8,2-0.7c1.1,0.1,1.5,1.2,1.6,2.1c0.1,1-0.3,2.5-0.8,3.5
		c-0.5,1-0.7,1.9-0.7,1.9s0.1,0.1,0.6,0c0.5-0.1,0.5-0.1,0.5-0.1s0.1,0.4-0.5,1.2c-0.6,0.8-1.4,0.9-2.4,1.7c-1,0.8-1.4,1.9-1.5,3.1
		c-0.1,1.2,0.1,2.8,0.7,4.5c0.6,1.7,0.8,3.7,0.8,4.7c0,1-0.8,2-1,2.2c-0.2,0.2,0.1,0.5,0.6,1.4c0.5,0.9,0.1,1.9,0.1,1.9
		s-0.1-0.4-0.4-0.8c-0.4-0.4-0.7-0.5-1.6-0.5c-0.9,0-2.2,0.4-3.4,0.5c-1.3,0.2-1.5,0-2.4-0.1c-0.9-0.1-2.5-1.5-3.3-2.4
		c-0.8-0.9-2-2.7-2.2-3c-0.2-0.3-0.4,0-0.5,0.2c-0.1,0.2,0,0.9,0,0.9s-0.5-0.3-0.7-0.2c-0.2,0.1-0.2,0.6,0.2,1.3
		c0.3,0.7,0.5,1.5,0.5,1.5s-0.3,0-0.5-0.1C71.2,66,71.2,66,71,65.9c-0.3-0.1-0.3,0.1-0.3,0.4c0,0.4,0.5,0.9,0.9,1.4
		c0.5,0.5,1.1,1.1,1.1,1.1s-0.4,0-0.7-0.1c-0.4-0.1-0.6-0.1-0.7,0c-0.1,0.1,0.1,0.5,0.7,1c0.6,0.6,0.9,0.8,0.9,0.8s-0.1,0.1-0.4,0.1
		c-0.3,0-0.6,0-0.6,0s0,0.2,0,0.4c0.1,0.3,0.5,0.5,0.8,0.8c0.3,0.3,0.7,0.8,0.8,1.4c0.1,0.6,0,1.9,0,3.1c0,1.2-0.4,1.5-0.4,1.5
		s-0.1-0.1-0.3-0.6c-0.2-0.5-0.6-1-0.8-1c-0.2,0-0.5,0.4-0.5,1.1c0,0.6,0.1,2.3,0.5,2.9c0.4,0.6,1.2,0.7,1.6,1.1
		c0.5,0.4,0.3,1.2,0.2,1.8c-0.1,0.6-0.5,1.3-0.5,1.3l-0.6-0.8c0,0-0.3-0.1-0.8-0.5c-0.5-0.3-0.6-0.7-0.9-1.3c-0.3-0.6-1-0.5-1.4-0.4
		c-0.3,0.1-0.7,0.5-0.8,0.8c-0.1,0.2,0.1,0.3,0.3,0.9c0.2,0.6-0.2,1.1-0.7,1.9c-0.5,0.8-1.1,1.1-1.1,1.1s-0.1,0.4-0.1,0.6
		c0,0.3,0.4,0.4,0.4,0.4S67.5,87.2,67,87c-0.5-0.2-0.7-0.4-0.8-1.1c-0.1-0.7-0.1-1.5,0.1-2.1c0.2-0.6,0.8-1.4,0.8-1.4
		s-0.3,0-0.8,0.2c-0.5,0.2-1,0.2-1.7,0.3c-0.7,0.1-0.7,0.3-1,0.6c-0.3,0.3-0.7,0.4-1.2,0.4c-0.5,0-1.2,0-1.4,0.1
		c-0.2,0.1-0.5,0.2-0.7,0.4c-0.3,0.2-0.4,0.9-0.4,0.9s-0.1-0.4-0.2-0.7c-0.1-0.3-0.1-0.7-0.1-0.7s-0.1-0.1-0.1-0.4
		c0-0.2,0.2-0.7,0.9-1.4c0.6-0.7,1.1-1,1.7-1.1c0.6-0.1,1.2,0.1,1.5,0.2c0.3,0.2,1.2,0.2,1.2,0.2s0.2-0.3-0.3-0.7
		c-0.5-0.4-1.1-0.3-1.8-0.3s-0.7-0.3-0.9-0.5c-0.2-0.2-0.3-0.5-0.3-0.7c0-0.3-0.4-0.6-0.7-0.6c-0.3,0-0.7-0.1-0.7-0.1
		s0.7-0.3,1.1-0.5c0.3-0.2,0.6-0.2,1.6-0.2c1-0.1,1.7,0.6,1.9,0.9c0.3,0.3,0.5,1.1,0.6,1.2c0.1,0.1,0.2,0.1,0.6,0.1
		c0.4,0,0.7-0.2,1.3-1.1c0.6-0.8,1-1.7,1.1-2.5c0.2-0.7-0.6-1.2-1.2-1.5c-0.6-0.3-1.7-0.5-1.9-0.6c-0.2,0-0.4,0.1-0.4,0.4
		c0,0.3,0.1,0.7,0.4,0.9c0.3,0.2,0.6,0.6,0.6,0.6s-1.2,0.1-2-0.6c-0.8-0.7-1.1-1.9-1.1-1.9s-0.1,0.4-1.6,0.5
		c-1.5,0.1-1.7-0.7-1.7-0.7s0.6,0.1,1.5-0.3c0.9-0.4,1.1-1.2,1.1-1.9c0.1-0.8-0.2-1.7-0.5-2.6c-0.2-0.8-0.1-2.1-0.1-2.1
		s-0.6-0.1-1.7,0.4c-1.2,0.5-1.9,1-1.9,1l0.1-1.6c0,0-1,0-2.4,1c-1.4,1-2.5,2.8-2.5,2.8s0-0.4,0-1.1s0.2-1.5,0.2-1.5
		s-0.8,0.1-1.5,1.3c-0.7,1.2-0.9,2.3-0.9,2.3s-0.2-0.3-0.7-0.5c-0.5-0.1-0.6,0.1-1.1,0.8c-0.5,0.7-0.8,1.8-0.8,1.8s-0.6-0.7-1.8-1.2
		c-1.2-0.6-2-0.5-3-0.3c-1,0.1-2.1,0.6-2.4,1.1c-0.3,0.5-0.1,0.7,0.2,1.2c0.3,0.5,1,1.2,1.2,1.8c0.3,0.7-0.2,1.7-0.5,1.9
		c-0.3,0.2-1,1.1-1,1.1s0-0.6-0.1-1.2c-0.1-0.6-0.6-1-1.1-1.3c-0.5-0.2-0.6-0.5-0.6-0.8c0-0.3,0-0.9-0.2-1.1c-0.2-0.2-0.7-0.1-1,0
		c-0.4,0.2-0.3,0.6-0.3,1c0,0.4-0.3,1-0.7,1.1c-0.4,0.1-1,0.5-1.2,0.9c-0.2,0.4,0,1.3,0,1.3s-0.2,0-0.8-0.4
		c-0.6-0.5-0.5-0.7-0.7-1.2c-0.2-0.6-0.2-1.5,0.1-1.8c0.3-0.4,0.9-0.8,1.1-1.2c0.2-0.4,0.1-0.9-0.2-1.1c-0.3-0.1-0.8-0.1-1.6,0
		c-0.8,0.1-0.9,0.2-1.8,0.3c-0.8,0.1-1.1-0.2-1.2-0.5c-0.1-0.3-0.2-0.8-0.2-0.8s-0.8,0-1.2,0.3c-0.3,0.3-0.8,0.4-0.8,0.4
		s0.2-0.5,0.3-0.7c0.2-0.2,0.3-0.3,0.8-0.7c0.6-0.4,0.7-0.7,1.1-1s1.3-0.2,1.7-0.2c0.4,0,1.2,0.5,1.5,0.7c0.3,0.2,0.7,0.4,1.3,0.4
		c0.6,0,0.8-0.1,0.8-0.1s0.2-0.5-0.2-1c-0.3-0.5-0.7-0.6-1.3-0.8c-0.6-0.3-1-0.6-1.1-0.9c-0.1-0.3-0.5-0.5-0.6-0.5
		c-0.2,0-0.7,0-0.7,0s0-0.2,0.3-0.3c0.2-0.1,0.5-0.3,1-0.3c0.5-0.1,0.7,0.2,1.4,0.3c0.7,0.1,1.4,0.1,1.7,0.1c0.3,0,0.4,0.9,0.6,1.5
		c0.2,0.6,0.7,1.1,1.6,1.1c0.8,0,3.1-0.7,4.2-1c1.1-0.4,1.4-1.2,1.6-2c0.2-0.9,0.2-2.1,0.2-2.1s-0.3-0.1-0.8-0.3
		c-0.5-0.2-0.8-0.4-0.8-0.4s0.3-0.1,1.5-0.4c1.2-0.3,1.9-0.5,1.9-0.5s0-0.4-0.4-0.9c-0.4-0.4-0.7-0.6-0.7-0.6s0.5,0,1.3-0.2
		c0.8-0.2,1.3-0.2,2.4-0.6c1.1-0.4,1.6-0.5,2.5-0.7c0.9-0.2,3.7-0.1,5.8,0.4c2.1,0.5,4.6,1.3,4.6,1.3s0-0.2-0.4-0.9
		c-0.4-0.7-0.5-0.9-1.3-1.9c-0.9-1-1.4-1.3-1.6-1.4c-0.2-0.1-0.2,0.1-0.2,0.4c0,0.3,0,0.8,0,0.8s-0.7-0.7-1-0.9
		c-0.3-0.2-0.9-0.9-1.3-0.8c-0.4,0.1-0.2,0.5,0,0.9c0.2,0.4,0.5,1.3,0.5,1.3s-0.4-0.4-1-0.9c-0.6-0.5-0.8-0.7-1.4-1
		c-0.6-0.3-0.6,0.2-0.6,0.5c0,0.3,0.5,1,0.5,1s-1.1-0.2-2.2-0.9c-1.1-0.7-1.5-1.2-1.5-1.2s-0.2,0.2-0.4,0.5
		c-0.2,0.3-0.1,0.7-0.1,0.7s-0.3-0.3-0.5-0.6c-0.2-0.3-0.2-0.5-0.4-0.7c-0.2-0.2-0.7,0-1,0.4c-0.3,0.4-0.8,0.6-1.4,1.1
		c-0.6,0.5-1.4,0.5-1.4,0.5s0.1-0.1,0.2-0.2c0.1-0.1,0.2-0.4,0.2-0.4s-0.5-0.1-1,0.2c-0.6,0.3-1.5,0.5-1.5,0.5s0.2-0.3,0.2-0.4
		c0-0.2,0-0.5,0-0.5s-0.3,0-0.5,0c-0.3,0-0.4,0-0.9,0.3c-0.5,0.3-1.2,0.2-1.2,0.2s0.2-0.2,0.3-0.4c0.1-0.2,0-0.5,0-0.5
		S40.4,58,40.2,58c-0.3,0.1-0.4,0.1-1.2,0.2c-0.8,0.1-1.2,0-1.9-0.3c-0.7-0.2-1.1,0.2-1.1,0.2s-0.2,0.1,0,0.5
		c0.2,0.4,0.8,0.8,1.2,1.1c0.4,0.3,0.5,1.2,0.2,1.9c-0.2,0.7-0.5,0.8-0.5,0.8s0,0.3-0.2,0.7c-0.2,0.4-0.6,0.6-0.6,0.6s0.1-1.2,0-1.8
		c0-0.5-0.4-0.6-0.7-0.6c-0.3,0-0.7-0.2-0.9-0.4c-0.3-0.2-0.3-0.7-0.5-1.2c-0.3-0.4-0.6-0.5-1.2-0.8c-0.5-0.3-0.7-0.6-1.2-0.6
		c-0.5,0-0.8,0.2-1.5,0.7c-0.6,0.5-1.2,0.8-1.7,1.1c-0.5,0.3-1.1,0.2-1.1,0.2s0,0.2-0.1,0.4c-0.1,0.2-0.2,0.6-0.2,0.6
		s-0.1-0.4-0.2-0.6c-0.1-0.2-0.2-0.4-0.1-0.9c0-0.5,0.6-1.3,1.2-1.6c0.6-0.4,1.5-0.6,1.9-0.8c0.5-0.2,0.3-0.6,0.3-0.6
		s-0.4-0.1-1-0.1c-0.6,0-0.7-0.2-1.1-0.3c-0.4-0.1-0.8-0.3-1.2-0.3c-0.4,0-0.7,0-1.2-0.2c-0.5-0.2-0.7-0.5-0.7-0.5s-0.1,0.1-0.3,0.4
		c-0.2,0.2-0.5,0.6-0.5,0.6s-0.1-0.4,0-0.7c0-0.4,0.1-0.6,0.3-0.8c0.2-0.2,0.5-0.2,0.8-0.3c0.4-0.1,0.4-0.2,0.8-0.4
		c0.4-0.2,0.8-0.4,1.2-0.4c0.4,0,1.1,0.4,1.7,0.8c0.6,0.4,2,1,2,1s0.3-0.5-0.2-1.1c-0.4-0.6-0.6-0.7-0.7-1.5
		c-0.2-0.8-0.1-1.7-0.1-1.7s-0.1-0.3-0.3-0.4c-0.2-0.1-0.5-0.5-0.5-0.5s0.6,0,0.7,0.1c0.1,0,0.3,0.3,0.3,0.3s0.2-0.2,1.2,0.3
		c1,0.5,0.9,1.6,0.8,2.2c-0.1,0.6,0.1,1.4,0.8,1.9c0.7,0.5,2.5,0.8,3.4,0.7c0.9-0.1,1.2-1.1,1.2-1.1s0.4,0.1,1.6,0.1
		c1.2,0,2.4,0.1,2.4,0.1s-0.2-0.6-0.8-1.5C40.3,52.5,40,52,40,52s-0.3,0-1.8-0.1c-1.5-0.1-2-0.4-2-0.4l0.4-0.1c0,0-0.5,0-1.3-0.5
		c-0.8-0.4-1.4-0.9-1.4-0.9s0.3,0.2,1.5,0.2c1.2,0.1,1.2-0.3,1.2-0.3s-1.1-0.3-2.6-1.1c-1.5-0.7-2-1.6-2-1.6s0.3,0.1,0.7,0.2
		c0.4,0.1,0.9,0.1,0.9,0.1s-0.1-0.2-0.3-0.4c-0.2-0.2-0.3-0.4-1.6-0.9c-1.3-0.6-1.6-1.4-1.6-1.4s0.4,0.1,0.9,0.1c0.5,0,0.9,0,0.9,0
		s-0.7-0.3-1.6-0.9c-0.9-0.6-1.1-1.3-1.1-1.3s0.6,0.2,1.2,0.3c0.6,0.1,0.9,0.1,0.9,0.1s-0.3-0.4-0.8-1c-0.5-0.6-1-1.5-1-1.5
		s0.4,0.2,1.2,0.5c0.8,0.4,1.3,0.5,1.3,0.5S32,41,31.9,40.1c-0.1-0.8,0-2.3,0.1-3.1c0.1-0.8,0.1-1.4,0.1-1.4s0-0.3-0.4-0.3
		c-0.3,0-0.5,0.2-0.7,0.7c-0.2,0.5-0.4,1.3-0.7,2c-0.3,0.7-0.7,0.9-1.2,1.1c-0.4,0.2-0.8,0.1-1-0.1c-0.3-0.2-0.4,0-0.6,0.2
		c-0.2,0.2-0.4,0.2-1,0.1c-0.6-0.1-1-0.5-1-0.5s0.4,0,1.1-0.4s0.7-0.6,0.9-1c0.2-0.3,0.5-0.7,0.9-1c0.4-0.3,0.6-0.5,0.7-0.9
		c0.1-0.5,0.5-0.9,0.7-1.4c0.2-0.5,0.9-1.6,1.1-1.7c0.2-0.1,0.2-0.5,0.2-0.5s-2.1,0-2.9,0c-0.7,0-1.7,0-2.2-0.3
		c-0.4-0.2-0.6-0.5-0.7-0.7c-0.1-0.2-0.9,0.3-0.9,0.3s0.4-0.5,0.4-0.9c0.1-0.4,0.4-0.3,0.8-0.4c0.5-0.1,2.6-0.2,3.8-0.3
		c1.2-0.1,1.1-0.2,1.2-0.4c0.1-0.2-0.1-1.2-0.3-1.7c-0.3-0.5-0.1-0.9,0.1-1.2c0.3-0.3,0.7-0.7,0.7-0.7s0.1-0.2-0.2-0.5
		c-0.4-0.3-1.1-0.5-1.1-0.5s0.2-0.1,1.1-0.1c0.8,0,1,0.5,1,0.5s0.4,0.1,0.9,0.3c0.5,0.2,0.9,0.7,1,1.4c0,0.7-0.2,1.5-0.2,1.5
		s0.2,0.1,0.6,0c0.4-0.1,0.8-0.3,1.1-0.8c0.4-0.5,1-0.8,1.5-0.9c0.5-0.1,0.7,0.1,0.9-0.2c0.2-0.2,0-1.1,0-1.1s0.3,0.5,0.6,1.2
		c0.4,0.7,0,1.4-0.2,2c-0.3,0.5-1.1,0.8-2.1,1c-0.9,0.2-1.7,0.8-2.1,2c-0.4,1.1-0.1,2.7,0.4,4.2c0.5,1.6,1.4,3.3,1.4,3.3
		s0.2-0.1,0.5-0.5s0.4-1.1,0.4-1.1s0.2,0.5,0.4,1.4c0.2,0.9,0,2.1,0.1,2.1c0.1,0,1-1,1-1s0,0.4,0,0.9s0.2,0.8,0.6,1.2
		c0.4,0.4,1.3,0.4,1.3,0.4s-0.1-0.6,0-1.4c0.1-0.7,0.8-1.1,1.1-1.2c0.3-0.1,0.8-0.4,0.7-0.6c-0.1-0.2-1-0.6-1-0.6s0.2-0.2,1.7-0.6
		c1.5-0.4,1.9-0.3,2-0.4c0.1-0.1,0.1-0.5,0.1-0.8s0.3-0.8,0.5-0.9c0.2-0.1,0.4-0.2,0.4-0.5c0-0.3-0.4-0.4-0.9-0.6
		c-0.5-0.2-1-0.5-1.1-0.7C43.1,34,43.1,33,43.1,33s0.6,0.3,1.2,0.4s1.1,0.2,2,0.2c0.9,0.1,0.7-0.3,0.4-0.7c-0.3-0.5-1-1.2-1.7-1.7
		c-0.7-0.4-2.3-1-2.3-1l-0.1,1.3c0,0-0.2,0-0.4-0.1c-0.2-0.1-0.6-0.5-0.9-0.8c-0.3-0.3-0.5-1-0.5-1.3c0-0.3,0.2-0.5,0.7-0.7
		c0.5-0.3,1.6-0.7,2.1-0.8s0.6-0.5,0.9-0.9c0.2-0.4,1.2-0.8,1.9-0.8c0.7,0,1.5,0,2.2,0.3c0.7,0.2,1.2,0.3,1.9,0.4
		c0.6,0.1,0.9-0.1,1.3-0.3c0.3-0.2,1.9-1.3,2.5-1.7c0.6-0.4,2.2-1.7,3.1-2c0.8-0.3,1.7-0.4,2.1-0.4c0.4,0,0.4,0.2,0.4,0.5
		c-0.1,0.3-0.6,1.2-0.6,1.2s0.1,0.1,0.5,0c0.4-0.1,0.7-0.1,1.4-0.4c0.7-0.3,1.6-0.4,2-0.4c0.5,0,0.6,0.2,0.6,0.3
		c0.1,0.1,0.1,0.4-0.1,1.1c-0.3,0.7-0.9,1.8-1.4,2.4c-0.5,0.7-1.7,1.9-2.2,2.4c-0.5,0.5-1.5,0.9-2.2,1.2c-0.7,0.2-0.8,0.6-0.8,0.6
		s0.2,0.9,0.4,1.6c0.1,0.7,0.2,0.9,0.2,0.9s0.7-0.1,0.9-0.3c0.2-0.2,1.1-1.2,1.9-1.6c0.8-0.4,1.9-1,3.8-1.9c1.9-0.9,3.7-1.5,5.6-3.1
		c1.9-1.6,2.3-2.2,2.3-2.2s0.1,1.4-0.8,2.6c-0.9,1.2-1.4,1.7-1.4,1.7s0.9-0.2,2.1-1.4c1.2-1.2,2.2-1.9,3.5-3.1
		c1.3-1.2,2.4-2.5,3.5-3.3c1.1-0.8,1.9-1.1,1.9-1.1s-0.7,1.1-1.4,2.5c-0.7,1.4-0.8,1.9-2,3.4s-2.1,2.3-2.1,2.3s1.1-0.4,2.8-2
		c1.7-1.6,2.3-2.2,2.3-2.2s-0.3,1.4-1,2.5c-0.8,1.1-1.5,2.1-1.5,2.1s1.5-1,2.7-1.7c1.3-0.7,2.3-1.3,3.9-2.2c1.6-1,3.1-1.7,3.9-2.4
		c0.8-0.7,1-1.1,1-1.1s0.1,1.6-1.2,3.5c-1.3,1.9-4.5,5-4.5,5s1.8-0.3,4.5-2s3.9-2.3,3.9-2.3s-1,2.1-2.4,3.6
		c-1.4,1.5-3.5,3.2-5.1,4.4c-1.5,1.2-3.5,2.3-3.5,2.3s1.7-0.4,4.2-1.1c2.5-0.7,3.5-1.1,3.5-1.1s-0.1,1-2.8,3.1
		c-2.7,2.1-4.3,3-5.9,3.9c-1.7,0.9-2.8,1.5-2.8,1.5s0.8,0.3,3.1-0.1c2.3-0.4,2.7-0.8,2.7-0.8s-0.5,1.6-4.3,3.5
		c-3.9,1.9-5.2,2.1-5.2,2.1s0.2,0.4,1.7,0.5c1.5,0.1,2.3,0,3.8-0.1c1.5-0.2,2.3-0.4,2.3-0.4s-0.7,1.1-2.4,1.9
		c-1.7,0.8-2.9,0.9-4.7,1.2C72.7,50.1,71.5,50.2,71.5,50.2z M30.6,39.1c-0.3,0.5-0.7,0.6-0.7,0.6l1.1,0.5c0,0-0.1-0.3-0.1-0.8
		c0-0.5,0.1-1.1,0.1-1.1S30.9,38.6,30.6,39.1z M46,32.8c0,0-0.4-0.6-1.4-1c-1-0.5-1.4-0.6-1.4-0.6l0,1.2c0,0,0.3,0.1,1.4,0.3
		C45.6,32.9,46,32.8,46,32.8z"/>
	<g>
		<path fill="#DFB725" d="M17.4,109.8c-3.4,0-6.5-1.9-6.5-5.1c0-3.6,3.5-5.5,7.1-5.5c1.5,0,2.8,0.3,4.2,0.8v2.8h-0.5
			c-0.5-1.8-1.8-2.9-4-2.9c-2.6,0-4.1,2.1-4.1,4.3c0,2.7,2,5,5.1,5c1.2,0,1.1-0.3,1.2-0.9v-0.8c0-1.9-0.1-2.1-2.4-2.4v-0.4h5.8v0.4
			c-1.1,0.3-1.3,0.4-1.3,1.5v1.8v0.6C21.4,109.3,19.3,109.8,17.4,109.8z"/>
		<path fill="#DFB725" d="M32.8,108.9c-0.8-0.5-1.8-1.9-2.3-2.8c-0.8-1.3-0.8-1.3-2.2-1.3v1.4c0,0.1,0,0.3,0,0.4
			c0,1.7,0.1,2.3,2.6,2.5v0.4h-6.9v-0.4c2-0.3,2.2-0.2,2.2-2.9v-4c0-2-0.1-2.3-2.2-2.4v-0.4H29c2,0,5.3,0.2,5.3,2.6
			c0,1.2-1,2.2-2.1,2.6c0,0,0.8,1.8,2,3c1.2,1.2,2.4,1.5,2.4,1.5v0.4C36.5,109.5,34.3,109.9,32.8,108.9z M28.2,104.3
			c1.7-0.1,3.4-0.7,3.4-2.3c0-1.5-1.8-2-3.4-2V104.3z"/>
		<path fill="#DFB725" d="M41.5,106.2c0,2.7,0.2,2.6,2.2,2.9v0.4h-6.5v-0.4c2-0.3,2.2-0.2,2.2-2.9v-3.5c0-2.7-0.2-2.6-2.2-2.9v-0.4
			h6.5v0.4c-2,0.3-2.2,0.2-2.2,2.9V106.2z"/>
		<path fill="#DFB725" d="M48.6,104.9v1.3c0,0.1,0,0.3,0,0.4c0,1.7,0.1,2.3,2.6,2.5v0.4h-7v-0.4c2-0.3,2.2-0.2,2.2-2.9v-3.5
			c0-2.7-0.2-2.6-2.2-2.9v-0.4H54l-0.4,2.7h-0.5c-0.1-1.9-1.4-2.1-3.2-2.1h-1.3v4H50c1.4,0,2.2-0.1,2.6-1.4H53
			c-0.1,1.3-0.1,2.6-0.1,3.9h-0.4c-0.3-1.6-1-1.6-2.6-1.6H48.6z"/>
		<path fill="#DFB725" d="M58.8,104.9v1.3c0,0.1,0,0.3,0,0.4c0,1.7,0.1,2.3,2.6,2.5v0.4h-7v-0.4c2-0.3,2.2-0.2,2.2-2.9v-3.5
			c0-2.7-0.2-2.6-2.2-2.9v-0.4h9.8l-0.4,2.7h-0.5c-0.1-1.9-1.4-2.1-3.2-2.1h-1.3v4h1.4c1.4,0,2.2-0.1,2.6-1.4h0.4
			c-0.1,1.3-0.1,2.6-0.1,3.9h-0.4c-0.3-1.6-1-1.6-2.6-1.6H58.8z"/>
		<path fill="#DFB725" d="M77.9,104.4c0,3.3-2.8,5.4-6.4,5.4c-3.6,0-6.3-2-6.3-5.3c0-3.2,2.8-5.3,6.3-5.3
			C74.9,99.1,77.9,100.9,77.9,104.4z M67.8,104.2c0,2.1,1.1,4.9,3.9,4.9c2.6,0,3.5-2.4,3.5-4.3c0-2.1-1.1-4.9-4-4.9
			C68.7,99.8,67.8,102.4,67.8,104.2z"/>
		<path fill="#DFB725" d="M81.2,102.7c0-1.5,0-2.6-2.1-2.9v-0.4h3.8c2.1,2.4,5,4.9,7.3,7.4l0,0l-0.1-4.7c0-1.8-0.5-2-2.5-2.2v-0.4h5
			v0.4c-1.5,0.1-1.5,0.7-1.5,3.2v6.6l-0.7,0.3c-1.6-1.8-5.6-5.4-8.3-8c0,0.4,0,0.7,0,1.1c0,1.3,0.1,2.5,0.1,3.8
			c0.1,1.8,0.4,1.9,2.4,2.3v0.4h-5.4v-0.4c1.2-0.2,2-0.1,2-2.2V102.7z"/>
		<path fill="#DFB725" d="M100.9,102.4h-0.5c-0.3-1.2-0.7-2.6-2.4-2.6c-1,0-1.7,0.7-1.7,1.5c0,2.4,5.4,2.2,5.4,5.4
			c0,2.1-2.3,3-4.4,3c-1.2,0-2.3-0.3-3.4-0.8l-0.5-2.9L94,106c0.5,1.5,1.8,3.1,3.7,3.1c1.1,0,1.9-0.6,1.9-1.6c0-2.5-5.4-2.3-5.4-5.3
			c0-2,2.1-3.1,4.1-3.1c1,0,2,0.2,2.8,0.7L100.9,102.4z"/>
	</g>
	<path fill="#554190" d="M71.1,49.9c0,0-0.7,0.1-2.6,0.1c-1.9,0-2.7-0.3-2.7-0.3s0.2-0.1,1.3-0.5c1.1-0.4,1.7-0.9,1.7-0.9
		s-0.1-0.1-0.2-0.3c-0.1-0.2-0.1-0.3-0.1-0.3s0.5,0,1.7,0c1.2,0,2,0.2,4,0.3c1.9,0.1,4.3-0.1,4.3-0.1s-0.1,0.4-2.6,1
		C73.3,49.5,71.1,49.9,71.1,49.9z M48.8,28.8c-0.1,0.2-0.3,0.7-0.9,0.7c-0.6,0-0.7-0.6-0.7-0.8c-0.6-0.1-0.8-0.1-0.8-0.1
		s0.1-0.3,1.6-0.3s2,0.6,2,0.6S49.5,28.8,48.8,28.8z M75.6,30.4c1.5-0.8,5.3-2.4,8-4c2.7-1.5,3.7-2.5,3.7-2.5s0.4,0.5,0,1.1
		c-0.4,0.6-2.9,3-2.9,3l0.5,0.1c0,0-0.4,0.5-1.6,1.3c-1.2,0.9-1.9,1.8-4.9,3.8c-3,2-8.2,3.4-8.2,3.4l-0.1-0.2c0,0,2.5-1,4-2.1
		c1.5-1.1,2-1.9,1.9-2.1c-0.1-0.2-2.2-0.3-2.4-0.4C73.2,31.8,74,31.2,75.6,30.4z M68,34.3c0.6-0.3,2.8-1.4,4.2-1.6
		c1.4-0.3,1.7-0.2,1.7-0.2s0.2,0.4-0.2,0.8s-1,1-2.3,1.8c-1.3,0.8-3.8,2-3.8,2l0.1-0.6c0,0,0.7-0.5,1.1-1c0.3-0.5,0.2-0.7,0-0.7
		c-0.2,0-1.2,0-1.2,0S67.3,34.6,68,34.3z M68.1,37.6c0.9-0.1,1.6-0.3,2.4-0.4c0.7-0.1,1.9-0.2,2.5-0.1c0.5,0.1,0.9,0.1,0.9,0.1
		s-0.1,0.5-0.6,0.7c-0.4,0.3-2.1,1.2-2.7,1.3c-0.6,0.2-1.9,0.2-2.5-0.1c-0.6-0.3-1.4-1.2-1.4-1.2S67.2,37.8,68.1,37.6z M66.3,41.8
		c0.3-0.1,0.6-0.2,0.6-0.3c0.1-0.1-0.1-0.9-0.1-0.9s1.6-0.1,3.2,0.2c1.7,0.3,2.7,0.8,2.7,0.8s-1.1,0.1-2,0.5
		c-0.9,0.3-1.5,0.7-3.1,0.7c-1.5,0-2.4-0.2-2.4-0.2S66,41.9,66.3,41.8z M65.6,44.6c0.4-0.3,1.9-1.4,1.9-1.4s1,0.1,1.6,0.2
		c0.5,0.2,1.1,0.3,1.7,0.3c0.6,0,0.9,0,0.9,0s-0.2,0.3-1.1,0.6c-0.9,0.3-1.7,0.5-2.6,0.7c-0.9,0.1-2.4,0.2-2.7,0.1
		C65,45.1,65.2,44.9,65.6,44.6z M62,51.8c0,0,0-0.5,0.3-1.2c0.3-0.7,0.4-0.8,0.4-0.8s0.7,0.1,1.6,0.4c0.9,0.4,1,0.6,1,0.6
		s-0.9,0.2-2,0.6C62.2,51.9,62,51.8,62,51.8z M67.1,50.3c0,0,0.4,0.6,3,1c2.6,0.5,4,0.5,4,0.5s-2.7,0.5-6.4,0.6
		c-3.8,0.1-5-0.3-5-0.3s0.6-0.3,1.2-0.3c0.6,0,0.9,0.1,1.3-0.1C65.6,51.4,67.1,50.3,67.1,50.3z M65.3,49c-1.5,0.4-2.3,0.4-2.3,0.4
		l1-1.8c0,0,0.4,0,1.7,0.2c1.3,0.2,1.8,0.2,1.8,0.2S66.8,48.6,65.3,49z M67.8,46.9c-2,0.4-4.1,0.5-4.1,0.4c0-0.1,0.3-0.3,1.3-0.9
		c1-0.6,1.4-0.9,1.4-0.9s1.2-0.1,2.3,0.1c1.1,0.2,2.1,0.7,2.1,0.7S69.8,46.5,67.8,46.9z M80.3,42.4c0,0-0.5,0.7-3.1,2.3
		c-2.6,1.5-5.2,2.4-5.2,2.4s0.2-0.3,0.3-0.6c0.1-0.3,0.5-0.9,0.5-0.9s-0.4-0.1-1.1-0.2c-0.7-0.1-1.2-0.3-1.2-0.3s3.5-1,5.5-1.6
		C78.1,42.8,80.3,42.4,80.3,42.4z M82.3,36.5c1.2-0.4,1.7-0.7,2.6-1s1.4-0.3,1.4-0.3s-1.4,0.9-2.2,1.5s-2.4,2.1-5.7,4.1
		c-3.3,2-6.3,2.6-6.3,2.6l-0.9-0.7c0,0,1.6-0.5,2.1-0.8c0.6-0.3,0.6-0.7,0.5-0.9c-0.2-0.2-0.5-0.3-0.5-0.3s2.1-1.1,3.9-1.9
		c1.8-0.8,2.7-1.2,2.7-1.2l-0.7-0.1C79.2,37.5,81.1,37,82.3,36.5z M88.8,29c-1,0.9-3.9,3.3-6.7,5.3c-2.8,2-3.8,2.9-6.1,4.1
		c-2.4,1.2-2.9,1.3-3.8,1.5C71.8,40,71.5,40,71.5,40s2.7-1.2,3.7-2.2c1-0.9,1.3-1.1,1.2-1.4c-0.1-0.3-2-0.2-2-0.2s0.1-0.3,0.7-0.6
		c0.6-0.3,3.5-1.8,5.7-3c2.2-1.2,4.1-2.2,6.1-3.3c2-1.2,2.7-1.7,2.7-1.7S89.8,28.1,88.8,29z"/>
</g>
</svg>
