<?xml version="1.0" encoding="utf-8"?>
<!-- Generator: Adobe Illustrator 21.1.0, SVG Export Plug-In . SVG Version: 6.00 Build 0)  -->
<svg version="1.1" id="Layer_1" xmlns="http://www.w3.org/2000/svg" xmlns:xlink="http://www.w3.org/1999/xlink" x="0px" y="0px"
	 viewBox="0 0 66.5 100" width="257.875939165" height="387.783367165" style="enable-background:new 0 0 66.5 100;" xml:space="preserve">
<style type="text/css">
	.st0{fill:#545254;}
	.st1{fill:#D8B67A;}
	.st2{fill:#4A2E27;}
	.st3{fill:#69514F;}
	.st4{fill:#FFFFFF;}
	.st5{fill:#3C2118;}
	.st6{fill:#BD2534;}
	.st7{fill:#A61F23;}
	.st8{fill:#AD1F24;}
	.st9{fill:#620C0E;}
	.st10{fill:#B38A4A;}
	.st11{fill:#E5D3AE;}
</style>
<g>
	<g>
		<path d="M14.1,85.6c0.2,0.2,0.4,0.3,0.5,0.6c0.1,0.2,0.2,0.5,0.2,0.8c0,0.4-0.1,0.7-0.2,1c-0.2,0.3-0.4,0.5-0.7,0.6
			c-0.3,0.2-0.7,0.3-1.1,0.3C12.4,89,11.9,89,11.4,89H7.5v-0.4c0.1,0,0.2,0,0.4,0c0.2,0,0.3,0,0.3-0.1c0.1-0.1,0.2-0.1,0.3-0.2
			c0-0.1,0.1-0.2,0.1-0.3v-5.3c0-0.1,0-0.2-0.1-0.3c0-0.1-0.1-0.2-0.3-0.2c-0.1,0-0.2-0.1-0.4-0.1C7.7,82,7.6,82,7.5,82v-0.4h4.1
			c1,0,1.8,0.1,2.2,0.4c0.5,0.3,0.7,0.7,0.7,1.2c0,0.3-0.1,0.5-0.2,0.7c-0.1,0.2-0.2,0.4-0.4,0.5c-0.2,0.1-0.4,0.2-0.6,0.3
			c-0.2,0.1-0.5,0.2-0.8,0.2v0.1c0.3,0,0.6,0.1,0.9,0.2C13.6,85.3,13.9,85.5,14.1,85.6z M12.4,83.4c0-0.4-0.1-0.7-0.3-1
			c-0.2-0.2-0.6-0.3-1-0.3c-0.1,0-0.2,0-0.3,0c-0.1,0-0.2,0-0.3,0v2.8h0.3c0.6,0,1-0.1,1.3-0.4C12.3,84.2,12.4,83.8,12.4,83.4z
			 M12.8,86.9c0-0.5-0.2-0.9-0.5-1.2s-0.8-0.4-1.3-0.4c-0.1,0-0.2,0-0.3,0c-0.1,0-0.2,0-0.2,0v2.7c0,0.1,0.1,0.2,0.3,0.3
			c0.2,0.1,0.4,0.1,0.6,0.1c0.4,0,0.8-0.1,1-0.4C12.6,87.8,12.8,87.5,12.8,86.9z"/>
		<path d="M22.8,82.4c0.4,0.3,0.7,0.7,0.9,1.2c0.2,0.5,0.3,1,0.3,1.6c0,0.5-0.1,1.1-0.3,1.6c-0.2,0.5-0.4,0.9-0.8,1.3
			c-0.4,0.4-0.8,0.7-1.3,0.9c-0.5,0.2-1.1,0.3-1.7,0.3c-0.5,0-1.1-0.1-1.5-0.3c-0.5-0.2-0.9-0.4-1.3-0.8c-0.4-0.3-0.7-0.7-0.9-1.2
			c-0.2-0.5-0.3-1-0.3-1.6c0-0.6,0.1-1.2,0.3-1.7c0.2-0.5,0.5-0.9,0.9-1.3c0.4-0.3,0.8-0.6,1.3-0.8c0.5-0.2,1-0.3,1.6-0.3
			c0.6,0,1.1,0.1,1.6,0.3C22,81.8,22.5,82.1,22.8,82.4z M21.5,87.7c0.2-0.3,0.3-0.7,0.3-1.1c0.1-0.4,0.1-0.9,0.1-1.4
			c0-0.4,0-0.9-0.1-1.3c-0.1-0.4-0.2-0.8-0.3-1.1c-0.2-0.3-0.4-0.6-0.6-0.8c-0.2-0.2-0.6-0.3-0.9-0.3c-0.6,0-1.1,0.3-1.4,0.9
			c-0.3,0.6-0.5,1.5-0.5,2.6c0,0.5,0,0.9,0.1,1.3c0.1,0.4,0.2,0.8,0.3,1.1c0.2,0.3,0.4,0.6,0.6,0.7c0.2,0.2,0.5,0.3,0.9,0.3
			c0.3,0,0.6-0.1,0.9-0.3C21.1,88.3,21.3,88,21.5,87.7z"/>
		<path d="M33.6,89h-2.9c-0.5-0.8-0.9-1.4-1.2-1.8c-0.3-0.4-0.7-1-1.2-1.6H28v2.3c0,0.1,0,0.2,0.1,0.3c0,0.1,0.1,0.2,0.3,0.2
			c0.1,0,0.2,0.1,0.3,0.1c0.1,0,0.3,0,0.4,0.1V89h-4v-0.4c0.1,0,0.2,0,0.4,0c0.2,0,0.3,0,0.4-0.1c0.1-0.1,0.2-0.1,0.3-0.2
			c0-0.1,0.1-0.2,0.1-0.3v-5.3c0-0.1,0-0.2-0.1-0.3c0-0.1-0.1-0.2-0.3-0.2c-0.1,0-0.2-0.1-0.4-0.1C25.2,82,25.1,82,25,82v-0.4h4.2
			c0.9,0,1.6,0.1,2.1,0.4c0.5,0.3,0.7,0.7,0.7,1.3c0,0.5-0.1,0.9-0.4,1.3c-0.3,0.3-0.8,0.6-1.4,0.7c0.2,0.3,0.5,0.7,0.8,1.1
			c0.3,0.4,0.6,0.8,1,1.2c0.1,0.1,0.3,0.3,0.4,0.5c0.2,0.2,0.4,0.3,0.5,0.4c0.1,0,0.2,0,0.3,0.1c0.1,0,0.2,0,0.3,0V89z M30,83.5
			c0-0.5-0.1-0.9-0.4-1.1c-0.3-0.2-0.7-0.3-1.2-0.3H28v3.1h0.4c0.5,0,0.9-0.1,1.2-0.4C29.9,84.5,30,84.1,30,83.5z"/>
		<path d="M40.6,82.3c0.5,0.3,0.8,0.7,1.1,1.2c0.3,0.5,0.4,1.1,0.4,1.8c0,0.6-0.1,1.2-0.4,1.6c-0.3,0.5-0.6,0.9-1,1.1
			c-0.4,0.3-0.9,0.5-1.4,0.7C38.8,89,38.2,89,37.6,89h-3.8v-0.4c0.1,0,0.3,0,0.4,0c0.2,0,0.3,0,0.3-0.1c0.1-0.1,0.2-0.1,0.3-0.2
			c0-0.1,0.1-0.2,0.1-0.3v-5.3c0-0.1,0-0.2-0.1-0.3c0-0.1-0.1-0.2-0.3-0.2c-0.1-0.1-0.3-0.1-0.4-0.1c-0.1,0-0.3,0-0.3,0v-0.4h4
			c0.4,0,0.9,0.1,1.4,0.2C39.7,81.8,40.2,82,40.6,82.3z M39.5,87.7c0.2-0.3,0.3-0.6,0.4-1c0.1-0.4,0.1-0.8,0.1-1.3
			c0-0.5-0.1-0.9-0.2-1.4c-0.1-0.4-0.3-0.8-0.5-1c-0.2-0.3-0.5-0.5-0.8-0.7c-0.3-0.2-0.6-0.2-1-0.2c-0.1,0-0.3,0-0.4,0
			c-0.2,0-0.3,0-0.3,0v5.7c0,0.1,0,0.2,0.1,0.3c0,0.1,0.1,0.2,0.2,0.3c0.1,0.1,0.2,0.1,0.3,0.2c0.1,0,0.3,0.1,0.5,0.1
			c0.4,0,0.7-0.1,1-0.2C39.1,88.2,39.4,88,39.5,87.7z"/>
		<path d="M49.8,83.5h-0.4c-0.1-0.3-0.3-0.6-0.5-0.9c-0.2-0.3-0.5-0.5-0.7-0.5c-0.1,0-0.3,0-0.4,0c-0.2,0-0.3,0-0.5,0h-1.1v2.9h0.8
			c0.2,0,0.4,0,0.5-0.1c0.2,0,0.3-0.1,0.4-0.3c0.1-0.1,0.2-0.2,0.2-0.4c0.1-0.2,0.1-0.4,0.2-0.5h0.4v3.1h-0.4c0-0.1-0.1-0.3-0.2-0.6
			c-0.1-0.2-0.2-0.4-0.2-0.5c-0.1-0.1-0.3-0.2-0.4-0.3c-0.2,0-0.3-0.1-0.5-0.1h-0.8v2.2c0,0.2,0,0.4,0.1,0.5c0,0.1,0.1,0.2,0.2,0.3
			c0.1,0.1,0.2,0.1,0.4,0.1c0.2,0,0.4,0,0.6,0c0.1,0,0.3,0,0.4,0c0.2,0,0.3,0,0.5,0c0.1,0,0.3,0,0.4-0.1c0.1,0,0.2-0.1,0.3-0.2
			c0.2-0.2,0.4-0.4,0.6-0.8c0.2-0.4,0.3-0.6,0.4-0.8h0.4L50.1,89h-7v-0.4c0.1,0,0.2,0,0.4,0c0.2,0,0.3,0,0.4-0.1
			c0.1-0.1,0.2-0.1,0.3-0.2c0-0.1,0.1-0.2,0.1-0.3v-5.3c0-0.1,0-0.2-0.1-0.3c0-0.1-0.1-0.2-0.3-0.2c-0.1,0-0.2-0.1-0.4-0.1
			c-0.2,0-0.3-0.1-0.4-0.1v-0.4h6.6V83.5z"/>
		<path d="M59.7,89h-2.9c-0.5-0.8-0.9-1.4-1.2-1.8c-0.3-0.4-0.7-1-1.2-1.6h-0.3v2.3c0,0.1,0,0.2,0.1,0.3c0,0.1,0.1,0.2,0.3,0.2
			c0.1,0,0.2,0.1,0.3,0.1c0.1,0,0.3,0,0.4,0.1V89h-4v-0.4c0.1,0,0.2,0,0.4,0c0.2,0,0.3,0,0.4-0.1c0.1-0.1,0.2-0.1,0.3-0.2
			c0-0.1,0.1-0.2,0.1-0.3v-5.3c0-0.1,0-0.2-0.1-0.3c0-0.1-0.1-0.2-0.3-0.2c-0.1,0-0.2-0.1-0.4-0.1c-0.2,0-0.3-0.1-0.4-0.1v-0.4h4.2
			c0.9,0,1.6,0.1,2.1,0.4c0.5,0.3,0.7,0.7,0.7,1.3c0,0.5-0.1,0.9-0.4,1.3c-0.3,0.3-0.8,0.6-1.4,0.7c0.2,0.3,0.5,0.7,0.8,1.1
			c0.3,0.4,0.6,0.8,1,1.2c0.1,0.1,0.3,0.3,0.4,0.5c0.2,0.2,0.4,0.3,0.5,0.4c0.1,0,0.2,0,0.3,0.1c0.1,0,0.2,0,0.3,0V89z M56.2,83.5
			c0-0.5-0.1-0.9-0.4-1.1c-0.3-0.2-0.7-0.3-1.2-0.3h-0.4v3.1h0.4c0.5,0,0.9-0.1,1.2-0.4C56,84.5,56.2,84.1,56.2,83.5z"/>
		<path d="M6.6,96.4C6.8,96.5,7,96.7,7.1,97c0.1,0.2,0.2,0.5,0.2,0.8c0,0.4-0.1,0.7-0.2,1c-0.2,0.3-0.4,0.5-0.7,0.6
			c-0.3,0.2-0.7,0.3-1.1,0.3c-0.4,0.1-0.9,0.1-1.5,0.1H0v-0.4c0.1,0,0.2,0,0.4,0s0.3,0,0.3-0.1C0.9,99.2,1,99.1,1,99.1
			c0-0.1,0.1-0.2,0.1-0.3v-5.3c0-0.1,0-0.2-0.1-0.3c0-0.1-0.1-0.2-0.3-0.2c-0.1,0-0.2-0.1-0.4-0.1c-0.1,0-0.3-0.1-0.4-0.1v-0.4h4.1
			c1,0,1.8,0.1,2.2,0.4C6.7,93,6.9,93.4,6.9,94c0,0.3-0.1,0.5-0.2,0.7c-0.1,0.2-0.2,0.4-0.4,0.5c-0.2,0.1-0.4,0.2-0.6,0.3
			c-0.2,0.1-0.5,0.2-0.8,0.2v0.1c0.3,0,0.6,0.1,0.9,0.2C6.1,96.1,6.4,96.2,6.6,96.4z M4.9,94.1c0-0.4-0.1-0.7-0.3-1
			c-0.2-0.2-0.6-0.3-1-0.3c-0.1,0-0.2,0-0.3,0c-0.1,0-0.2,0-0.3,0v2.8h0.3c0.6,0,1-0.1,1.3-0.4C4.8,94.9,4.9,94.6,4.9,94.1z
			 M5.3,97.7c0-0.5-0.2-0.9-0.5-1.2c-0.3-0.3-0.8-0.4-1.3-0.4c-0.1,0-0.2,0-0.3,0c-0.1,0-0.2,0-0.2,0v2.7c0,0.1,0.1,0.2,0.3,0.3
			c0.2,0.1,0.4,0.1,0.6,0.1c0.4,0,0.8-0.1,1-0.4C5.1,98.6,5.3,98.2,5.3,97.7z"/>
		<path d="M17,92.7c-0.1,0-0.2,0-0.4,0.1c-0.2,0-0.4,0.1-0.5,0.2c-0.1,0.1-0.2,0.2-0.3,0.5c-0.1,0.2-0.1,0.6-0.1,1v2.8
			c0,0.8-0.3,1.5-0.8,2c-0.6,0.5-1.3,0.7-2.2,0.7c-1.1,0-1.9-0.2-2.5-0.7c-0.6-0.5-0.9-1.1-0.9-2v-3.8c0-0.1,0-0.2-0.1-0.3
			c0-0.1-0.1-0.2-0.3-0.2c-0.1,0-0.2-0.1-0.3-0.1c-0.1,0-0.2,0-0.3-0.1v-0.4h3.9v0.4c-0.1,0-0.2,0-0.3,0c-0.1,0-0.2,0-0.4,0.1
			c-0.1,0-0.2,0.1-0.3,0.2c0,0.1-0.1,0.2-0.1,0.3v3.8c0,0.7,0.2,1.3,0.5,1.6c0.3,0.3,0.8,0.5,1.4,0.5c0.6,0,1.1-0.2,1.4-0.6
			c0.3-0.4,0.5-0.9,0.5-1.6v-2.5c0-0.4,0-0.8-0.1-1c-0.1-0.2-0.2-0.4-0.3-0.5c-0.1-0.1-0.2-0.1-0.5-0.2c-0.2-0.1-0.4-0.1-0.5-0.1
			v-0.4H17V92.7z"/>
		<path d="M24.7,97.4l-0.1,2.4h-6.9v-0.4c0.1,0,0.3,0,0.4,0c0.2,0,0.3,0,0.3-0.1c0.1,0,0.2-0.1,0.3-0.2c0-0.1,0.1-0.2,0.1-0.3v-5.3
			c0-0.1,0-0.2-0.1-0.3c0-0.1-0.1-0.2-0.3-0.2c-0.1,0-0.2-0.1-0.4-0.1c-0.2,0-0.3-0.1-0.4-0.1v-0.4h4.1v0.4c-0.1,0-0.2,0-0.4,0
			c-0.2,0-0.3,0-0.4,0.1c-0.1,0-0.2,0.1-0.3,0.2c0,0.1-0.1,0.2-0.1,0.3v4.9c0,0.2,0,0.4,0,0.5c0,0.1,0.1,0.2,0.2,0.3
			c0.1,0.1,0.2,0.1,0.4,0.1c0.2,0,0.4,0,0.7,0c0.3,0,0.6,0,0.8-0.1c0.3,0,0.5-0.1,0.6-0.2c0.2-0.2,0.4-0.4,0.5-0.8
			c0.2-0.3,0.3-0.6,0.4-0.9H24.7z"/>
		<path d="M32.3,97.4l-0.1,2.4h-6.9v-0.4c0.1,0,0.3,0,0.4,0s0.3,0,0.3-0.1c0.1,0,0.2-0.1,0.3-0.2c0-0.1,0.1-0.2,0.1-0.3v-5.3
			c0-0.1,0-0.2-0.1-0.3c0-0.1-0.1-0.2-0.3-0.2c-0.1,0-0.2-0.1-0.4-0.1c-0.2,0-0.3-0.1-0.4-0.1v-0.4h4.1v0.4c-0.1,0-0.2,0-0.4,0
			c-0.2,0-0.3,0-0.4,0.1c-0.1,0-0.2,0.1-0.3,0.2c0,0.1-0.1,0.2-0.1,0.3v4.9c0,0.2,0,0.4,0,0.5c0,0.1,0.1,0.2,0.2,0.3
			c0.1,0.1,0.2,0.1,0.4,0.1c0.2,0,0.4,0,0.7,0c0.3,0,0.6,0,0.8-0.1c0.3,0,0.5-0.1,0.6-0.2c0.2-0.2,0.4-0.4,0.5-0.8
			c0.2-0.3,0.3-0.6,0.4-0.9H32.3z"/>
		<path d="M39.7,93.1c0.5,0.3,0.8,0.7,1.1,1.2c0.3,0.5,0.4,1.1,0.4,1.8c0,0.6-0.1,1.2-0.4,1.6c-0.3,0.5-0.6,0.9-1,1.1
			c-0.4,0.3-0.9,0.5-1.4,0.7c-0.5,0.1-1.1,0.2-1.7,0.2H33v-0.4c0.1,0,0.3,0,0.4,0c0.2,0,0.3,0,0.3-0.1c0.1-0.1,0.2-0.1,0.3-0.2
			c0-0.1,0.1-0.2,0.1-0.3v-5.3c0-0.1,0-0.2-0.1-0.3c0-0.1-0.1-0.2-0.3-0.2c-0.1-0.1-0.3-0.1-0.4-0.1c-0.1,0-0.3,0-0.3,0v-0.4h4
			c0.4,0,0.9,0.1,1.4,0.2C38.8,92.6,39.2,92.8,39.7,93.1z M38.6,98.4c0.2-0.3,0.3-0.6,0.4-1c0.1-0.4,0.1-0.8,0.1-1.3
			c0-0.5-0.1-0.9-0.2-1.4c-0.1-0.4-0.3-0.8-0.5-1c-0.2-0.3-0.5-0.5-0.8-0.7c-0.3-0.2-0.6-0.2-1-0.2c-0.1,0-0.3,0-0.4,0
			c-0.2,0-0.3,0-0.3,0v5.7c0,0.1,0,0.2,0.1,0.3c0,0.1,0.1,0.2,0.2,0.3c0.1,0.1,0.2,0.1,0.3,0.2c0.1,0,0.3,0.1,0.5,0.1
			c0.4,0,0.7-0.1,1-0.2C38.2,98.9,38.4,98.7,38.6,98.4z"/>
		<path d="M49.1,93.2c0.4,0.3,0.7,0.7,0.9,1.2c0.2,0.5,0.3,1,0.3,1.6c0,0.5-0.1,1.1-0.3,1.6c-0.2,0.5-0.4,0.9-0.8,1.3
			c-0.4,0.4-0.8,0.7-1.3,0.9c-0.5,0.2-1.1,0.3-1.7,0.3c-0.5,0-1.1-0.1-1.5-0.3c-0.5-0.2-0.9-0.4-1.3-0.8c-0.4-0.3-0.7-0.7-0.9-1.2
			c-0.2-0.5-0.3-1-0.3-1.6c0-0.6,0.1-1.2,0.3-1.7c0.2-0.5,0.5-0.9,0.9-1.3c0.4-0.3,0.8-0.6,1.3-0.8c0.5-0.2,1-0.3,1.6-0.3
			c0.6,0,1.1,0.1,1.6,0.3C48.3,92.6,48.8,92.8,49.1,93.2z M47.8,98.5c0.2-0.3,0.3-0.7,0.3-1.1c0.1-0.4,0.1-0.9,0.1-1.4
			c0-0.4,0-0.9-0.1-1.3c-0.1-0.4-0.2-0.8-0.3-1.1c-0.2-0.3-0.4-0.6-0.6-0.8c-0.2-0.2-0.6-0.3-0.9-0.3c-0.6,0-1.1,0.3-1.4,0.9
			c-0.3,0.6-0.5,1.5-0.5,2.6c0,0.5,0,0.9,0.1,1.3c0.1,0.4,0.2,0.8,0.3,1.1c0.2,0.3,0.4,0.6,0.6,0.7c0.2,0.2,0.5,0.3,0.9,0.3
			c0.3,0,0.6-0.1,0.9-0.3C47.4,99.1,47.6,98.8,47.8,98.5z"/>
		<path d="M59.6,96.8c-0.1,0-0.2,0-0.3,0c-0.1,0-0.2,0-0.3,0.1c-0.1,0-0.2,0.1-0.3,0.2c0,0.1-0.1,0.2-0.1,0.3v0.9c0,0.2,0,0.3,0,0.4
			c0,0.1,0,0.2,0,0.4c-0.4,0.2-0.9,0.4-1.6,0.6c-0.7,0.2-1.3,0.3-1.9,0.3c-0.5,0-1-0.1-1.5-0.2c-0.5-0.2-0.9-0.4-1.2-0.7
			c-0.4-0.3-0.6-0.7-0.8-1.2c-0.2-0.5-0.3-1-0.3-1.7c0-0.6,0.1-1.1,0.3-1.6c0.2-0.5,0.5-0.9,0.8-1.3c0.4-0.4,0.8-0.6,1.3-0.8
			c0.5-0.2,1.1-0.3,1.7-0.3c0.4,0,0.8,0.1,1.2,0.2c0.4,0.1,0.7,0.2,0.9,0.3l0.3-0.3h0.5l0,2.7h-0.5c-0.3-0.8-0.6-1.4-1-1.8
			c-0.4-0.4-0.8-0.6-1.4-0.6c-0.7,0-1.2,0.3-1.6,0.9c-0.4,0.6-0.5,1.4-0.5,2.4c0,1.1,0.2,2,0.5,2.6c0.4,0.6,0.9,0.9,1.5,0.9
			c0.3,0,0.6,0,0.8-0.1c0.2-0.1,0.4-0.2,0.6-0.3v-1.5c0-0.1,0-0.2-0.1-0.3c0-0.1-0.1-0.2-0.3-0.2c-0.1,0-0.2-0.1-0.4-0.1
			c-0.2,0-0.3-0.1-0.4-0.1v-0.4h3.9V96.8z"/>
		<path d="M63.4,100c-0.5,0-0.9-0.1-1.3-0.2c-0.4-0.1-0.7-0.2-1-0.4l-0.4,0.4h-0.4l-0.1-2.7h0.5c0.1,0.3,0.2,0.5,0.4,0.8
			c0.2,0.3,0.3,0.5,0.5,0.8c0.2,0.2,0.5,0.4,0.7,0.6c0.3,0.1,0.6,0.2,0.9,0.2c0.5,0,0.8-0.1,1.1-0.3c0.3-0.2,0.4-0.5,0.4-0.9
			c0-0.3-0.1-0.5-0.3-0.7c-0.2-0.2-0.5-0.4-1-0.5c-0.3-0.1-0.6-0.2-0.8-0.3c-0.2-0.1-0.5-0.2-0.7-0.2c-0.5-0.2-0.9-0.5-1.1-0.9
			c-0.2-0.4-0.4-0.8-0.4-1.2c0-0.3,0.1-0.6,0.2-0.8c0.1-0.3,0.3-0.5,0.6-0.7c0.2-0.2,0.5-0.4,0.9-0.5c0.4-0.1,0.8-0.2,1.2-0.2
			c0.4,0,0.8,0.1,1.2,0.2c0.4,0.1,0.6,0.2,0.9,0.3l0.3-0.3H66l0,2.5h-0.5c-0.1-0.3-0.2-0.6-0.4-0.8c-0.1-0.3-0.3-0.5-0.4-0.7
			c-0.2-0.2-0.4-0.4-0.6-0.5c-0.2-0.1-0.5-0.2-0.8-0.2c-0.4,0-0.7,0.1-0.9,0.3c-0.2,0.2-0.4,0.5-0.4,0.8c0,0.3,0.1,0.5,0.3,0.7
			c0.2,0.2,0.5,0.4,1,0.5c0.3,0.1,0.5,0.2,0.8,0.3c0.3,0.1,0.5,0.2,0.7,0.3c0.5,0.2,0.9,0.5,1.2,0.8c0.3,0.3,0.4,0.8,0.4,1.3
			c0,0.3-0.1,0.6-0.2,0.9c-0.2,0.3-0.4,0.6-0.6,0.8c-0.3,0.2-0.6,0.4-1,0.5C64.3,99.9,63.9,100,63.4,100z"/>
	</g>
	<g>
		<path d="M2,37.6c0,0,0.7-1,2.2-1.1c1.4-0.1,3.2,0.3,4.4,2.5c1.2,2.2,1.8,3.2,2.1,3.4c0.3,0.2,0.9,0.9,2.4,1.6
			c1.5,0.7,1.5,0.7,1.9,0.8c0.5,0.1,0.8,0.1,0.8,0.1s-0.1-1.5,0-1.9c0.1-0.4,0.4-1.4,0.6-2c0.2-0.6,0.5-1.1,0.5-1.1
			c0-0.1-0.2-0.2-0.3-0.3c-0.1,0-2.2-0.5-2.8-0.9c-0.5-0.4-1.4-1.6-1.3-2.8c0.1-1.2,0.4-2.2,0.7-2.9s0.5-1.1,0.6-1.1
			c0-0.1-0.1-0.9-0.1-1.1c0-0.2-0.6-2.5-0.8-3.6s-0.3-3.1-0.3-5c0-1.8,0.1-3.8,0.6-6c0.4-2.2,1.6-5.1,1.9-5.5
			c0.2-0.4,0.7-0.8,1.5-0.7c0.8,0.1,2.8,1.2,3.9,1.8c1,0.6,2.4,1.5,2.7,1.6c0.3,0,0.3-0.1,0.4-0.1c0.2,0,0.2,0.1,0.3,0.1
			c0.1,0,0.2,0,0.2,0l0-1.6c0,0-1.4-0.6-1.4-0.8c0-0.2,1.7-0.9,1.7-0.9s0.6-0.7,1.1-1.1c0.5-0.4,0.8-0.5,0.8-0.5s-0.8-1.7-0.7-1.8
			c0.1-0.1,2.1,0.9,2.1,0.9s1.1-0.6,1.3-0.9c0.2-0.3,0.4-0.9,0.1-1.2C28.6,5,27.7,5,27.2,5c-0.5,0-1.3,0-1.5-0.1
			c-0.2-0.1-0.2-0.6-0.1-0.9c0.1-0.3,1.5-1.8,2.2-2.6c0.7-0.8,1.8-1.5,2.5-1.4c0.7,0.1,2.4,1.2,2.9,1.7c0.5,0.5,1.2,1.4,1.6,1.6
			c0.4,0.2,1.1,0.3,1.6,0.2c0.5-0.1,1.2-0.5,1.5-0.8c0.3-0.3,1-0.9,1.6-1.1c0.6-0.2,1.4-0.3,2.3-0.1c0.9,0.2,2.8,1.5,3.4,1.7
			c0.6,0.3,1,0.8,1,1c0,0.2-0.1,0.5-0.4,0.7c-0.2,0.2-0.1,0.4,0,0.5c0.1,0.1,0.2,0.3,0.4,0.2c0.2,0,0.7-0.1,1.1-0.1s1,0.1,1.4,0.6
			C48.9,6.6,48.9,7,48.9,7s0.4,0.4,0.6,0.8c0.1,0.3,0.4,1,0.4,1.4c0,0.4,0,0.8,0.1,0.9c0.1,0.1,0.2,0.7,0.1,1
			c-0.2,0.3-0.3,0.6-0.2,0.8c0.1,0.2,0.7,0.8,1.1,1.3c0.4,0.5,0.7,1.2,0.7,1.7c0,0.5-0.1,1.8-0.3,2.2c-0.2,0.4-0.7,0.9-1.2,1
			c-0.5,0.2-0.9,0.1-0.9,0.1s0.1,0.5-0.4,1c-0.5,0.5-1.5,1.1-1.5,1.1s0.6,0.3,1.4,0.8c0.8,0.5,2.5,1.8,3.2,2.7
			c0.6,0.8,0.9,1.6,1.2,2.4c0.4,0.8,0.7,2.2,0.8,2.7c0.1,0.4-0.1,1.2-0.2,1.5c-0.1,0.3-0.3,1-0.3,1.4c-0.1,0.5-0.1,0.9,0.1,1.3
			c0.2,0.4,0.5,0.9,1,1.4c0.5,0.5,0.7,1.4,0.8,2.7c0.1,1.3,0.1,3.1-0.2,5c-0.2,1.9-0.4,3.3-0.9,4.2c-0.5,0.9-1.4,1.4-2.7,1.4
			c-1.3,0-3-0.6-3.6-1c-0.7-0.4-1.8-1.6-2.2-2.2c-0.4-0.6-1-1.4-1.3-1.7c-0.3-0.3-0.7-0.9-1-1.3c-0.3-0.4-0.7-1.1-1-1.1
			c-0.3,0-0.7,0.1-0.7,0.4c0,0.4-0.5,1.3-0.9,1.7c-0.4,0.4-0.9,0.7-1.1,0.8c-0.2,0.1-0.5,0.3-0.5,0.3s-0.1,1,0.1,1.5
			c0.1,0.5,0.1,0.7,0.5,1.2c0.4,0.5,0.6,1,0.7,1.2c0.1,0.1,1.1,0.7,1.5,1.1c0.5,0.3,1,1.1,1.2,1.8c0.2,0.7,0.3,1.4,0.2,2
			c0,0.7-0.1,1.4-0.3,2.2c-0.2,0.8-0.2,1.7-0.4,3c-0.1,1.3-0.2,2.7-0.1,3.5c0.1,0.8,0.2,1.1,0.2,1.8c0.1,0.7,0.1,1.1,0.1,1.2
			c0.1,0.1,0.2,0.2,0.2,0.4c0,0.2-0.3,0.3-0.3,0.3s0.5,0.4,0.4,0.9c-0.1,0.5-0.2,0.9-0.2,0.9s0.3,0.8,0.8,1.4
			c0.5,0.5,0.9,1.1,1.2,1.2c0.2,0.1,0.5,0.1,0.6,0.3c0.1,0.2,0.2,0.4,0.4,0.4c0.2,0,0.4-0.2,0.6,0c0.2,0.2,0.1,0.4,0.4,0.4
			c0.3,0,1.1,0,1.7,0.1c0.6,0.1,1.5,0.4,1.9,0.8c0.4,0.4,1,1,1,2c0.1,0.9,0.1,1.5-0.2,2c-0.3,0.5-0.7,0.7-1,0.7
			c-0.3,0.1-0.6,0.1-0.6,0.1l-0.1,0.7l-1,0.2l-0.3-0.8l-1.3,0l-0.2,1l-1,0.1l-0.4-1l-0.8,0l-0.2,1l-1,0l-0.4-1L41.4,76l-0.2,0.8h-1
			L40,76l-3.7,0L36,76.8l-1,0L34.8,76H34l-0.2,0.8c0,0-0.8,0-0.9-0.1c-0.1,0-0.6-0.4-0.7-0.6c-0.1-0.2-0.4-1.3-0.5-1.8
			c-0.1-0.5-0.3-1.4-0.3-1.8c0-0.5,0.1-1.5,0.3-1.9c0.2-0.5,0.8-1,0.8-1.2c0.1-0.2,0.2-0.6,0-1c-0.1-0.4-0.5-1.3-0.8-1.9
			c-0.3-0.6-0.7-1.4-0.8-1.7c-0.1-0.3-0.2-1.2-0.2-1.8c0-0.7,0.2-1.1,0.2-1.6c0-0.5-0.1-1.7,0.2-2.8c0.3-1.1,0.5-1.7,1-2.3
			c0.5-0.6,0.8-0.8,0.8-0.8s-1.1,0.4-1.9,0.7c-0.8,0.3-1.5,0.7-1.8,0.9c-0.3,0.2-1.2,1-2.1,1.5c-0.9,0.6-2.7,1.8-3.9,2.1
			c-1.3,0.4-1.7,0.5-2.5,0.4c-0.8-0.1-1-0.1-1-0.1s0,0.7-0.8,1c-0.8,0.3-2.1,0.6-2.6,0.4c-0.5-0.2-1.5-0.9-2.2-1.6
			c-0.7-0.7-1.8-2-2.9-4c-1.1-2-2.4-4.6-2.4-4.6s-0.1,0.8-0.5,1.3c-0.4,0.5-1.5,1.3-2.7,1.2c-1.2-0.1-2.2-1.2-2.2-1.2l-0.8,0.5
			L2,53.4l0.7-1.1l-0.7-1.1l-0.7,0.2l-0.6-1l0.8-0.7l-0.2-0.8l-1,0.1l-0.1-1l0.7-0.8c0,0-0.1-1.7-0.1-3.5s0.2-2.6,0.2-2.6L0,40.7V40
			l1.3-0.4l0.1-0.7l-1-0.5L1,37.7c0,0,0.2-0.1,0.5-0.1C1.8,37.6,2,37.6,2,37.6z"/>
		<polygon class="st0" points="18.4,19.6 18.4,19.6 18.4,19.6 		"/>
		<polygon class="st0" points="18.4,19.6 18.4,19.6 18.4,19.6 		"/>
		<polygon class="st0" points="1.5,38.8 0.8,38.4 1.1,37.8 1.9,37.8 		"/>
		<polygon class="st0" points="1.3,39.8 1,40.9 0.2,40.6 0.4,40.1 		"/>
		<polygon class="st0" points="0.9,47.4 1.3,48.6 0.4,48.6 0.3,48 		"/>
		<polygon class="st0" points="1.6,49.9 2,50.8 1.4,51 1,50.5 		"/>
		<polygon class="st0" points="2.9,52.5 3.5,53.5 2.8,53.8 2.4,53.4 		"/>
		<path class="st0" d="M32.8,75.9H34l-0.2,0.8h-0.5c0,0-0.2-0.2-0.3-0.4C32.8,76.2,32.8,75.9,32.8,75.9z"/>
		<polygon class="st0" points="34.9,75.9 36.1,75.9 35.9,76.6 35.2,76.7 		"/>
		<polygon class="st0" points="40.1,75.9 40.5,76.6 41.1,76.6 41.3,75.8 		"/>
		<polygon class="st0" points="43.3,75.9 44.5,75.8 44.2,76.7 43.7,76.7 		"/>
		<polygon class="st0" points="45.6,75.7 46.8,75.7 46.7,76.6 46,76.6 		"/>
		<polygon class="st0" points="48.5,75.7 49.6,75.7 49.6,76.4 48.9,76.5 		"/>
		<g>
			<path class="st1" d="M39.9,4C40.7,4.2,41,4.4,41,4.4s-0.2-0.7-0.1-0.9c0-0.2,0.3-0.3,0.7,0C42,3.9,42.3,4,42.9,4.4
				c0.6,0.4,1,0.4,1.8,0.3c0.8,0,1,0,1.1-0.1c0.1-0.1-0.2-0.3-0.4-0.5c-0.3-0.1-1-0.5-1.9-1.1c-1-0.6-1.8-1.1-2.4-1.3
				S39.9,1.6,39.4,2c-0.4,0.4-0.7,1.9-0.7,1.9S39.1,3.8,39.9,4z"/>
			<path class="st1" d="M51,15.3c-0.1-0.6-0.4-1.2-0.7-1.5c-0.3-0.3-0.9-0.8-0.9-0.8s-0.2,0-0.4,0.3c-0.2,0.3-0.5,0.9-0.5,0.9
				s0-0.4,0.3-0.9c0.3-0.5,0.5-0.5,0.5-0.5s-0.1-0.2,0-0.5c0.1-0.3,0.1-0.3,0.3-0.7c0.2-0.4,0.3-0.8,0.4-1.3
				c0.1-0.4-0.1-0.6-0.3-0.8c-0.2-0.2-0.2-0.4-0.3-0.5C49,8.9,48.3,8.8,47.8,9C47.4,9.2,47,9.6,47,9.6s0.1,0,0.7,0
				c0.6,0,0.5,0.1,0.5,0.1s0,0.6-0.2,1.3c-0.2,0.7-0.5,0.7-0.6,0.8c-0.1,0.1,0,0.3,0.1,0.6c0.2,0.2,0.3,0.8,0.3,0.8
				s-0.3-0.5-0.7-0.8C46.7,12.1,46.6,12,46,12c-0.6,0-0.5,0-0.7,0.2c-0.2,0.1-0.3,0-0.5,0s-0.6-0.4-0.7-0.5c-0.1-0.1,0-0.3,0.2-0.3
				c0.2,0,0.6,0.3,0.8,0.3c0.3,0,0.3-0.3,0.5-0.8c0.3-0.5,0.6-0.8,0.9-1.3c0.4-0.4,0.8-1,1.4-1.1s1.2,0.1,1.2,0.1s0.1-0.3-0.4-1
				C48.4,7,48,6.6,47.6,6.3S46.5,6,46.1,6.2c-0.5,0.2-1.2,1.1-1.2,1.1S43.9,6,42.2,5.1c-1.7-0.8-3.7-1.1-5.4-1.2
				C35.1,3.9,34,4.3,34,4.3s-0.3-0.7-0.8-1.4c-0.5-0.7-1-1.1-1.4-1.4c-0.4-0.3-1-0.4-1.5-0.2c-0.5,0.3-0.7,0.8-0.7,0.8
				s0-0.4,0.2-0.8C30.1,1,30.3,1,30.5,0.9c0.2-0.2,0-0.3-0.3-0.4c-0.3-0.1-0.5-0.1-0.8,0.2C29,0.9,28.5,1.5,28.1,2
				c-0.3,0.5-1.1,1.2-1.6,1.4C26,3.7,25.9,3.8,25.9,4c-0.1,0.2,0.1,0.3,0.5,0.3c0.4,0,1.8,0.1,2.6,0c0.8-0.2,1.2-0.6,1.5-0.9
				c0.3-0.3,0.9-0.3,1.4-0.3c0.5,0.1,0.8,0.6,0.8,0.9c-0.1,0.3-0.5,0.7-1.7,1.5c-1.2,0.8-2.6,2.3-3.4,4.1c-0.7,1.8-0.9,3.8-0.9,5.5
				s0.3,3.7,0.3,3.7s0-0.2,0.6-1.5c0.6-1.4,1.3-1.7,1.4-1.6c0.1,0.1,0,0.2-0.6,1c-0.6,0.8-1.1,2-1.1,2.3c-0.1,0.2-0.1,0.3,0,0.7
				c0,0.4-0.2,0.7-0.2,1.2c0,0.4,0.6,1.8,1.2,2.6c0.6,0.8,2.4,2.8,4.4,4.2c2,1.4,3.7,1.6,4.9,1.7c1.2,0.1,2.3-0.2,3.5-0.7
				c1.2-0.6,2-1.3,2.4-1.7c0.4-0.3,0.8-0.8,0.8-0.8s-0.2-0.1-0.6,0c-0.4,0.1-0.8,0.4-1.8,0.8c-0.9,0.4-1.9,0.5-2.8,0.4
				c-0.9-0.1-1.6-0.6-1.9-1c-0.3-0.3-0.4-0.7-0.3-0.7c0.1,0,0.6,0.8,1.5,1.1c0.9,0.3,1.9,0.2,2.7,0c0.8-0.2,1.3-0.5,2-0.7
				c0.7-0.2,1.7-0.2,2.4-0.2c0.7,0,1.4-0.2,1.6-0.6c0.2-0.4,0-1.1-0.3-1.3c-0.2-0.2-1.1-0.3-2.1-0.3c-1,0-2.1,0.2-2.8,0.4
				c-0.8,0.2-1.2,0.6-1.9,0.7c-0.7,0.2-0.9,0-1.7,0c-0.8-0.1-2.1-0.7-2.4-0.9c-0.3-0.2-0.9-0.7-0.9-0.9c0-0.2-0.1-1.6,0.1-3.8
				c0.1-2.3,0.2-4.6,0.2-4.8c0-0.2-0.1-0.3-0.4-0.2c-0.3,0.2-0.6,0.5-0.9,0.9c-0.2,0.4-0.7,0.8-0.7,0.8s0-0.2,0.1-0.8
				c0.2-0.6,0.6-1.2,1-1.5c0.4-0.3,1.4-0.2,1.9,0.1c0.5,0.3,1.4,1.1,2,1.6c0.6,0.6,1.8,1.4,2.6,2c0.7,0.5,1.7,1.1,2.4,1.3
				s1.2,0,1.8-0.1c0.6-0.1,1.3-0.2,1.7-0.6c0.4-0.3,0.6-0.9,0.6-0.9s0.1,0.3,0.3,0.6c0.3,0.3,0.5,0,0.5,0s0.8,0.3,1.5,0.3
				s1-0.4,1.2-0.8C50.9,16.6,51.1,15.9,51,15.3z M40,7.7c0.4,0.2,0.8,0.6,1.4,1.1c0.6,0.5,1,0.6,1.2,0.6c0.3,0,0.7-0.1,0.9-0.4
				c0.2-0.3,0.2-0.5,0.3-0.5C44,8.5,44,8.6,44,8.8c-0.1,0.2-0.4,0.6-0.7,0.8c-0.3,0.2-0.5,0.3-0.8,0.2c-0.3-0.1-1-0.6-1.7-1
				c-0.7-0.4-1.1-0.7-1.1-0.7C39.6,8,39.6,7.5,40,7.7z M33.8,6.6c0.1-0.2,0.8-0.8,1-1c0.2-0.2,0.7-0.1,0.9,0c0.2,0.1,1.6,1,1.5,1.3
				c0,0.3-0.1,0.4-0.3,0.3c-0.2-0.1-0.6-0.6-0.9-0.8c-0.3-0.2-0.7-0.5-0.9-0.5c-0.2,0-1,0.9-1.1,0.9C33.8,6.8,33.7,6.7,33.8,6.6z
				 M29.8,7.1c0.1-0.1,0.9-0.1,1.5,0.3C31.9,7.8,32,8.1,32,8.2c0,0.1-0.2,0.2-0.4,0.1c-0.2-0.1-0.5-0.5-0.9-0.7
				c-0.4-0.2-1-0.1-1.1-0.2C29.6,7.4,29.6,7.2,29.8,7.1z M36.2,12.3c-1-0.7-2.1-0.9-3.2-0.7c-1.1,0.2-2.4,1.5-2.8,2.7
				c-0.4,1.1-0.5,2.3-0.4,4.1c0,1.8,0.2,3.8,0.2,3.8s-0.7-2.7-0.8-4.8c-0.1-2.2,0.3-3.6,1.3-4.9c1-1.3,2.9-1.8,4.2-1.4
				c1.4,0.4,1.9,1.1,2.8,2c0.8,0.8,1.3,1.9,1.3,1.9S37.1,13,36.2,12.3z M38.7,12.8c0.1,0.1,0.2,0.2,0.1,0.3
				c-0.1,0.1-0.4-0.2-0.4-0.3c0-0.1-0.2-0.2,0.2-0.3c0.4-0.1,0.9-0.2,0.9-0.2s-0.3-0.1-0.6-0.2c-0.3-0.1-0.7-0.2-1.2-0.6
				c-0.5-0.4-0.8-0.8-1-1c-0.2-0.2-0.2-0.4-0.5-0.4c-0.3,0-0.4,0-0.4,0s0.3-0.3,1.1-0.4c0.8,0,1.2,0,1.2,0s-0.7-0.6-1-0.9
				c-0.3-0.3-0.8-0.9-1.3-0.9c-0.5,0-1.2,0.3-1.4,0.5c-0.2,0.2-0.2,0.6,0.1,0.8s0.3,0.3,0.3,0.5c-0.1,0.2-0.3,0.2-0.3,0.2
				c-0.3,0-0.7-0.6-0.7-1.1c0-0.5,0.3-0.9,0.7-1.1c0.4-0.2,1-0.5,1.6-0.4c0.6,0.1,1,0.5,1.5,0.9c0.4,0.4,0.8,1,1.7,1.8
				c0.8,0.8,1.5,1.4,1.8,1.5c0.2,0.2,0.4,0.2,0.7,0.2c0.2-0.1,0.5-0.2,0.7-0.3c0.2-0.1,0.5,0.1,0.3,0.3c-0.2,0.3-0.6,0.4-0.6,0.4
				s0.2,0,0.3,0.1c0.1,0-0.1,0.1-0.3,0.2c-0.2,0.1-0.4,0.2-1.3,0.3c-0.9,0.1-0.6,0.1-1.2,0.1C38.8,12.7,38.6,12.6,38.7,12.8z
				 M40.9,16.3c-0.2,0-0.3-0.2-0.3-0.4c0-0.2,0.1-0.4,0.3-0.4s0.3,0.2,0.3,0.4C41.2,16.2,41,16.3,40.9,16.3z M42.1,17.3
				c-0.2,0-0.3-0.2-0.3-0.4c0-0.2,0.1-0.4,0.3-0.4c0.2,0,0.3,0.2,0.3,0.4C42.4,17.1,42.3,17.3,42.1,17.3z M47.2,15
				c-0.2,0.1-0.3,0.1-0.5,0.3c-0.2,0.2-0.3,0.6-0.6,1c-0.3,0.4-0.5,0.6-0.9,0.4c-0.4-0.2-0.5-0.6-0.8-0.8c-0.4-0.2-0.5-0.3-0.7-0.1
				c-0.2,0.1-0.3,0.5-0.6,0.5c-0.3,0-0.7-0.4-0.8-0.7c0-0.3,0-0.8,0.5-1.3c0.5-0.5,1.3-1,2.4-1s1.7,0.5,1.9,0.8
				C47.3,14.4,47.4,14.9,47.2,15z M48.9,15.9c-0.2,0-0.3-0.3-0.3-0.6c0-0.3,0.1-0.6,0.3-0.6c0.2,0,0.3,0.3,0.3,0.6
				C49.2,15.6,49.1,15.9,48.9,15.9z M50,16.7c-0.2,0-0.3-0.2-0.3-0.4S49.8,16,50,16s0.3,0.2,0.3,0.4S50.1,16.7,50,16.7z"/>
			<path class="st1" d="M10.5,50c0-0.3,0.1-1.2,0.6-2s1-1.4,1.7-1.7c0.7-0.3,1.6,0.1,2.2,1c0.6,0.8,1.6,3,2.3,5.8
				c0.7,2.7,0.7,2.8,0.7,3.2c0,0.4,0.3,1,0.5,1c0.2,0,0.3-0.3,0.3-1.1c0-0.8,0-1.3-0.2-1.9c-0.2-0.6-0.4-0.9-0.4-0.9
				s0.9,1.1,1.8,1.7c0.8,0.6,1.8,1.5,2.6,1.7c0.8,0.2,1.4,0.4,1.7,0.7c0.3,0.3,0,1.1-0.5,1.5c-0.4,0.4-1.4,1.1-2.4,1.3
				c-0.9,0.2-1.7,0.2-2.2,0.2c-0.5,0-0.7-0.1-0.8,0c-0.1,0.1-0.4,0.7-0.8,1.1c-0.4,0.3-1,0.5-1.7,0.1c-0.6-0.4-1.2-1.3-1.6-2
				c-0.4-0.6-0.7-1.2-1.2-1.8c-0.6-0.5-1.1-1.1-1.4-1.3c-0.3-0.3-1.1-1.9-1.3-2.5c-0.2-0.7-0.6-1.7-0.7-2.5c0-0.8,0-1.1,0.3-1
				c0.3,0,1.1,1.1,2.1,2.4c1,1.3,1.9,2.5,2,2.5c0.1,0-1.2-1.8-2-2.8C11.4,51.7,10.5,50.4,10.5,50z"/>
			<path class="st1" d="M31.8,63.6c-0.1,0-0.3-2.3-0.2-3.5c0.1-1.2,0.6-3.1,1.4-4.2c0.8-1.1,1.5-1.7,1.5-1.8c0-0.1-0.7,0.5-1.4,0.7
				c-0.6,0.3-2.3,1-3.8,1.3c-1.6,0.3-2.8,0.7-3.2,0.2c-0.5-0.5-1.3-2.2-1.7-3.6c-0.4-1.4-0.6-3.1,0.1-5c0.7-1.9,2-3.7,2.8-4.5
				c0.8-0.8,1.7-1.1,1.8-1.2c0.1,0,1.9,0,4.3,0.6c2.4,0.6,4.3,1.8,5.2,2.9c0.9,1.1,1.6,2.6,1.6,2.7c0,0.2-0.7,0.9-1.2,1
				c-0.5,0.1-0.9,0.2-1,0.3c-0.1,0.1-0.1,0.9,0,1c0.1,0.1,0.4,0,0.6-0.2c0.2-0.2,1.2-1.1,1.5-1.2c0.2-0.2,1-0.1,1.7,0.1
				c0.7,0.2,1,0.8,1.2,1.6c0.2,0.8,0,2.4-0.4,3c-0.5,0.6-0.8,0.8-1.6,1.1c-0.8,0.3-1.1,0.4-1.1,0.4c0,0.1,0.7,0.1,1.4,0
				c0.7-0.1,0.7-0.3,0.8-0.3c0.1,0,0.1,2.4,0.1,4.3c-0.1,1.9-0.3,2.7-0.4,3.1c-0.2,0.4-0.4,0.5-0.4,0.5s-1-0.4-1.9-0.4
				c-0.9-0.1-1.4,0-1.4,0s0.4-1.3,0.5-3.8S38,55.3,38,55.3s0.3,2.4,0.1,4.1c-0.2,1.7-0.8,3.1-0.8,3.1s-0.8,0.3-1.1,0.6
				c-0.3,0.3-0.8,0.6-1.5,0.6c-0.7,0-1-0.2-1.2-0.3c-0.2-0.2-0.3-0.2-0.7-0.1C32.4,63.3,31.8,63.6,31.8,63.6z"/>
			<path class="st1" d="M15.9,32.1c0.3,0,1.1,0,2,0c0.9-0.1,1.7-0.1,2.2-0.1c0.5,0.1,1.2,1,1.5,1.5c0.3,0.5,1.4,2.7,1.4,3.3
				c0,0.6,0.1,1.1-0.3,1.6c-0.4,0.5-1.2,0.8-1.9,0.7c-0.7-0.1-1.3-0.4-1.5-1.2c-0.2-0.8-0.2-1.6-0.3-1.6c-0.1-0.1-0.3,0.3-0.2,0.8
				c0.1,0.5,0.3,1,0.5,1.3c0.2,0.3,0.4,0.7,0.1,0.8c-0.3,0.1-1.6,0-1.9-0.3c-0.3-0.3-0.5-0.9-0.5-1.3s-0.1-1.1-0.1-1.1
				s-0.1,0.9-0.2,1.2C16.6,37.7,16.3,38,16,38c-0.3,0-0.7-1.1-0.9-2c-0.2-0.9-0.4-2.2-0.2-2.7C15,32.8,15.5,32.1,15.9,32.1z"/>
			<path class="st1" d="M45.7,33.9c0.3-0.1,0.6,0.2,1.1,0.4s0.6,0.4,1.2,0.4c0.5,0,1,0.4,1,0.4s-0.1-0.4-0.1-0.7
				c0-0.3,0.1-0.4,0.1-0.4s-1.7,0.1-2.3-0.2c-0.6-0.3-1.1-0.9-1-1.7c0.1-0.8,0.5-1.2,1.2-1.1c0.7,0.1,1.3,0.5,1.7,0.5
				c0.5,0.1,0.6-0.1,0.8,0.1c0.2,0.2,0.4,0.6,0.4,0.6s-0.1-0.6-0.1-0.9c0-0.3,0-0.5,0-0.5s-0.3,0.2-1,0.2c-0.7-0.1-1-0.1-1.5-0.2
				c-0.5-0.1-0.5-1.4-0.3-1.8c0.2-0.4,0.9-1.1,1.7-1.2c0.8-0.2,1.8-0.2,2.6,0.5c0.8,0.7,1.1,1.8,1.2,2.6c0.1,0.7,0.2,1.7-0.1,2
				c-0.3,0.4-0.7,0.7-0.7,1.2S51.5,36,51,36.6c-0.4,0.6-1.4,1.2-2.7,1.1c-1.3-0.1-2.1-0.9-2.6-1.7C45.3,35.2,45.5,34,45.7,33.9z"/>
		</g>
		<path class="st2" d="M15,32.4c0,0-0.9-1.8-1.3-4.3c-0.4-2.5-0.3-4-0.2-4.9c0.1-0.9,0.2-1.1,0.3-1.1c0.1-0.1,0.1,0.5,0.5,1.5
			c0.4,1,0.7,1.4,0.8,1.4c0.1,0-0.6-1.6-0.8-2.6c-0.2-1-0.4-2.9-0.1-4.5c0.2-1.6,0.9-3.3,1-4c0.1-0.7,0.2-1.6,0.6-2.3
			c0.4-0.7,1-1.1,1.9-0.9c0.9,0.2,1.6,0.8,2,1.1c0.4,0.4,1,1.2,2.2,1.8c1.2,0.6,2,0.9,2,0.9s-0.5,0.5-0.5,0.7c0,0.1,0.2,0.2,0.5,0.3
			c0.3,0.1,0.5,0.1,0.5,0.1s0.1,0.7,0.4,1.3c0.2,0.6,0.4,1,0.4,1s-0.8,1.5-0.6,1.7c0.2,0.3,1.4-0.2,1.4-0.2s0.2,0.6,0.4,1
			c0.2,0.4,0.5,0.7,0.5,0.7s0,0.5,0.7,1.5c0.7,1.1,1.8,2.5,3.1,3.7c1.3,1.2,2.7,2.4,4.3,2.9c1.6,0.5,3.3,0.7,4.9,0.3
			c1.5-0.4,2.8-1.2,3.6-1.9c0.8-0.7,1-1,1-1s1.2,0.1,2.1-0.2c0.9-0.2,1.3-0.7,1-1.3c-0.3-0.6-0.8-1.2-0.8-1.2s0.2-0.8,0.2-1.2
			c0-0.4-0.1-0.6-0.3-0.6c-0.2,0-0.6,0.3-0.7,0.3c-0.1,0,0-1.3,0-1.4c0.1-0.2,0.1-0.2,0.3-0.2c0.2,0.1,0.8,0.4,1.3,0.5
			c0.5,0.1,1.4,0.5,1.8,1c0.4,0.5,1.3,1.7,1.7,2.5c0.4,0.8,0.4,1.1,0.4,1.1s1.5,0.6,1.8,1.7c0.3,1.1,0.3,2.2,0.2,2.8
			c-0.1,0.6-0.3,0.8-0.4,1.1c-0.1,0.4-0.1,0.6-0.1,0.6s-0.3-1.2-0.5-1.8c-0.1-0.6-1-2.5-2.7-2.5c-1.7,0-2.7,0.8-3,1.4
			c-0.3,0.7-0.2,1.6-0.2,1.6s-0.9,0.1-1.2,1.5c-0.3,1.4,0.2,1.7,0.2,1.7s-0.5,0.3-0.4,1.1c0.1,0.8,0.7,1.5,0.7,1.5S45.1,37,45.1,38
			c0,1,0,1.5,0.1,2.3c0.2,0.8,0.2,1.1,0.3,1c0.1,0-0.3-1.6-0.3-2.4c0-0.8-0.1-1.3,0.2-1.8c0.3-0.5,0.4-0.6,0.4-0.6s0.2,0.5,1,0.8
			c0.8,0.4,1.1,0.5,1.1,0.5s0,0.4,0.2,1c0.2,0.6,0.3,0.9,0.4,0.9c0.1,0-0.3-0.8-0.4-1.2c-0.1-0.4-0.1-0.7-0.1-0.7s0.5,0.2,1.2,0
			c0.7-0.2,1.1-0.4,1.1-0.4s0.2,0.5,0.5,1.3c0.3,0.9,0.6,1.1,0.6,1c0.1-0.1-0.5-1-0.6-1.6c-0.1-0.6-0.3-1.1-0.3-1.1s1-0.7,1-1.5
			c0-0.8,0.2-1.4,0.3-1.5c0.1,0,1,0.3,1.5,1.7c0.5,1.5,0.6,2.4,0.7,2.5c0.1,0,0-1.7-0.5-2.7c-0.5-1-1-1.6-1.3-1.7
			C52.1,34,52,34,52,33.9c0-0.1,0.2-0.3,0.3-0.4c0.1-0.2,0.3-0.3,0.3-0.6c0-0.3,0.1-0.5,0.1-0.3c0,0.2,0.1,0.8,0.4,1.2
			c0.3,0.4,1.4,0.9,1.6,2.7c0.2,1.8,0.2,4.1,0.1,5.9c-0.2,1.8-0.5,2.9-1.2,3.6c-0.7,0.7-1.5,1.2-3,1.2c-1.6,0-2.9-0.8-3.5-1.6
			c-0.6-0.8-1-2-1.5-2.6c-0.5-0.6-1.1-1.2-1.6-1.8s-0.6-1.1-0.8-1.3c-0.1-0.2-0.3-0.3-0.7-0.3c-0.4,0.1-1,0.4-1.1,0.9
			c-0.1,0.5-0.2,0.8-0.8,1.3c-0.6,0.5-1.1,0.8-1.5,1.1c-0.5,0.3-0.6,0.3-0.8,0.7c-0.2,0.4-0.3,0.5-1,0.2c-0.7-0.3-1.3-0.7-2.8-1.2
			c-1.5-0.5-2.5-0.9-4.1-0.9c-1.6,0-1.8,0-1.9-0.1c-0.1-0.1-1.2-1.2-1.9-1.8c-0.7-0.6-0.8-0.8-1.6-1.2c-0.7-0.4-1.3-0.7-1.3-0.7
			s0.9-0.5,1.7-1.2c0.8-0.7,1.8-2.5,2-3.3c0.2-0.9,0.7-2.6,0.6-3.4c-0.1-0.8-0.8-1.9-1.8-2.1c-1-0.3-1.8-0.3-2.5-0.3
			s-1.1,0.1-1.1,0.1s-1.1-1.1-1.7-1.8C20.2,25,19,23.4,18.5,22c-0.5-1.4-0.8-2.4-0.8-2.4c-0.1,0,0.4,1.8,0.6,2.2
			c0.2,0.4,0.6,1.6,1.4,2.8c0.8,1.2,1.2,1.7,1.2,1.7s0.1,0.8-0.1,1.4c-0.2,0.7-0.2,1.5-0.1,2.5c0.1,1,0.1,1.7,0,1.7
			c-0.1,0-0.2-0.2-1-0.2c-0.9,0-1,0-1,0s0.1-0.8-0.1-1.3c-0.1-0.5-0.2-0.8-0.3-0.9c-0.1,0,0,0.5,0,0.9c0,0.4,0.1,1.3,0.1,1.3
			s-0.3,0-0.7,0c-0.4,0-0.6,0-0.6,0S17,31,16.8,30.4c-0.2-0.6-0.3-0.9-0.5-0.8c-0.1,0.1,0.1,0.6,0.3,1c0.2,0.5,0.3,1.1,0.3,1.1
			s-0.5-0.2-1.1,0.1C15.2,32.1,15,32.4,15,32.4z"/>
		<g>
			<path class="st3" d="M49.4,25c0.5,1.1,0.5,1.2,0.7,1.3c0.2,0.1,1.5,0.2,2,1.1c0.5,0.9,0.6,1.4,0.5,2.3c-0.1,0.5-0.1,0.9-0.1,1.2
				c0.1,0.5,0.3,1,0.3,1s0-0.3,0.1-0.6c0.1-0.4,0.3-0.5,0.4-1.1c0.1-0.6,0.1-1.6-0.2-2.8c-0.3-1.1-1.8-1.7-1.8-1.7s0-0.3-0.4-1.1
				c-0.4-0.8-1.3-2-1.7-2.5c-0.4-0.5-1.3-0.9-1.8-1c-0.5-0.1-1.1-0.4-1.3-0.5c-0.2-0.1-0.3,0-0.3,0.2c0,0.1,0,0.3,0,0.6
				c0.1,0.1,0.2,0.2,0.3,0.3c0.1,0.1,0.2,0.2,0.4,0.3c0,0,0,0,0.1,0c0.1,0,0.2,0.1,0.3,0.3c0.2,0.2,0.4,0.3,0.7,0.5
				C48,23.1,48.9,23.9,49.4,25z"/>
			<path class="st3" d="M14.6,27.4c-0.1-0.8-0.2-2.4-0.1-2.3c0.2,0.2,0.4,0.6,0.7,1c0.2,0.4,0.5,0.7,0.5,0.5c0.1-0.2-0.1-1-0.3-2.2
				c-0.1-1.2-0.4-2.5-0.4-4.5c0-2,0-3.8,0.5-5.4c0.5-1.6,1.1-2.5,2-2.7c0.9-0.2,1.5,0.3,2.3,0.9c0.8,0.6,1.9,1.8,3,2.6
				c0.7,0.5,1.2,0.7,1.6,0.9c-0.1-0.3-0.1-0.5-0.1-0.5s-0.2,0-0.5-0.1c-0.3-0.1-0.5-0.2-0.5-0.3c0-0.1,0.5-0.7,0.5-0.7
				s-0.8-0.3-2-0.9c-1.2-0.6-1.8-1.4-2.2-1.8c-0.4-0.4-1.1-1-2-1.1c-0.9-0.2-1.4,0.2-1.9,0.9c-0.4,0.7-0.5,1.5-0.6,2.3
				c-0.1,0.7-0.7,2.4-1,4c-0.2,1.6,0,3.5,0.1,4.5c0.2,1,0.8,2.6,0.8,2.6c-0.1,0-0.4-0.4-0.8-1.4c-0.4-1-0.4-1.5-0.5-1.5
				c-0.1,0.1-0.2,0.2-0.3,1.1c-0.1,0.9-0.2,2.4,0.2,4.9c0.4,2.5,1.3,4.3,1.3,4.3s0.2-0.3,0.8-0.6c0.1,0,0.1-0.1,0.2-0.1
				c-0.2-0.3-0.4-0.7-0.5-1.3C15.1,29.3,14.7,28.2,14.6,27.4z"/>
		</g>
		<g>
			<path class="st4" d="M13.6,44.5c-0.3,0-0.9,0.3-1.6,0.7c-0.6,0.4-1.2,0.6-1.4,0.7c-0.2,0.1-0.3-0.1-0.2-0.2
				c0.1-0.1,0.5-0.3,0.8-0.5c0.3-0.2,0.8-0.4,1-0.6c0.2-0.2,0-0.5-0.1-0.5c-0.2,0-0.6,0.2-1,0.4c-0.4,0.2-0.8,0.4-0.9,0.3
				c0-0.1,0.3-0.3,0.5-0.5c0.2-0.2,0.4-0.4,0.4-0.7c0.1-0.2-0.2-0.4-0.3-0.5c-0.1-0.1-0.5,0.1-0.9,0.4c-0.4,0.3-0.7,0.7-0.8,0.8
				C9.2,44.4,9,44.3,9,44.1c0-0.2,0.1-0.3,0.2-0.5c0.1-0.2,0.4-0.7,0.6-0.9c0.2-0.2,0.1-0.5,0-0.6c-0.1-0.1-0.8-0.2-1-0.1
				c-0.2,0.1-0.3,0.3-0.5,0.6c-0.2,0.3-0.7,0.4-1.2,0.5c-0.4,0.1-1.1,0.2-1.5,0.2c-0.4,0-0.8,0.2-0.9,0.4c-0.2,0.2-0.3,0.7-0.1,1.3
				c0.1,0.6,0.6,1.4,1,2.2c0.4,0.7,1.1,1.3,1.3,1.4c0.2,0.1,0.5,0.1,0.7,0c0.2-0.1,0.3-0.5,0.4-0.9c0.1-0.4,0.4-0.7,0.5-0.8
				c0.1,0,0.4,0.2,0.4,0.4c0,0.1-0.5,0.9-0.6,1.1C8,48.5,7.8,49,7.8,49.7C7.9,50.5,8,51.1,8,51.3c0.1,0.2,0.1,0.5,0.5,0.5
				c0.3,0,0.5-0.1,0.7-0.4c0.1-0.3,0.1-0.8,0.2-1.1c0-0.3,0.4-1.2,0.7-1.5c0.2-0.3,0.6-1.1,1-1.5c0.4-0.4,1-0.9,1.4-1.1
				c0.4-0.2,0.8-0.2,1.4-0.2c0.5,0,0.5,0.2,0.8,0.2c0.4,0,0.3-0.1,0.3-0.4c0-0.3-0.1-0.5-0.4-0.8C14.3,44.6,13.9,44.5,13.6,44.5z"/>
			<path class="st4" d="M43.1,65.1c-0.2-0.2-0.9-0.3-1.6-0.3c-0.7-0.1-1.8-0.3-1.7-0.4c0.1-0.1,2.5,0,2.8,0c0.3,0,0.3-0.2,0.2-0.3
				c-0.1-0.2-0.8-0.6-1.4-0.8c-0.6-0.3-1.3-0.4-1.9-0.5c-0.6-0.1-1.1-0.1-1.8,0c-0.7,0.1-1.1,0.3-1.5,0.6c-0.5,0.2-1.2,0.6-1.4,0.7
				c-0.2,0.1-0.5,0.1-0.7,0c-0.2-0.1-0.4-0.3-0.6-0.4c-0.2-0.1-0.8,0-1.3,0.1c-0.5,0.1-0.9,0.4-1.1,0.6c-0.1,0.1-0.2,0.5-0.1,0.9
				c0.1,0.4,0.5,0.7,1.1,0.8c0.6,0.1,1.1-0.2,1.2-0.3c0.2-0.1,0.3-0.1,0.4,0c0,0.1-0.1,0.2-0.5,0.4c-0.4,0.2-1,0.2-1.3,0.3
				c-0.2,0.1-0.1,0.4,0,0.5c0.1,0.1,0.4,0.1,0.7,0.1c0.3,0,0.4,0.1,0.4,0.2s-0.6,0.7-0.6,0.9c0,0.2,0.6,0.6,0.8,0.8
				c0.2,0.2,0,0.3-0.1,0.5c-0.1,0.2-0.2,0.5-0.1,0.6c0.1,0.2,0.6,0.3,1.2,0.3c0.6,0,1.1-0.3,1.6-0.7c0.5-0.4,0.8-1.1,1-1.6
				c0.2-0.5-0.2-0.9-0.5-1c-0.3-0.2-1.2-0.4-1.2-0.5c0-0.1,0.6-0.1,1.4,0c0.8,0,1.5,0.2,1.5,0c0.1-0.1-0.1-0.3-0.7-0.7
				s-1.1-0.5-1.2-0.6c0-0.1,0.1-0.2,0.5-0.2c0.4,0,1.1,0.2,1.9,0.6c0.8,0.4,1.9,0.9,2.4,1.1c0.5,0.1,1.2,0.3,1.5,0.1
				c0.3-0.1,0.5-0.5,0.6-0.9C43.3,65.8,43.3,65.3,43.1,65.1z"/>
			<path class="st4" d="M21.5,41.3c-1,0-1.5,0.4-2.4,0.7c-0.9,0.3-1.3,0.5-1.3,0.5c0-0.1,0.3-0.3,1-0.9c0.8-0.5,1.5-1,1.9-1.1
				c0.4,0,0.5,0.2,0.7,0.3s0.5,0,1.6,0c1.1,0,2.5,0.1,3.4,0.2c0.9,0.1,1,0.2,1,0s-1.1-0.9-1.4-1.1c-0.3-0.2-0.7-0.2-1.4-0.2
				c-0.7,0-1.5-0.1-1.5-0.1s0.1-0.1,0.4-0.2c0.4-0.1,0.8-0.1,1.2-0.2s0.2-0.3,0.2-0.4C25,38.7,23.4,38,23.4,38L23,38.2
				c0,0-0.2,0.6-1.1,0.9c-1.1,0.4-1.8-0.1-1.8-0.1s0,0.3-0.7,0.3c-0.7,0.1-2-0.3-2-0.3s-0.7,1.1-1,2.2c-0.3,1.1-0.3,2.9-0.2,5
				c0.2,2.1,1,4.4,2.4,6.5c1.4,2.1,4.4,3.8,4.9,4.1c0.5,0.3,0.8,0.3,0.8,0.2c0-0.1-0.7-4.8-0.6-6.9c0.1-2.1,1-4.2,2.1-5.7
				c1.1-1.5,2.8-2.7,2.8-2.7s-1.4-0.3-3.3-0.4C23.5,41.3,22.5,41.3,21.5,41.3z"/>
			<path class="st4" d="M14.8,35.7c0,0-0.2-0.5-0.2-1.6c-0.1-1,0.3-1.7,0.3-1.7l-0.2-0.3c0,0-0.4,0.4-1.1,1.8
				c-0.6,1.4-0.5,2.6-0.5,2.6L14.8,35.7z"/>
			<path class="st4" d="M13.3,36.9c0,0,0.1,0.5,1.2,1.1c1.1,0.6,2.7,0.9,2.7,0.9S17,38.5,17,38.1c-0.1-0.4-0.1-0.7-0.1-0.7
				s-0.3,0.9-0.7,1c-0.4,0.1-0.7-0.3-0.9-0.9c-0.3-0.6-0.5-1.4-0.5-1.4L13.3,36.9z"/>
			<path class="st4" d="M21.2,32.2l0.9-0.5c0,0-0.5-0.8-0.5-1c0-0.2,0.3-0.6,0.6-0.5c0.3,0.2,0.7,0.9,0.7,0.9l4.4-2.4
				c0,0-0.8-1.1-2.9-1.1S21,28.1,21,28.1s0,2.9,0,3.2C21,31.6,21.2,32.2,21.2,32.2z"/>
			<path class="st4" d="M23.1,37.9c0,0,0.6-0.2,1.7-1.1c1.1-0.9,1.7-1.6,2.5-3.7c0.8-2,0.2-4,0.2-4l-4.3,2.3c0,0,0.5,0.8,0.5,1.1
				c-0.1,0.3-0.6,0.5-0.7,0.4c-0.2-0.1-0.6-1-0.6-1l-0.9,0.5c0,0,0.1,0.4,0.5,0.9c0.4,0.5,0.9,1.9,1.2,2.4c0.3,0.4,0.3,0.8,0.3,1.3
				C23.3,37.5,23.1,37.9,23.1,37.9z"/>
			<path class="st4" d="M23,32.8c0.1,0,0.6-0.1,0.5-0.3c0-0.2-1.2-2.2-1.4-2.2c-0.2,0-0.4,0.2-0.4,0.3C21.8,30.9,22.9,32.8,23,32.8z
				"/>
			<path class="st4" d="M27.9,31.2c-0.1,0.7-0.4,1.6-0.5,2.1c0,0.1-0.1,0.3-0.2,0.5c1.1,0.6,3.5,2.1,6.4,3.5c3.4,1.7,7.1,2.8,7.9,3
				c0.2-0.4,0.7-0.6,1.1-0.7c0.4-0.1,0.6,0,0.7,0.3c0.1,0.2,0.2,0.5,0.4,0.8c0-0.3,0-0.7,0.1-1.2c0.1-0.7,0.5-1.1,0.5-1.1
				s-4.2-0.9-9.2-3.2C31.4,33.6,28.8,31.9,27.9,31.2z"/>
			<path class="st4" d="M25.6,19c0.5-0.2,1.1-0.7,1.1-0.7c0.1-0.1-0.1-0.3-0.1-0.6c0-0.3-0.1-0.6-0.1-0.6S26.4,17,26.2,17
				c-0.2,0-0.4,0.1-0.8,0.6c-0.4,0.5-0.8,1.5-0.7,1.6C24.7,19.3,25.1,19.2,25.6,19z"/>
			<path class="st4" d="M26.2,14.6c0.1-0.3-0.2-0.9-0.4-0.9c-0.2-0.1-0.6,0-1,0.3c-0.4,0.2-1.3,1-1.2,1.1c0,0,0.9,0.2,1.4,0.2
				C25.5,15.2,26.1,14.9,26.2,14.6z"/>
			<path class="st4" d="M25.6,11.6c0.4-0.1,0.5-0.3,0.5-0.7c0-0.3,0-0.6-0.4-0.7c-0.4-0.1-0.9-0.1-1.5,0c-0.5,0.1-1.2,0.5-1.2,0.6
				c0,0,0.3,0.3,0.9,0.5C24.4,11.6,25.2,11.7,25.6,11.6z"/>
			<path class="st4" d="M27.2,8.8c0.4,0,0.8-0.3,0.7-0.7c0-0.4-0.4-0.6-0.9-0.9c-0.5-0.2-1.3-0.6-1.3-0.6s0,0.4,0.3,0.9
				C26.3,8.1,26.8,8.8,27.2,8.8z"/>
			<path class="st4" d="M40.4,11.9c0.2,0,0.2-0.3,0-0.3s-0.2-0.1-0.4-0.3c-0.1-0.2-0.3-0.2-0.4,0c-0.2,0.1-0.1,0.7-0.1,0.7
				S40.2,11.9,40.4,11.9z"/>
			<path class="st4" d="M37.8,11.4c0.3,0.2,1.2,0.5,1.2,0.5s0-0.6,0-1s-0.2-0.7-0.4-0.9c-0.2-0.2-0.6-0.1-0.8-0.1
				c-0.2,0-0.3,0.2-0.4,0.5C37.4,10.7,37.5,11.1,37.8,11.4z"/>
			<path class="st4" d="M46.4,11.6c0.1-0.1-0.2-0.5-0.3-0.6c-0.1-0.1-0.2,0-0.2,0.2c-0.1,0.2-0.1,0.4-0.1,0.4S46.3,11.7,46.4,11.6z"
				/>
			<path class="st4" d="M47.5,11.4c0.3-0.2,0.3-0.7,0.3-1.1c0-0.4-0.3-0.4-0.7-0.4c-0.4,0-0.6,0.1-0.6,0.2c0,0.1,0,0.2,0.2,0.5
				c0.2,0.3,0.2,0.9,0.2,0.9S47.2,11.6,47.5,11.4z"/>
			<path class="st4" d="M46.9,17.7c-0.2,0.2-0.2,0.4-0.1,0.6c0.1,0.3,0.3,1,0.3,1s0.2-0.1,0.4-0.6c0.2-0.4,0.1-0.8,0-1
				C47.4,17.5,47.1,17.5,46.9,17.7z"/>
			<path class="st4" d="M40.1,17.6c-0.2,0.1-0.2,0.5,0,1.1c0.1,0.6,0.6,1.3,0.6,1.3s0.3-0.3,0.5-1c0.2-0.6,0.1-0.9,0-1.2
				C41,17.6,40.3,17.5,40.1,17.6z"/>
			<path class="st4" d="M37.3,17.5c0,0,0.2-0.1,0.5-0.5c0.2-0.3,0.3-0.6,0.3-0.9c0-0.3-0.5-0.4-0.7-0.4c-0.2,0-0.4,0.2-0.5,0.8
				C36.8,17.2,37.3,17.5,37.3,17.5z"/>
			<path class="st4" d="M36.2,15.9c0.2-0.3,0.4-0.6,0.4-0.8c0-0.2-0.7-0.5-0.9-0.5c-0.2,0.1-0.3,0.4-0.3,0.8c0,0.4,0.4,1,0.4,1
				S36,16.2,36.2,15.9z"/>
			<path class="st4" d="M36,23.3c0.1-0.1,0.3-0.3,0.3-0.7c0-0.4-0.2-0.7-0.2-0.7s-0.1,0.1-0.4,0.3c-0.2,0.2-0.4,0.5-0.4,0.7
				C35.4,23.1,35.9,23.4,36,23.3z"/>
			<path class="st4" d="M36.2,23.6c0,0.2,0.5,0.5,0.6,0.5c0.1-0.1,0.2-0.5,0.2-0.9c0-0.4-0.2-0.6-0.2-0.6s-0.1,0.1-0.3,0.3
				C36.3,23.1,36.2,23.5,36.2,23.6z"/>
			<path class="st4" d="M37.5,23.6c-0.1,0.2-0.3,0.4-0.3,0.6c0,0.1,0.5,0.4,0.6,0.4c0.2,0,0.2-0.3,0.2-0.6c0-0.3-0.2-0.7-0.2-0.7
				S37.6,23.4,37.5,23.6z"/>
			<path class="st4" d="M40.8,22.8c-0.1,0.5,0,1.4,0.1,1.5c0.1,0.1,0.3-0.1,0.8-0.2c0.5-0.1,0.7-0.1,0.7-0.3c0-0.2-0.3-0.7-0.7-1.1
				c-0.4-0.4-0.8-0.5-0.8-0.5S40.8,22.3,40.8,22.8z"/>
			<path class="st4" d="M45.9,22.4c-0.3,0.3-0.7,1-0.6,1.1c0,0,0.1,0.1,0.5,0.1c0.4,0,0.5,0.1,0.6,0.1c0.1,0,0.1-0.3,0.2-0.7
				c0.1-0.4,0-0.9,0-0.9S46.2,22.2,45.9,22.4z"/>
		</g>
		<g>
			<path class="st5" d="M44.2,39.9c-0.3-0.5-0.7-1.2-1.9-1.1c-1.2,0-1.6,0.4-2.3,1.2c-0.7,0.8-1.7,1.3-3.3,2.2
				c-0.7,0.4-1.3,0.6-1.7,0.7c1.2,0.4,1.7,0.8,2.3,1c0.7,0.3,0.9,0.2,1-0.2c0.2-0.4,0.3-0.4,0.8-0.7c0.5-0.3,0.9-0.6,1.5-1.1
				c0.6-0.5,0.7-0.9,0.8-1.3c0.1-0.5,0.7-0.8,1.1-0.9c0.4-0.1,0.6,0,0.7,0.3c0.1,0.2,0.3,0.8,0.8,1.3c0.4,0.4,0.8,0.9,1.2,1.3
				c-0.1-0.3-0.2-0.6-0.3-1C44.6,40.7,44.5,40.5,44.2,39.9z"/>
			<path class="st5" d="M19.4,22.2c-0.7-0.9-1.2-2-1.3-2.3c-0.2-0.3-0.3-0.3-0.3-0.3c0.1,0,0.4,1.1,0.8,2.4c0.5,1.4,1.7,3,2.3,3.7
				c0.6,0.7,1.7,1.8,1.7,1.8s0.3-0.1,1.1-0.1c0.6,0,1.1,0,1.7,0.1c-0.7-0.6-1.7-1.3-2.5-1.9C21.3,24.6,20,23.1,19.4,22.2z"/>
			<path class="st5" d="M20.7,31.9c0.1,0,0.1-0.7,0-1.7c-0.1-1-0.1-1.8,0.1-2.5c0.2-0.7,0.1-1.4,0.1-1.4s-0.4-0.5-1.2-1.7
				c-0.3-0.4-0.5-0.8-0.7-1.1c0.1,0.3,0.2,0.7,0.2,1.2c0,0.7,0.5,1.7,0.8,2.3c0.4,0.5,0.2,1.7-0.1,2.2c-0.3,0.6-0.5,1.1-0.4,1.8
				c0,0.4,0.3,0.7,0.5,0.8C20.5,31.8,20.6,31.9,20.7,31.9z"/>
			<path class="st0" d="M26.7,20.7c0,0-0.4-0.7-0.5-1.1c-0.2-0.4-0.2-0.6-0.2-0.6l0.3-0.2c0,0,0.1,0.3,0.2,0.7
				c0.2,0.4,0.3,0.6,0.3,0.6L26.7,20.7z"/>
		</g>
		<path class="st0" d="M25.7,17.1l-0.4,0.5c0,0-0.2-0.3-0.4-1c-0.2-0.8-0.1-1-0.1-1l0.6-0.1c0,0,0,0.4,0.1,0.9
			C25.5,16.8,25.7,17.1,25.7,17.1z"/>
		<path class="st0" d="M24.4,13.9c0,0,0-0.5,0.1-1.2c0.1-0.7,0.1-0.9,0.1-0.9l0.7,0c0,0-0.1,0.3-0.1,0.9c0,0.6,0,0.8,0,0.8
			L24.4,13.9z"/>
		<path class="st0" d="M25.1,9.9l0.7,0c0,0,0.1-0.4,0.4-0.8c0.2-0.4,0.5-0.5,0.5-0.5l-0.2-0.2c0,0-0.3,0.2-0.8,0.8
			C25.1,9.7,25.1,9.9,25.1,9.9z"/>
		<g>
			<path class="st6" d="M37.3,19.8c0,0-0.1-0.6,0-0.9c0.1-0.2,0.2-0.2,0.4-0.2c0.2,0,0.5,0.3,1,0.8c0.5,0.4,0.8,0.8,1.3,1.2
				c0.5,0.4,0.9,0.8,0.9,1c0,0.2,0.1,0.3-0.1,0.3c-0.2,0-0.3,0-0.3,0s0.1,0.5,0,0.7c-0.1,0.2-0.7,0.9-1.1,0.9
				c-0.4,0.1-0.8,0.2-1.2-0.1c-0.3-0.3-0.5-0.5-1-1s-0.9-1.1-1.5-1.2c-0.6-0.1-0.7-0.2-0.7-0.2s0.1-0.8,0.1-1.3
				c0-0.5,0.1-0.9,0.1-0.9s0.2,0.1,0.6,0.2c0.4,0,0.7,0,1.1,0.4c0.4,0.4,0.6,0.7,1.2,1.3c0.6,0.6,0.9,0.7,0.9,0.7
				c0.1-0.1-0.1-0.2-0.4-0.4S37.5,20,37.3,19.8z"/>
			<path class="st7" d="M38.8,23c-0.8-0.2-1-0.8-1.4-1.2c-0.4-0.4-0.8-1-1.5-1.2c-0.3-0.1-0.5-0.1-0.7-0.2c0,0.4-0.1,0.8-0.1,0.8
				s0.1,0.1,0.7,0.2c0.6,0.1,1,0.8,1.5,1.2s0.6,0.6,1,1c0.3,0.3,0.8,0.2,1.2,0.1c0.3-0.1,0.6-0.3,0.8-0.6
				C39.9,23.2,39.5,23.1,38.8,23z"/>
		</g>
		<path class="st8" d="M8.4,52.1c0,0,0.1,0.7-0.2,1.2c-0.2,0.5-1.1,1.2-2.1,1.2c-1,0-2.1-0.6-2.7-1.5c-0.6-0.9-1.5-2.7-1.9-4
			c-0.4-1.3-0.6-2.3-0.6-2.5c0-0.2,0.2-0.3,0.5-0.2c0.4,0.1,2,1.3,2.2,1.3c0.2,0.1,0.3,0,0.3-0.1c0-0.1,0-3.7,0-3.8
			c0-0.2-0.3-0.6-0.7-0.8s-1.7-1.1-1.9-1.2s-0.1-0.6-0.1-0.8c0-0.2,0.5-1.8,1-2.5c0.5-0.7,1.3-1.7,2.3-1.8c1,0,1.8,0.4,2.5,1
			c0.7,0.6,1.2,1.2,1.7,2.2c0.5,1,0.7,1.6,0.7,1.7c0,0.1,0,0.2-0.1,0.2c-0.1,0-0.6-0.2-0.8-0.1c-0.2,0.1-0.1,0.3-0.4,0.5
			c-0.3,0.2-0.7,0.4-1.4,0.5c-0.7,0-0.8,0.1-1.1,0.3c-0.3,0.2-0.5,0-0.8,0.2c-0.3,0.2-0.7,0.5-0.7,1c-0.1,0.5-0.1,1,0.1,1.3
			c0.2,0.4,0.7,1.3,0.8,1.6c0.2,0.2,0.3,0.5,0.2,0.6c-0.1,0.1-0.8,0.1-0.9,0.2c-0.1,0.1,0,0.6,0,0.7c0,0.1,0.8,0,1.1,0
			c0.4,0,0.7,0,0.8,0c0.1,0,0.2,0.2,0.2,0.2s-0.8,0-1.2,0c-0.4,0-0.7,0.1-0.7,0.3c0,0.1,0.1,0.6,0.2,0.7c0.1,0.1,0.6,0.1,0.8,0
			s0.9-0.3,1.1-0.3c0.2-0.1,0.7,0,0.7,0c0.1,0.1,0.1,0.2,0.1,0.2s-0.5,0-1,0c-0.5,0.1-0.7,0.2-1,0.2C5.2,49.9,5,49.9,5,50
			c0,0.1,0.1,0.7,0.2,0.8c0.1,0,1.1,0,1.4-0.1c0.3-0.1,0.5-0.1,0.7-0.2c0.2,0,0.5,0,0.5,0s0,0.4,0.2,1C8,52,8.4,52.1,8.4,52.1z"/>
		<g>
			<path class="st9" d="M7.8,41.1c0.3-0.5,0.1-1.3-0.4-1.8c-0.5-0.6-1.8-1.4-2.7-1.9c-0.5-0.3-0.8-0.4-1.1-0.5
				c-0.6,0.4-1.1,1-1.4,1.5c-0.5,0.7-1,2.3-1,2.5c0,0.2-0.1,0.7,0.1,0.8s1.5,1,1.9,1.2S4,43.5,4,43.6c0,0.2,0,3.7,0,3.8
				c0,0.1-0.2,0.2-0.3,0.1c-0.2-0.1-1.8-1.2-2.2-1.3c-0.4-0.1-0.5-0.1-0.5,0.2c0,0.2,0.3,1.2,0.6,2.5c0.4,1.3,1.3,3.1,1.9,4
				c0.6,0.9,1.7,1.5,2.7,1.5c1,0,1.8-0.7,2.1-1.2c0.2-0.5,0.2-1.2,0.2-1.2S8,52,7.8,51.4c-0.2-0.6-0.2-1-0.2-1s-0.3,0-0.5,0
				c-0.2,0-0.4,0.1-0.7,0.2c-0.3,0.1-1.2,0.1-1.4,0.1C5,50.7,4.9,50,5,50c0-0.1,0.2-0.1,0.5-0.1c0.3,0,0.6-0.1,1-0.2
				c0.5-0.1,1,0,1,0s0-0.2-0.1-0.2c-0.1-0.1-0.5-0.1-0.7,0c-0.2,0.1-0.9,0.3-1.1,0.3s-0.7,0.1-0.8,0c-0.1-0.1-0.2-0.6-0.2-0.7
				c0-0.1,0.3-0.2,0.7-0.3c0.4,0,1.2,0,1.2,0s-0.2-0.2-0.2-0.2c-0.1,0-0.4,0-0.8,0c-0.4,0-1.1,0.1-1.1,0c0-0.1-0.1-0.7,0-0.7
				c0.1-0.1,0.8-0.1,0.9-0.2c0.1-0.1-0.1-0.3-0.2-0.6c-0.2-0.2-0.6-1.2-0.8-1.6C4.1,45,4.2,44.5,4.2,44c0-0.1,0-0.2,0.1-0.3
				c0-0.2,0-0.5,0.1-0.7c0.1-0.4,0.4-1,1.2-1.1c0.4,0,1,0.4,1.1,0.3C6.8,42.2,7.5,41.4,7.8,41.1z"/>
			<path class="st9" d="M35.9,75.7c-0.2,0.1-3.3,0-3.4-0.1c-0.1-0.1-0.3-0.8-0.3-1.3c-0.1-0.5-0.3-1.6,0-2.4
				c0.2-0.7,0.3-0.8,0.4-1.1c0.1-0.4,0.1-0.5,0.4-0.5c0.3,0,0.3,0.2,0.7,0.3c0.3,0.2,0.8,0.3,1.4-0.1c0.5-0.3,1-0.5,1.5-1.1
				c0.5-0.6,1-0.9,1.5-1.2c0.5-0.2,1.1-0.3,1.4-0.1c0.3,0.2,0.1,0.4,0.9,0.3c0.8,0,0.9-0.2,1.3-0.6c0.3-0.4,0.6-0.7,1-0.8
				c0.5-0.2,0.7-0.2,0.8,0c0.1,0.2,0,0.5,0.2,0.6c0.2,0.1,0.5,0.4,0.6,0.7c0.1,0.3,0.1,0.5-0.1,0.6c-0.2,0.1-0.3,0.2-0.5,0
				c-0.2-0.2-0.3-0.5-0.5-0.5s-0.6,0.1-0.8,0.3s-1.5,1.1-1.5,1.3c0,0.2,0.2,0.1,0.5,0.5c0.3,0.4,1,1.3,1.3,1.3
				c0.3,0.1,0.8,0.1,0.9,0c0.1-0.1,0-0.5,0.3-0.5c0.3-0.1,1,0.1,1.1-0.1c0.1-0.2,0.1-0.3,0.3-0.7c0.2-0.3,0.3-0.8,0.5-0.9
				c0.1-0.1,0.3,0,0.3,0.2c0,0.2,0.1,0.3-0.2,0.6c-0.3,0.3-0.5,0.6-0.5,0.8c0,0.2,0.1,0.5,0.3,0.5c0.2,0.1,0.3,0.1,0.4-0.1
				c0.1-0.1,0.4-0.6,0.5-0.9c0.1-0.3,0.2-0.5,0.3-0.6c0.1-0.1,1.1-0.1,1.8,0c0.7,0,1.6,0.3,2,0.8c0.4,0.5,0.7,0.8,0.8,1.7
				c0.1,0.9,0,1.6-0.2,1.9c-0.2,0.3-0.3,0.5-0.8,0.6c-0.5,0.1-1.8,0.1-2.9,0.1c-1.1,0-2.5,0.1-3.8,0.1c-1.2,0-3.5,0.1-3.6,0
				c-0.2,0,0.2-0.5,0.5-1c0.3-0.4,0.9-1.4,1-1.6c0.1-0.2,0.3-0.5,0.1-0.5c-0.3,0-3.6,0-3.7,0c-0.1,0.1-0.3,0.5-0.4,0.6
				C37.4,73.3,36,75.7,35.9,75.7z"/>
			<path class="st9" d="M44.2,70.4c-0.1-0.2-0.1-0.4,0-0.6c0.2-0.2,0.3-0.4,0.4-0.5c0.1,0,0.4,0,0.3,0.2c0,0.2-0.2,0.8-0.4,0.9
				C44.4,70.5,44.3,70.4,44.2,70.4z"/>
		</g>
		<g>
			<path class="st10" d="M9.7,51.6c0,0.8,0.4,1.8,0.7,2.5c0.2,0.7,1.1,2.3,1.3,2.5c0.3,0.3,0.8,0.8,1.4,1.3c0.6,0.5,0.8,1.1,1.2,1.8
				c0.4,0.6,0.9,1.5,1.6,2c0.6,0.4,1.3,0.2,1.7-0.1c0.4-0.3,0.7-0.9,0.8-1.1c0.1-0.1,0.3-0.1,0.8,0c0.5,0,1.3,0,2.2-0.2
				c0.9-0.2,1.9-0.9,2.4-1.3c0.4-0.4,0.7-1.2,0.5-1.5c-0.1-0.1-0.3-0.2-0.6-0.3c-0.3,0-0.6,0.1-0.8,0.4c-0.4,0.5-1.3,1.3-1.6,1.7
				c-0.3,0.4-0.7,0.7-1,0.8c-0.3,0-0.9,0.1-1.6,0.2c-0.6,0.1-0.9,0.3-1.3,0.6c-0.4,0.3-0.7,0.7-1.1,0.6c-0.4-0.1-0.7-0.9-1-1.5
				c-0.3-0.6-1-1.6-1.6-2.4c-0.6-0.8-1.6-2.1-2.1-2.9c-0.5-0.9-1.1-1.8-1.4-2.8c-0.1-0.5-0.2-0.9-0.2-1.1
				C9.7,50.6,9.7,50.8,9.7,51.6z"/>
			<path class="st10" d="M32.7,61c0.1-1.4,0.2-3.1,0.8-4.3c0.6-1.2,1.8-3.2,2.1-3.6c0.4-0.4,0.4-0.5,0.4-0.6
				c-0.1-0.1-0.3,0.2-0.8,0.6s-1.1,0.9-2.8,1.3c-1.8,0.3-3.3,0.3-4.9,0.2c-1.1-0.1-2.1-0.3-2.6-0.4c0.4,1,0.9,1.9,1.2,2.3
				c0.5,0.5,1.7,0.2,3.2-0.2c1.6-0.3,3.2-1,3.8-1.3c0.6-0.3,1.4-0.8,1.4-0.7c0,0.1-0.7,0.6-1.5,1.8c-0.8,1.1-1.2,3-1.4,4.2
				c-0.1,1.2,0.1,3.4,0.2,3.5c0,0,0.6-0.3,0.9-0.4c0,0,0,0,0,0C32.7,62.7,32.7,61.8,32.7,61z"/>
			<path class="st10" d="M42.5,23.7c0,0-0.1-0.4-0.3-0.6c-0.2-0.2-0.3-0.4-0.3-0.5c0-0.1,0-1.6,0.1-2.8c0-1.2,0-1.5,0-1.5
				s0.2,0.2,0.5,0.3c0.3,0.1,0.5,0.2,0.5,0.2s0,0.8,0,1.5c0,0.6,0.1,0.9,0.1,1c0,0.1,0.3-0.1,0.4-0.8c0-0.7,0.1-1.7,0.1-1.7
				s0.2,0,0.5,0s0.6-0.1,0.6-0.1s-0.1,2.1,0,3.2c0.1,1.1,0,1.6,0,1.6s-0.3,0-1.1,0.1C42.8,23.7,42.5,23.7,42.5,23.7z"/>
			<path class="st10" d="M33.7,8.8c0-0.5,0.3-0.9,0.7-1.1c0.4-0.2,1-0.5,1.6-0.4c0.3,0,0.5,0.2,0.8,0.3c0,0,0-0.1-0.1-0.1
				c-0.2-0.4-0.7-0.7-1.6-0.5c-1,0.2-1.6,0.9-1.5,1.6c0,0.6,0.4,1,0.4,1.1C33.8,9.3,33.7,9.1,33.7,8.8z"/>
			<path class="st10" d="M31.3,7.4C31.9,7.8,32,8.1,32,8.2c0,0.1-0.1,0.1-0.2,0.1c0,0,0,0,0,0s0.4-0.1,0.4-0.5c0-0.4-0.8-1-1.5-1.1
				c-0.7,0-1,0.3-1,0.3C29.9,7.1,30.7,7.1,31.3,7.4z"/>
			<path class="st10" d="M33,11.6c-1.1,0.2-2.4,1.5-2.8,2.7c-0.4,1.1-0.5,2.3-0.4,4.1c0,1.8,0.2,3.8,0.2,3.8s0.1-4.6,0.4-6.6
				c0.3-2.1,1.2-3.3,2.3-3.6c1.1-0.3,2.1-0.1,2.9,0.2c0.3,0.1,0.5,0.2,0.7,0.4c-0.1,0-0.1-0.1-0.2-0.1C35.2,11.7,34.1,11.4,33,11.6z
				"/>
			<path class="st10" d="M31.4,26.1c-2.4-2.9-4-5.4-3.9-5.9c0.1-0.5,0.3-0.8,0.3-0.8s-0.3-0.7-0.3-1.1c-0.1,0.3-0.2,0.6-0.3,0.7
				c-0.1,0.2-0.1,0.3,0,0.7c0,0.4-0.2,0.7-0.2,1.2c0,0.4,0.6,1.8,1.2,2.6c0.6,0.8,2.4,2.8,4.4,4.2c2,1.4,3.7,1.6,4.9,1.7
				C37.5,29.3,33.8,29,31.4,26.1z"/>
			<path class="st10" d="M27.6,9.7c-0.7,1.8-0.9,3.8-0.9,5.5s0.3,3.7,0.3,3.7s0-0.2,0.6-1.5c0.5-1.3,1.3-1.6,1.4-1.6
				c-0.1,0-0.4-0.3-0.7-0.1c-0.3,0.2-0.7,0.6-0.8,0.9c-0.1,0.4-0.2,0.7-0.2,0.7s-0.4-2.7,0.1-4.9c0.5-2.2,0.7-3.1,1.4-4.3
				c0.3-0.6,0.7-1.1,1-1.5C29,7.3,28.1,8.4,27.6,9.7z"/>
		</g>
		<g>
			<path class="st11" d="M41.6,62.4c0.2-0.4,0.4-1.1,0.4-3.1c0.1-1.9,0-4.3-0.1-4.3c-0.1,0-0.1,0.2-0.8,0.3c-0.7,0.1-1.4,0.1-1.4,0
				c0-0.1,0.2-0.1,1.1-0.4c0.8-0.3,1.2-0.5,1.6-1.1c0.5-0.6,0.7-2.1,0.4-3c-0.2-0.8-0.6-1.4-1.2-1.6C41,49,40.2,49,40,49.1
				c-0.2,0.2-1.3,1.1-1.5,1.2c-0.2,0.2-0.5,0.3-0.6,0.2c-0.1-0.1-0.1-0.9,0-1c0.1-0.1,0.6-0.2,1-0.3c0.5-0.1,1.2-0.8,1.2-1
				c0-0.2-0.7-1.6-1.6-2.7c-0.9-1.1-2.9-2.3-5.2-2.9c-2.4-0.6-4.1-0.6-4.3-0.6c-0.1,0-1,0.4-1.8,1.2c-0.2,0.2-0.4,0.5-0.7,0.8
				c1.8,0.1,4.5,0.5,6.5,1.1c3.3,1,4.1,3.1,4.5,3.8c0.4,0.6,0.1,1.3,0.2,1.6c0.1,0.3,0.8,0.5,1.8,0.5c0.9,0,1.5-0.2,2,0.1
				c0.6,0.3,0.4,1.3,0.2,2.1c-0.2,0.7-0.8,1.3-1.2,1.6c-0.4,0.3-1.3,0.5-1.3,0.6c0,0.1,0.6,0.7,1.4,1.7c0.8,1,0.7,3.4,0.6,4.5
				c0,0.6-0.2,1-0.3,1.3c0.1,0,0.2,0.1,0.2,0.1S41.4,62.8,41.6,62.4z"/>
			<path class="st11" d="M16.1,36.6c0-0.9,0.2-1.7,0.7-2.6c0.4-0.7,0.8-1.3,0.9-1.9c-0.8,0-1.5,0-1.8,0c-0.5,0-0.9,0.7-1,1.3
				c-0.1,0.6,0.1,1.8,0.2,2.7c0.2,0.9,0.6,1.9,0.9,2c0,0,0.1,0,0.1,0C16.1,37.7,16,37.2,16.1,36.6z"/>
			<path class="st11" d="M51,36.6c0.4-0.6,0.6-1.9,0.6-2.4s0.4-0.9,0.7-1.2c0.3-0.4,0.2-1.3,0.1-2c-0.1-0.7-0.4-1.9-1.2-2.6
				c-0.8-0.7-1.8-0.6-2.6-0.5c-0.2,0-0.4,0.1-0.6,0.2c1.3-0.2,2,0,2.9,0.6c1,0.6,0.7,1.7,0.8,2.8c0.1,1-0.3,1.8-0.5,2.6
				c-0.2,0.8-0.2,1.7-0.9,2.5c-0.4,0.5-0.8,0.9-1.1,1.1C50.1,37.5,50.7,37,51,36.6z"/>
			<path class="st11" d="M39,4.6c2,0.5,3,0.8,4,1.6c1,0.8,1.5,1.5,1.5,1.5s0.5-0.5,0.9-0.7c0.4-0.2,1.1-0.5,2.1-0.2
				c1,0.3,1.6,1.7,1.6,1.7s0.1-0.3-0.4-1C48.4,7,48,6.6,47.6,6.3S46.5,6,46.1,6.2c-0.5,0.2-1.2,1.1-1.2,1.1S43.9,6,42.2,5.1
				c-1.7-0.8-3.7-1.1-5.4-1.2C35.1,3.9,34,4.3,34,4.3S37,4.2,39,4.6z"/>
			<path class="st11" d="M28.5,2.7C28.9,2.1,29.5,1,30,0.8c0.2-0.1,0.4-0.1,0.6-0.1c0-0.1-0.2-0.2-0.3-0.2c-0.3-0.1-0.5-0.1-0.8,0.2
				C29,0.9,28.5,1.5,28.1,2c-0.3,0.5-1.1,1.2-1.6,1.4C26,3.7,25.9,3.8,25.9,4c0,0.1,0,0.2,0.1,0.2c0.2,0,0.4-0.1,0.6-0.2
				C27,3.8,28,3.3,28.5,2.7z"/>
			<path class="st11" d="M45.7,4.6c0.1-0.1-0.2-0.3-0.4-0.5c-0.3-0.1-1-0.5-1.9-1.1c-1-0.6-1.8-1.1-2.4-1.3S39.9,1.6,39.4,2
				c-0.2,0.1-0.3,0.4-0.4,0.7c0.3,0,0.6,0,1,0.1c1.1,0.2,1.8,0.4,2.7,0.9c0.9,0.5,1.2,0.5,1.7,1.2c0.1,0,0.2,0,0.3,0
				C45.5,4.7,45.7,4.7,45.7,4.6z"/>
		</g>
	</g>
</g>
</svg>
