<?xml version="1.0" encoding="utf-8"?>
<!-- Generator: Adobe Illustrator 21.1.0, SVG Export Plug-In . SVG Version: 6.00 Build 0)  -->
<svg version="1.1" id="Layer_1" xmlns="http://www.w3.org/2000/svg" xmlns:xlink="http://www.w3.org/1999/xlink" x="0px" y="0px"
	 viewBox="0 0 200 134.4" width="385.758374905" height="259.229627936" style="enable-background:new 0 0 200 134.4;" xml:space="preserve">
<style type="text/css">
	.st0{fill:#2F358F;}
	.st1{fill:#E7292D;}
	.st2{fill:#FFFFFF;}
</style>
<g>
	<g>
		<rect x="94.8" y="18.8" class="st0" width="10.3" height="1.6"/>
		<rect x="94.8" y="24.5" class="st0" width="10.3" height="1.6"/>
		<rect x="94.8" y="30.3" class="st0" width="10.3" height="1.6"/>
		<rect x="94.8" y="36.1" class="st0" width="10.3" height="1.6"/>
		<path class="st0" d="M100,134.4C100,134.4,100,134.4,100,134.4C100,134.4,100,134.4,100,134.4L100,134.4z"/>
		<path class="st0" d="M199.9,49.2c-0.6,0.2-6.1,4.7-10.9,8.6s-10.3,6.7-13,6.7c-2.7,0-28.8,0-28.8,0s0.1-2.4,0.4-6.3
			c0.3-3.9,0.3-8-1.5-15.1c-1.7-7.1-4.4-12.7-4.6-12.6c-0.3,0.2-0.1,1.2,0.9,6.5c1,5.3,0.9,10.2,0.3,17.2c-0.6,7.1-5.1,8.4-5.4,8
			c-0.3-0.3,1.1-4.7,1.8-15c0.6-8.9,0.5-17.7-4.4-27c-5.2-9.9-14.7-15.9-14.9-15.4c-0.1,0.4,2.1,2.3,4.4,6.7
			c3.1,6,7.6,13.6,8.6,23.3c1.2,11.8-6,19.7-6,19.2c-0.1-0.5,2.7-7.9,2.1-18.5c-0.5-8.6-4-14.5-8.8-20.7
			c-4.7-6.2-16.3-13.5-17.6-14.5c-1.3-1-1.1-0.1-1.1-0.1c-0.1,0.5,4.9,3.8,9.2,10.1c4.6,6.5,9.9,15.6,9.5,27
			c-0.4,10.8-5,19.8-6.5,22.5l-2.8,0c0,0-0.1-6.3-1.4-11.4c-1.3-5.1-4.7-7.5-8.6-7.5s-6.3,1.7-7.5,2.3s-3.4,0.9-5.3,1.1
			c-1.9,0.2-2.3,2.9-2.3,3.2s0,0.7,0,1.8s-0.2,1.2-0.4,1.6c-0.2,0.3,0.1,0.9,0.1,0.9s1.3-1.2,2.4-1.2s7.8,0,7.8,0v1.3h-6.3
			c0,0,0.2,1.6,1.5,1.6c1.3,0,4.1,0,4.1,0s0,1.1,0,1.8s-0.6,1.9-1.6,3.1s-2.5,2.3-3.7,2.3s-2.4,0-2.4,0s-6.6-10.4-7.1-23.3
			c-0.4-11.4,4.9-20.4,9.5-27c4.3-6.2,9.4-9.6,9.2-10.1c0,0,0.2-0.8-1.1,0.1c-1.3,1-12.9,8.3-17.6,14.5c-4.7,6.2-8.2,12.1-8.8,20.7
			c-0.6,10.6,2.1,18,2.1,18.5c-0.1,0.5-7.2-7.4-6-19.2c1-9.7,5.5-17.3,8.6-23.3c2.3-4.4,4.5-6.3,4.4-6.7c-0.1-0.4-9.7,5.6-14.9,15.4
			c-4.9,9.3-5,18.1-4.4,27c0.7,10.3,2.1,14.7,1.8,15c-0.3,0.3-4.8-1-5.4-8c-0.6-7.1-0.7-11.9,0.3-17.2c1-5.4,1.2-6.4,0.9-6.5
			c-0.2-0.1-2.8,5.6-4.6,12.6c-1.7,7.1-1.7,11.2-1.5,15.1c0.3,3.9,0.4,6.3,0.4,6.3s-26.2,0-28.8,0s-8.2-2.9-13-6.7
			S0.8,49.4,0.1,49.2s1.2,3.8,5.7,21.4c4.5,17.6,11.2,35.9,14.2,41.2c2.8,4.9,6.4,8.1,11.2,8.1s28.1,0,28.1,0s25.4,14.5,40.6,14.5
			c15.2,0,40.6-14.5,40.6-14.5s23.3,0,28.1,0c4.8,0,8.4-3.3,11.2-8.1c3-5.3,9.7-23.6,14.2-41.2C198.7,53.1,200.5,49.1,199.9,49.2z
			 M97.4,46.3l-1.8-1.8h3.6L97.4,46.3z"/>
	</g>
	<path class="st1" d="M189.6,64.7c0,0-2.2,1.5-6,3.3c-3.8,1.8-6,2.8-9.1,2.8c-2.9,0-30.5,0-35.1,0c-9.5-5-23.7-8.1-39.5-8.1
		s-30,3.1-39.5,8.1c-5.1,0-32.1,0-34.9,0c-3.1,0-5.3-1-9.1-2.8s-6-3.3-6-3.3s-0.7,5,3,11.2c3.5,5.9,7.6,8.8,7.6,8.8h11.5v3.6H18.7
		c0,0,0.1,3.4,1.7,6c1.6,2.6,4.8,3.6,4.8,3.6h7.4v3.1H21.4c0,0,0.4,3.9,3.5,8.6c3.1,4.8,7.3,6.3,7.3,6.3h51.8
		c-2.4,1.7-6,4.5-6.2,5.1c-0.3,1,0.6,2.5,4.1,4.8c3.5,2.3,7.2,2.8,7.9,1.6s5.1-9.6,5.1-9.6s0,6.3,0,8.9c0,3.1,0.8,3,4.6,3h0.9
		c3.8,0,4.6,0.1,4.6-3c0-2.7,0-8.9,0-8.9s4.4,8.5,5.1,9.6s4.4,0.6,7.9-1.6c3.5-2.3,4.4-3.8,4.1-4.8c-0.2-0.6-3.8-3.4-6.2-5.1h51.8
		c0,0,4.2-1.6,7.3-6.3c3-4.6,3.5-8.6,3.5-8.6h-11.3v-3.1h7.4c0,0,3.2-1,4.8-3.6c1.6-2.6,1.7-6,1.7-6h-13.9v-3.6H179
		c0,0,4.1-2.8,7.6-8.8C190.2,69.7,189.6,64.7,189.6,64.7z"/>
	<g>
		<polygon class="st2" points="125.9,84.8 125.9,76.9 113.3,76.9 113.3,84.8 115.2,84.8 115.2,101.7 113.4,101.7 113.4,109.6 
			125.8,109.6 125.8,101.7 124,101.7 124,92.5 124,84.8 		"/>
		<polygon class="st2" points="143.5,76.9 143.5,84.8 145.3,84.8 145.3,101.7 143.5,101.7 143.5,109.6 165.2,109.6 165.2,109.1 
			165.2,101.7 165.2,99 159.2,99 159.2,101.7 154.1,101.7 154.1,96.6 158.6,96.6 158.6,89.9 154.1,89.9 154.1,84.8 159.2,84.8 
			159.2,87.5 165.2,87.5 165.2,84.8 165.2,77.3 165.2,76.9 		"/>
		<polygon class="st2" points="104.4,101.7 99.2,101.7 99.2,84.8 101.2,84.8 101.2,76.9 88.2,76.9 88.2,84.8 90.3,84.8 90.3,101.7 
			88.2,101.7 88.2,109.6 109.7,109.6 109.7,109.1 109.7,101.7 109.7,96.4 104.4,96.4 		"/>
		<polygon class="st2" points="50.4,84.8 52.3,84.8 48.8,98.1 45.5,84.8 47.3,84.8 47.3,76.9 35.3,76.9 35.3,84.8 36.8,84.8 
			44.1,109.6 51.2,109.6 58,84.8 59.5,84.8 59.5,76.9 50.4,76.9 		"/>
		<polygon class="st2" points="133.1,91.1 137.8,84.8 139.4,84.8 139.4,76.9 128.1,76.9 128.1,84.8 130.1,84.8 124,92.5 
			129.2,101.7 128.1,101.7 128.1,109.6 139.8,109.6 139.8,101.7 138.9,101.7 		"/>
		<path class="st2" d="M79,84.8h1.8v-7.9H64.4v7.9h1.8L62,101.7h-1.6v7.9h9v-7.2h-1.9l0.9-4.1h5.7l0.9,4.1h-2v7.2H85v-7.9h-1.6
			L79,84.8z M69.4,94.1l2-8.7l1.9,8.7H69.4z"/>
	</g>
</g>
</svg>
