<?xml version="1.0" encoding="utf-8"?>
<!-- Generator: Adobe Illustrator 19.2.1, SVG Export Plug-In . SVG Version: 6.00 Build 0)  -->
<svg version="1.1" id="Layer_1" xmlns="http://www.w3.org/2000/svg" xmlns:xlink="http://www.w3.org/1999/xlink" x="0px" y="0px"
	 width="248.1px" height="279.8px" viewBox="0 0 248.1 279.8" style="enable-background:new 0 0 248.1 279.8;" xml:space="preserve"
	>
<style type="text/css">
	.st0{fill:none;}
	.st1{fill:#F4A81D;}
	.st2{fill:#CE202F;}
	.st3{fill:#FFFFFF;}
</style>
<g>
	<path class="st0" d="M211.5,259.6c0.4,0,1.5-0.3,2.7-1.1c0.5-0.4,0.9-0.7,1.1-1c0-1.8-1.7-4.5-5.1-7.9c-1.6-1.6-3.2-3.1-4.6-4.3
		c-0.7-0.7-1.4-1.3-2-1.8c-0.6-0.5-1.1-1.2-1.6-1.7c-2.3-3.1-4.6-6.4-4.9-13.6h-13.7v5h13.4v18.6l5.2,3.8
		C205.9,258.2,209.6,259.6,211.5,259.6z"/>
	<path d="M71.2,231.8h-4.4v-22.7h-0.7l-3.2,2.3c0,0-2.4,0.3-6.2,1.1h6.8v22.7h11.1v-22.7h15.2v63.5H74.6v-27.6H63.5v27.6H47.8v-61.7
		c-0.7,0.1-1.4,0.2-2.1,0.3c-0.4,0.1-0.8,0.1-1.3,0.1v64.6h22.3v-27.6h4.4v27.6h21.9v-70.2H71.2V231.8z"/>
	<path d="M96.5,279.2h22.6V209H96.5V279.2z M99.9,212.4h15.9v63.5H99.9V212.4z"/>
	<path d="M122.2,279H159v-21.7h-14.1V252h12.5v-19.3h-12.5v-4.6H159v-19.2h-36.8V279z M125.5,212.2h30.1v12.5h-14.1V236h12.5v12.6
		h-12.5v12h14.1v15h-30.1V212.2z"/>
	<path d="M234.3,243.5c-1.3-1.8-3.5-3.8-5.6-5.6c-2.1-1.8-4.4-3.6-6.3-5.3c-0.5-0.6-1-1-1.4-1.5c-0.4-0.4-0.6-0.8-0.8-1
		c-0.2-0.4-0.5-0.9-0.5-2.1c0-0.7,1.5-2.1,2.5-2.1c1.8,0,2.7,0.2,3.6,0.5c1.4,0.5,2.9,1.4,5.5,2.8l4.9,2.6v-20.4l-1.8-0.9
		c-4.3-2.2-9.4-3.4-14.3-3.4c-11,0-17.8,4.9-20.9,11v-9.1h-38.4V279h22.7v-26.7h13.3v21.5l1.6,1c4.4,2.7,10.1,4.9,15.5,4.9
		c14.1,0,24.2-7.6,24.2-23.8C238.1,250.6,236.8,247,234.3,243.5z M193.5,249h-13.4v26.7h-16v-63.5h31.7v12.5h-15.7v11.7h13.4V249z
		 M196.9,251.6V233h-13.4v-5h13.7c0.3,7.2,2.6,10.6,4.9,13.6c0.4,0.6,1,1.2,1.6,1.7c0.6,0.6,1.2,1.2,2,1.8c1.4,1.3,3,2.8,4.6,4.3
		c3.3,3.4,5.1,6.2,5.1,7.9c-0.2,0.3-0.6,0.6-1.1,1c-1.2,0.8-2.4,1.1-2.7,1.1c-1.9,0-5.6-1.4-9.4-4.2L196.9,251.6z M213.9,276.4
		c-4.6,0-9.6-1.9-13.7-4.4v-13.9c4,2.9,8.3,4.8,11.4,4.8c2.5,0,7.3-2.6,7.3-5.3c0-6.6-11.6-14.9-13.9-17.9c-2.2-3-4.3-5.8-4.3-13.3
		c0-7.4,5.5-16,19.6-16c4.3,0,9,1.1,12.8,3.1v12.8c-5.6-2.9-6.5-3.6-10.6-3.6c-2.1,0-5.8,2.3-5.8,5.4c0,3.4,1.3,4.5,3.6,7
		c4,3.6,9.5,7.6,11.5,10.4c2.1,2.9,3.2,5.8,3.2,10.6C234.7,270,226.4,276.4,213.9,276.4z"/>
	<path d="M38,214.9v8.9c-2.3-1-4.1-0.8-7-0.8c-8.8,0-10.9,13.2-10.9,20.2c0,7.4,2.6,19.3,11,19.3c2.9,0,4,0.3,6.9-0.6v12.8
		c-3,1.2-5.8,1.7-9.1,1.7c-13.8,0-25.6-12.4-25.6-32.9c0-20.6,10-29.1,18.6-32.3l-2.2-2.7C10.3,212.3,0,221.9,0,243.4
		c0,21.7,12.7,36.2,28.9,36.2c3.7,0,6.9-0.5,10.4-1.9l2.1-0.9v-19.5l-4.3,1.3c-1.2,0.4-2,0.5-2.7,0.5c-1,0.1-1.9,0-3.3,0
		c-2.2,0-4.1-1.5-5.6-4.9c-1.5-3.4-2.1-7.7-2.1-11.1c0-3.2,0.5-7.8,2-11.5c1.5-3.8,3.4-5.4,5.6-5.4c1.4,0,2.5-0.1,3.5,0
		c0.8,0,1.4,0.2,2.1,0.5l4.7,2.1v-13.9C40.2,215,39.1,215,38,214.9z"/>
	<path class="st1" d="M47.8,214.2v61.7h15.6v-27.6h11.1v27.6h15.2v-63.5H74.6v22.7H63.5v-22.7h-6.8c-1.7,0.3-3.7,0.7-5.9,1.2
		C49.9,213.8,48.8,214,47.8,214.2z"/>
	<rect x="99.9" y="212.4" class="st1" width="15.9" height="63.5"/>
	<polygon class="st1" points="155.7,260.7 141.6,260.7 141.6,248.6 154.1,248.6 154.1,236 141.6,236 141.6,224.7 155.7,224.7 
		155.7,212.2 125.5,212.2 125.5,275.7 155.7,275.7 	"/>
	<polygon class="st1" points="180.2,224.7 195.9,224.7 195.9,212.2 164.2,212.2 164.2,275.7 180.2,275.7 180.2,249 193.5,249 
		193.5,236.4 180.2,236.4 	"/>
	<path class="st1" d="M231.5,245.4c-2-2.9-7.5-6.9-11.5-10.4c-2.4-2.5-3.6-3.6-3.6-7c0-3.2,3.7-5.4,5.8-5.4c4.1,0,5,0.7,10.6,3.6
		v-12.8c-3.8-1.9-8.4-3.1-12.8-3.1c-14,0-19.6,8.6-19.6,16c0,7.5,2.1,10.4,4.3,13.3c2.3,3,13.9,11.3,13.9,17.9
		c0,2.8-4.8,5.3-7.3,5.3c-3,0-7.4-1.9-11.4-4.8V272c4.1,2.5,9.2,4.4,13.7,4.4c12.5,0,20.8-6.4,20.8-20.4
		C234.7,251.2,233.7,248.3,231.5,245.4z"/>
	<path class="st1" d="M3.4,243.4c0,20.4,11.8,32.9,25.6,32.9c3.3,0,6.1-0.5,9.1-1.7v-12.8c-3,0.9-4.1,0.6-6.9,0.6
		c-8.4,0-11-11.9-11-19.3c0-7,2.2-20.2,10.9-20.2c2.9,0,4.7-0.3,7,0.8v-8.9c-3.4-0.3-5.6-1.1-5.6-1.1l-7,1.8l-3.5-4.5
		C13.3,214.3,3.4,222.9,3.4,243.4z"/>
	<polygon class="st1" points="245.6,270.8 244.2,274.9 244.2,274.9 242.9,270.8 240.4,270.8 240.3,270.8 235,270.8 235,272 
		236.8,272 236.8,277 238.7,277 238.7,272 240.3,272 240.3,277 241.9,277 241.9,272.2 241.9,272.2 243.4,277 244.9,277 246.5,272.2 
		246.5,272.2 246.5,277 248.1,277 248.1,270.8 	"/>
	<path class="st2" d="M142.3,16.1c0,0.9,0.6,1.7,0.7,2.4c0.4,2.4,3.8,4,3.9,7.1c-2.8,4.3,4.1,8.1-0.2,12.2c1.5,6.4,0.2,13-1.3,19.2
		c1.3,0.6,2.3,2.6,4.3,1.9c2.6-3,7-4.3,10.2-6.8c4.5,0,9.4-0.4,13.7,0.4l13.9,6.8c2.4,5.6,7.2,10.3,7.3,16.7c4,1.7,9.4,1.9,13.7,3.4
		c8.5,1.1,10.7,8.7,16.9,13.9c0.2,7.7,6.8,15.8,1.1,22.6c-0.7,9.2,6.2,18.8,1.1,27.8c0.9,8.1,3.2,16,0.6,24.1c0.9,6.2,3,12.2,1.9,19
		c-0.5,4-3,7.8-3.5,11.6h10.9V15.8h-95.3C142.3,15.9,142.3,16,142.3,16.1L142.3,16.1z"/>
	<path class="st2" d="M16,190.6c-1.5-14.3-0.9-29.9-5.6-43.3l2.1-13.7l5.5-16.7L16,106.7L21.8,89c5.3-4.3,9.2-9.4,16.2-12l30.5-4.5
		c6-4.7,13.5-7.5,19.6-11.7l-1.5-1.5c-1.3-7.9,4.5-13.4,6.2-20.5c-2.3-4.5,2.3-7.5,2.1-11.3c-2.3-4.5,4-7.2,3.8-11.4l0-0.1
		c0-0.1,0-0.1,0-0.2H3.2v182.6h13.6l0,0l-0.1-0.9L16,190.6z"/>
	<path class="st3" d="M179.5,187.2c1.2-5.2,2.1-10.6,5.7-14.9c-1.7,0.6-2.2,1.6-3.7,2.1c-0.4-1.1-0.4-4.3,2.4-5.8
		c0.5,0.1,0.9,0.3,1.3,0.5c-0.9-1.9-2-3.8-3.2-5.5l-1.1,1.1c-1.5,12-5.6,22.8-10.2,33.5c0,0.1-0.1,0.2-0.1,0.4l2.4,0l0.1-0.2
		c1.1-3.9,2.4-7.7,4.4-11c0.4,3.8,1.3,7.5,0.9,11.1c0,0,0,0.1,0,0.2l2.8,0l0,0C179.4,195.1,180.4,190.6,179.5,187.2z"/>
	<path class="st3" d="M47.8,214.2c1-0.2,2-0.4,3-0.6c2.2-0.5,4.2-0.9,5.9-1.2c3.8-0.7,6.2-1.1,6.2-1.1l3.2-2.3l14.8-10.6l84.3,0l0,0
		c1-7.7,5.3-14.8,6.8-22.7c0.8-13.2,6.6-26.5,2.1-39.7c-2.8-0.9-6.4-0.9-9.4-0.9c-0.9,2.3-4.7,2.4-4.3,5.3c0.6,4-2.6,4.5-4.7,6.8
		c1.5,2.8-0.9,5.3-2.3,7.2c-0.9,0.6-2.6-0.2-2.8,1.3c0.8,5.1-4.9,6.8-8.1,8.8c-5.5,1.5-10.9-0.2-14.7-3.8c-0.7,1.5,0,3.6,0.2,5.1
		c7.3,4.5,16,0.2,24.1,0.4l13.2,9c-6.8-1.3-13.7-4.1-20.7-6.2c-6.4,1.7-14.9-0.2-18.8,6.2l1.7,8.6l8.5,5.6c7.5,0,16.4,1.9,22.4-2.4
		c1.5-0.6,3-1.1,4.7-1.3l-10.3,7.7h-16.8l-12-4.1c-8.8,4.3-17.5,4.1-28,3.6c-1.5-0.7-3.6-4.3-5.5-3l-28,19.9
		c-9.8,1.1-20.1,5.6-29.7,2.3l-6.4,1.7l-7-8.8c-2.3-19.4-2.1-40.3-6.8-58.9c0.9-10.3,4-20,7.5-29.2l-2.3-10.9l6-16.6
		c5.6-4.1,9.8-10.3,16.9-10.9L69,73.9c7-5.8,19.5-9.5,27-14.7c-0.3,0,0.3-6.8-0.9-7.8c-0.5-0.4-1.6,6.1-2.3,7.7
		c-2.4,1.5-4.4-0.2-5.1-1c0-7.3,5.3-13,7-19.9c-2.8-4.7,4.1-7.9,1.3-13c1.1-4.1,4.4-3.2,4.3-11.9c4-9.8,15.4-12.8,26.3-11.3
		c6.2,2.3,11.1,5.2,13.5,11.4c0.7,2.5-0.3,5.3,1.9,7.5c2.7,3,2.8,4.6,1.8,8.3c2.4,3.2,1.7,5.1,0.2,8.5c2.2,9-0.4,14-0.8,20.2
		c2.5,0.9,5.1,4.7,7.7,2.1c2.4-2.6,6-4.1,9.2-6h12.8l13.9,7.3c2.3,5.1,6.4,9.6,6,15.8c0.9,1.5,3,0.7,4.5,1.3l14.5,3.2
		c6.2,7.7,14.7,9.8,13.5,21.5c1.9,4.5,2.4,10.2-1.1,13.9c0.6,8.8,6.2,18.2,1.5,26.7l2.1,15.8c-2.1,6-0.9,12.8,0.8,18.6
		c1.5,8.1-2.2,13.9-4.5,20.3l-6.5,0c0.7-7.3,6.1-13.1,4.7-21.6l-2.6-8.1c2.4-8.3,0-16.4-0.6-24.8c5.3-6,0.8-13.4-0.4-19.9
		c-1.9-0.9-3.2,1.9-5.3,1.7c1.1-4.3,5.3-7,4.5-12c2.8-4.5-0.4-10.7-0.6-16.2c-3.2-3.8-5.1-6.2-9.4-10.2l-15-5.1
		c-1.7,2.6-2.4,7.1-6.6,7.3c-2.6,0.6-7.1-1.5-7.9,1.7c2.4,1.9,6.2,0.4,8.8,1.5l3.6,5.6c-0.6,6-2.3,11.7-4.9,16.9
		c-0.4,7,7.5,7.1,11.5,10.2c3.6,0.9,7.1,1.5,10.5,2.8c-3.9,1.3-7.9-0.6-12.4,0l-8.3-2.6c-0.6,1.7-1.5,3.2-1.9,5.1
		c-4.9,2.6-2.8,9.2-2.6,13.5c0.4,8.8,4.9,16,9.2,23.1c5.1,2.6,10.2,6.6,16,3.2c1.7-0.6,3-2.6,5.1-2.8c0.6,4.1-2.3,5.8-5.1,7.7
		c-4.1,0-5.3,4.7-7.2,7.5c-1.5,3.4-3.2,6.8-5.5,9.8c0.2-5.1,0.4-10.9,2.4-15.4c-2.4-1.3-5.1-2.3-7.9-2.8c-6.6,5.8-6,15.6-4.9,23.7
		c0,0,0.1,0.1,0.1,0.2l41.6,0c0,0,0,0,0,0c0.5-3.9,3-7.6,3.5-11.6c1.1-6.8-0.9-12.8-1.9-19c2.6-8.1,0.4-16-0.6-24.1
		c5.1-9-1.9-18.6-1.1-27.8c5.6-6.8-0.9-14.9-1.1-22.6c-6.2-5.3-8.5-12.8-16.9-13.9c-4.3-1.5-9.8-1.7-13.7-3.4
		c-0.2-6.4-4.9-11.1-7.3-16.7l-13.9-6.8c-4.3-0.8-9.2-0.4-13.7-0.4c-3.2,2.4-7.5,3.8-10.2,6.8c-2.1,0.7-3-1.3-4.3-1.9
		c1.5-6.2,2.8-12.8,1.3-19.2c4.3-4.1-2.6-7.9,0.2-12.2c-0.2-3.1-3.5-4.7-3.9-7.1c-0.1-0.7-0.7-1.4-0.7-2.4v0c0-0.1,0-0.2,0-0.2
		c0-0.2,0-0.4,0-0.6c0-0.7-0.2-1.6-0.4-2.3c-2.7-6.9-8.1-10.1-14.5-12.4L127,0.4c-11.2-1.5-23.7,1.4-28.1,12.3L98.8,13v0.3
		c0,1,0,1.8-0.1,2.5c0,0.1,0,0.1,0,0.2l0,0.1c0.2,4.1-6.1,6.9-3.8,11.4c0.2,3.8-4.3,6.8-2.1,11.3c-1.7,7.1-7.5,12.6-6.2,20.5
		l1.5,1.5c-6,4.1-13.5,7-19.6,11.7L38,76.9c-7,2.6-10.9,7.7-16.2,12L16,106.7l1.9,10.2l-5.5,16.7l-2.1,13.7
		c4.7,13.4,4.1,29,5.6,43.3l0.7,7l0.1,0.9l0.8,7.1l2.2,2.8l2.2,2.7l3.5,4.5l7-1.8c0,0,2.2,0.8,5.6,1.1c1,0.1,2.1,0.1,3.4,0
		c0.4,0,0.9-0.1,1.3-0.1c0.6-0.1,1.2-0.1,1.8-0.2c0.4,0,0.9-0.1,1.3-0.1C46.4,214.4,47.1,214.3,47.8,214.2z"/>
	<path class="st3" d="M151.3,69.6C151.3,69.6,151.3,69.6,151.3,69.6c0.3,1.4,0.9,2.2,1.7,2.9C152.2,71.8,151.6,71,151.3,69.6z"/>
	<path class="st3" d="M144.4,80.1c1.2,1.3,3.2,2.2,5.6,2.1C147.6,82.3,145.6,81.4,144.4,80.1z"/>
	<path class="st3" d="M156.9,76.9c-0.1-1-0.5-1.7-1-2.3C156.4,75.2,156.8,75.9,156.9,76.9c-0.5,2.7-2.9,3.2-4.8,4.4
		C154,80.2,156.4,79.6,156.9,76.9z"/>
	<path class="st3" d="M146.8,106.3c3.4-0.6,5,1.7,7,4C151.8,108,150.2,105.7,146.8,106.3z"/>
	<path class="st3" d="M162.6,118.1c2.3,1.8,4.9,2.8,8.2,1.7C167.5,120.9,164.9,119.9,162.6,118.1z"/>
	<path class="st3" d="M125.1,94l0.4,17.1l3.6,3.6c1.7-1.1,3.4-2.1,4.3-3.9c-4.1-5.5-7.9-12.6-5.6-19.2C126.6,92.4,126,93.1,125.1,94
		z"/>
	<path class="st3" d="M132.3,94.6c0.3-1.2,0.6-2.3,1-3.5C132.9,92.3,132.6,93.5,132.3,94.6c0.9,4.9,3.2,9.6,6.6,12.4
		c0.7,0.2,1.5,0.3,2.4,0.3c-0.8,0-1.7-0.1-2.4-0.3C135.5,104.2,133.2,99.5,132.3,94.6z"/>
	<path class="st3" d="M142.4,79.3c-1.3,0.1-2.5,0.8-3.5,1.2c-1.2,1.4-2.2,2.9-3,4.5c0.9-1.6,1.8-3.1,3-4.5
		C139.9,80.1,141.1,79.4,142.4,79.3z"/>
	<path class="st3" d="M120,165.7c1.1-2.6,0.8-6,1.1-8.7c-1.3-0.2-1.5-1.7-2.6-2.2c-1.7,0.2-3.4,0.7-4.9,1.5c-3,3.6-6,5.3-7.7,9.8
		C110.4,166.5,115.9,169.1,120,165.7z"/>
	<path class="st3" d="M102.3,171c-3.4,5.3-6.6,10.9-9.8,16.2c5.5,2.4,12.6,2.1,19.2,2.1l9-5.5c0.7-3,1.3-6.6,1.3-9.6l-3.8-2.8
		C113.3,170.6,107,167.1,102.3,171z"/>
	<path class="st3" d="M97.9,31.8c0.1-1.8-0.8,0.3-1.1,1.3c-0.4,1-0.5,1.3-0.5,1.3l1,1C97.2,35.4,97.7,33.6,97.9,31.8z"/>
	<path class="st3" d="M173.7,124.6c-2.3,0.9-4.7,1.1-6.1,1l7.9,1.3c1.7-1.1,3.1-2,2.9-4.6C177.4,122.4,175.6,123.8,173.7,124.6z"/>
	<path class="st3" d="M157.9,59.8c-3,2-5.3,5.2-6.3,8.6C152.6,64.9,154.9,61.8,157.9,59.8z"/>
	<path class="st3" d="M71.1,132.6c-3.6,4.5-4.7,11.3-2.4,16.7c14.5-6,29-13.9,43.3-20.5l6.8-5.6l-0.4-0.6l-7,3.2
		C98.8,130,85.8,133.6,71.1,132.6z"/>
	<path class="st3" d="M148.6,111.9c-8.3-1.7-12.6,5.5-18.6,8.1c-12,13.4-30.3,22.2-47.4,31c-12.2,5.8-26.5,7.5-37.1,16.6l-8.7,10.2
		l-1.5,0.2c0.6-3-0.4-7,2.6-9c3.2-3-1.9-5.1-3-7.7c-1.1-4.5-2.4-10.5,0-14.1c3.2,4.3,2.3,12.8,9.8,12.8c5.1-1.9,10.2-4.5,14.9-6.6
		c4.7-6.2,0-14.9,2.6-21.8c-2.6-3.4-5.1-6.6-6.2-11.1l-9.4,3.2L36.1,124l-0.7-0.4c7.2-3,13.7-5.5,19.9-10.2L60,101l8.5-10.5l1.1-0.4
		l-3.8,10.7c-0.4,6.4-7,15.1,0.4,19.8c4.7,1.1,9.8,1.5,14.7,2.3c9-0.7,19-1.3,27.3-4.9c9-3.8,6.8-14.9,8.8-23.3l-3.8-4.1
		c-6-5.8-18.1-2.4-23.7-8.3c0.4,0.2,0.6-0.2,0.9-0.2c9.8,0.2,19,1.7,28.2,3.4c1.9,0.4,1.7,2.4,4,2.3c1.7-2.3,5.5-3.2,8.5-4
		c3-4.7,6.2-9.8,12.2-10.9c4-0.7,4.1,4.1,7.5,4.1c0.6-1.5-1.3-1.7-2.3-2.6c-7-1.5,0.9-9-5.5-9.8l-0.8,7.2
		c-7.1-4.7-1.8-18.4-8.6-23.3l-1.1,1.5c-0.6,5.3-1,12.2-5.3,14.7c-1.7,3-0.9,8.1-3.4,10.2c-1.1-4.7,1.3-9.2-1.1-13.4
		c1.7-1.5,2.8-3.6,4-5.6c0-3.6,1.5-8.5-1.3-11.1c-1.9-1.9-5.2-2.8-8.2-2.3c-6.2,4.5-6.4,12.6-3.5,20.3c-5.3-2.6-5.8-10.9-6.4-15.4
		c-6.6,7.7-5.8,20.4-10.4,30.3c-1.3-3.2-0.2-7.3-0.9-10.7l-15.2,5.8C70,81.1,53,79.9,39.5,84.3l-9.8,8.1c-1.9,6.8-4.7,13.6-1.9,20.9
		l5.8,9.2c-1.7,0.9-4.3-0.9-6.8,0c-3.6,7.7-5.1,16.4-6.6,25c3,12.6,1.7,26.9,3,40.1c1.5,6.4-1.1,14.5,6.4,18.4
		c10,3.2,20.9-0.2,30.9-0.8l24.8-19.2l12.8-20.9c5.3-4.9,8.3-13.2,16-15.2c4.5-1.7,8.8,2.1,14.1,1.5c4.3-2.6,9-3.8,11.7-7.7
		c3,3.2,6.6,5.5,10.3,7.7c1.7-0.2,1.3-2.1,1.7-3c-2.3-4.9-10.9-6.4-8.5-13.2c1.7,3,5.3,4.1,7.9,6.2c1.9,1.1,3.8,1.7,5.1-0.2
		c-1.5-6.4-10.9-5.6-10-13.4c3.2,3,7.5,4.9,11.8,7c1.5-0.6,2.8-1.5,1.9-3.2l-10.9-7.9c-0.4-1.7-2.1-3.2-1.7-4.9
		c2.4,1.7,5.4,3.6,8.1,5.5c1.9,0.8,3.9,3.6,6.4,2.3c1.3-1.1,0-3-0.6-4.3C157.5,118.7,152.2,116.4,148.6,111.9z"/>
	<path class="st3" d="M101.4,46.5c0,0,3.7-3.5,6.6-6.4c2.9-3,5.1-5.7,11.9-5.7c6.8,0,8.9,2.9,12.2,5.4c3.3,2.6,7.1,6.4,7.4,6.9
		c0.3,0.4,1.2-1.2,1.6-2.4c0.4-1.1-1.2-7.3-2.3-10.8c-1.2-3.5-4.6-5.8-6.5-7.1c-2-1.3-2.9-3.1-2.9-3.1s3.1,1.8,5,1.8
		c1.9,0,3.7,0.4,4.3-0.9c0.6-1.2,1.8-2.7-0.4-4.1c-2.1-1.4-4.1-3.4-6.3-3.5c-2.1-0.1-6.8,0.2-6.8,0.2s-2.2-2.1-2.7-2.8
		c-0.4-0.6-0.5-1.7,0.3-2.6c0.8-0.9,3.4-0.7,6.4-0.4c3,0.4,3.7,1.1,4.7,2.1c1.1,1,3.5,2.7,3,0.5c-0.4-2.1-3.6-9.7-16.4-9.7
		c-12.8,0-16.5,7.9-17.1,9.3c-0.6,1.4,0.9,2.3,2.6,0.4c1.7-1.9,2.3-1.9,4.4-2.2c2.1-0.4,6.1-0.6,6.6-0.7c0.5-0.1,1.2,1.2,1.5,1.7
		c0.4,0.5-0.3,1.6-1.4,2.6c-1.1,1-1.7,2.1-4.5,1.7c-2.8-0.4-4.7-0.1-6.5,1.1c-1.8,1.2-6.3,2.4-5.1,4.2c1.2,1.8,1.1,3,2.6,3
		c1.4,0,3,0.1,5-0.6c2-0.7,2.9-1,2.9-1s-2,2.3-4.3,3.5c-2.3,1.2-5,4.1-6.2,9c-1.2,4.9-1.3,6.1-1.6,7.1c-0.3,1.1,0.5,2.3,1.1,2.9
		C101,46.5,101.4,46.5,101.4,46.5z M119.6,16.2c3.6-1.1,4,3.6,5.8,4.5c0,0.9,1.9,3.2-0.4,3.2c-3.2-2.1-7.7,0.9-10.2-0.9
		C116.3,20.1,117.4,18.4,119.6,16.2z M109.3,32.6c1.7-2.2,6.4-5.8,7.4-5.8c1,0,2.4,0.5,3.7,0.6c1.3,0.1,3.6-0.4,5-0.4
		c1.4,0,4.6,4.1,6.4,6.1c1.7,2,2.2,2.6,1,1.7c-1.2-0.9-7-4.8-7-4.8L114.6,30c0,0-2.7,1.6-3.8,2.8c-1.1,1.1-2.7,2.1-3.1,2.4
		C107.4,35.6,105.9,36.9,109.3,32.6z"/>
	<path class="st3" d="M185.9,99.5C185.9,99.5,185.9,99.5,185.9,99.5c-0.1,0.8-0.2,1.6-0.4,2.4C185.7,101.1,185.8,100.3,185.9,99.5z"
		/>
	<path class="st3" d="M183.9,96.5c-2.2-0.7-5.6,0.2-7.6-0.9c-0.2-0.1-0.4-0.3-0.6-0.4c0.2,0.1,0.4,0.3,0.6,0.4
		C178.3,96.7,181.7,95.8,183.9,96.5z"/>
	<path class="st3" d="M188.3,75.7c-0.4-4.2-2-8.4-4.1-11.8l-7.4-3.7l7.4,3.7C186.3,67.3,187.9,71.5,188.3,75.7z"/>
	<path class="st3" d="M143.2,160.3c-0.3,0.1-0.7,0.3-1.1,0.3C142.5,160.6,142.8,160.5,143.2,160.3z"/>
	<path class="st3" d="M141.9,153.5c0.4,0,0.7,0.1,1,0.2C142.6,153.6,142.2,153.5,141.9,153.5z"/>
	<path class="st3" d="M138,153.4c1.3,0,2.6,0,3.9,0.1C140.6,153.4,139.3,153.4,138,153.4z"/>
	<path class="st3" d="M143.1,153.7c0.3,0.1,0.6,0.2,0.9,0.3C143.7,153.8,143.4,153.7,143.1,153.7z"/>
	<path class="st3" d="M140.2,161c-1.6,0.2-3.3,0.2-4.9,0.2C136.9,161.1,138.6,161.1,140.2,161z"/>
	<path class="st3" d="M146.1,155.3c0.2,0.2,0.3,0.4,0.4,0.6C146.4,155.7,146.3,155.5,146.1,155.3z"/>
	<path class="st3" d="M146.7,156.2v0.8c0.1-0.1,0.1-0.3,0.2-0.4C146.9,156.4,146.8,156.3,146.7,156.2z"/>
	<path class="st3" d="M141.7,160.7c-0.4,0.1-0.8,0.2-1.2,0.2C140.9,160.9,141.3,160.8,141.7,160.7z"/>
	<path class="st3" d="M144.3,154c0.3,0.1,0.5,0.2,0.7,0.4C144.8,154.2,144.5,154.1,144.3,154z"/>
	<path class="st3" d="M145.3,154.5c0.2,0.1,0.4,0.3,0.6,0.5C145.7,154.8,145.5,154.7,145.3,154.5z"/>
	<path class="st3" d="M144.5,159.7c-0.3,0.2-0.6,0.4-0.9,0.5C143.9,160,144.2,159.9,144.5,159.7z"/>
	<path class="st3" d="M145.6,158.7c-0.2,0.2-0.5,0.5-0.7,0.7C145.2,159.2,145.4,159,145.6,158.7z"/>
	<path class="st3" d="M146.5,157.4c-0.2,0.3-0.3,0.6-0.5,0.9C146.2,158.1,146.4,157.7,146.5,157.4z"/>
	<path class="st3" d="M144,34.5c0,0-0.6-2-0.9-2.7c-0.3-0.6-1.3,0.8-1.3,0.8l0.8,2.9L144,34.5z"/>
	<path class="st3" d="M90.2,53.8c-0.5,1.9-0.8,2.5,0.3,2.9c1,0.4,1.6-1.4,2.3-3.2c0.6-1.8,2.1-6.2,2.1-6.2l-0.9-1.9
		C93.9,45.5,90.7,51.9,90.2,53.8z"/>
	<path class="st1" d="M185.9,99.5c-0.1-1.8-0.9-2.6-2-3c-2.2-0.7-5.6,0.2-7.6-0.9c-0.2-0.1-0.4-0.3-0.6-0.4c-2.1-1.7-2.5-4-1.5-6.6
		c0.1-0.2,0.1-0.3,0.2-0.5c2-4.9,9.2-1.8,12.6-4c1.2-2.5,1.6-5.4,1.3-8.4c-0.4-4.2-2-8.4-4.1-11.8l-7.4-3.7l-5-2.5h-8.8
		c-1.8,0.3-3.5,1-5.1,2c-3,2-5.3,5.2-6.3,8.6c0,0.1,0,0.1-0.1,0.2c0,0,0,0,0,0.1c-0.1,0.3-0.2,0.7-0.2,1c0.3,1.4,0.9,2.2,1.7,2.9
		c1,0.8,2.1,1.3,3,2.2c0.5,0.5,0.8,1.3,1,2.3c-0.5,2.7-2.9,3.3-4.8,4.4c-0.4,0.2-0.7,0.4-1,0.7c-0.4,0.1-0.7,0.1-1.1,0.1
		c-2.4,0.1-4.4-0.8-5.6-2.1c-0.1-0.1-0.2-0.2-0.3-0.3c-0.5-0.3-0.9-0.4-1.4-0.4c-0.1,0-0.2,0-0.3,0c-1.3,0.1-2.5,0.8-3.5,1.2
		c-1.2,1.4-2.2,2.9-3,4.5c-1,1.9-1.9,4-2.6,6.1c-0.4,1.1-0.7,2.3-1,3.5c0.9,4.9,3.2,9.6,6.6,12.4c0.7,0.2,1.5,0.3,2.4,0.3
		c1.4,0,2.9-0.3,4.2-0.7c0.5-0.2,1-0.3,1.4-0.4c3.4-0.6,5,1.7,7,4c0.3,0.3,0.6,0.7,0.9,1c2.8,1.7,5.2,4.7,7.9,6.8
		c2.3,1.8,4.9,2.8,8.2,1.7c0.5-0.2,1.1-0.4,1.7-0.7c7.1-2.7,11.5-9.7,13-17.2C185.7,101.1,185.8,100.3,185.9,99.5z"/>
	<path d="M177.4,187.2c-2.1,3.4-3.3,7.1-4.4,11l-0.1,0.2l0,0l5.4,0c0,0,0,0,0,0c0-0.1,0-0.1,0-0.2
		C178.7,194.7,177.8,190.9,177.4,187.2z"/>
	<path d="M190,174.6c2.8,0.6,5.5,1.5,7.9,2.8c-2.1,4.5-2.3,10.4-2.4,15.4c2.3-3,4-6.4,5.5-9.8c1.9-2.8,3-7.5,7.2-7.5
		c2.8-1.9,5.6-3.6,5.1-7.7c-2.1,0.2-3.4,2.3-5.1,2.8c-5.8,3.4-10.9-0.6-16-3.2c-4.3-7.1-8.8-14.3-9.2-23.1
		c-0.2-4.3-2.3-10.9,2.6-13.5c0.4-1.9,1.3-3.4,1.9-5.1l8.3,2.6c4.5-0.6,8.5,1.3,12.4,0c-3.4-1.3-7-1.9-10.5-2.8
		c-4-3-11.9-3.2-11.5-10.2c2.6-5.3,4.3-10.9,4.9-16.9l-3.6-5.6c-2.6-1.1-6.4,0.4-8.8-1.5c0.7-3.2,5.3-1.1,7.9-1.7
		c4.1-0.2,4.9-4.7,6.6-7.3l15,5.1c4.3,3.9,6.2,6.4,9.4,10.2c0.2,5.5,3.4,11.7,0.6,16.2c0.7,5.1-3.4,7.7-4.5,12
		c2.1,0.2,3.4-2.6,5.3-1.7c1.1,6.6,5.6,13.9,0.4,19.9c0.6,8.5,3,16.6,0.6,24.8l2.6,8.1c1.5,8.5-3.9,14.3-4.7,21.6l6.5,0
		c2.3-6.4,6-12.2,4.5-20.3c-1.7-5.8-2.8-12.6-0.8-18.6l-2.1-15.8c4.7-8.5-0.9-17.9-1.5-26.7c3.6-3.8,3-9.4,1.1-13.9
		c1.1-11.7-7.3-13.7-13.5-21.5l-14.5-3.2c-1.5-0.6-3.6,0.2-4.5-1.3c0.4-6.2-3.8-10.7-6-15.8L173.1,54h-12.8c-3.2,1.9-6.8,3.4-9.2,6
		c-2.6,2.6-5.3-1.1-7.7-2.1c0.4-6.2,3-11.2,0.8-20.2c1.5-3.4,2.3-5.3-0.2-8.5c1-3.7,0.9-5.3-1.8-8.3c-2.1-2.2-1.2-5-1.9-7.5
		C137.9,7.2,133,4.3,126.8,2c-10.9-1.5-22.4,1.5-26.3,11.3c0,8.6-3.2,7.7-4.3,11.9c2.8,5.1-4.1,8.3-1.3,13c-1.7,7-7,12.6-7,19.9
		c0.7,0.8,2.7,2.5,5.1,1c0.6-1.7,1.7-8.2,2.3-7.7c1.1,1,0.5,7.8,0.9,7.8c-7.5,5.3-20.1,8.9-27,14.7l-28.4,4.5
		c-7.2,0.6-11.3,6.8-16.9,10.9l-6,16.6l2.3,10.9c-3.6,9.2-6.6,18.8-7.5,29.2c4.7,18.6,4.5,39.5,6.8,58.9l7,8.8l6.4-1.7
		c9.6,3.4,19.9-1.1,29.7-2.3l28-19.9c1.9-1.3,4,2.3,5.5,3c10.5,0.6,19.2,0.8,28-3.6l12,4.1h16.8l10.3-7.7c-1.7,0.2-3.2,0.8-4.7,1.3
		c-6,4.3-14.9,2.4-22.4,2.4l-8.5-5.6l-1.7-8.6c4-6.4,12.4-4.5,18.8-6.2c7,2.1,13.9,4.9,20.7,6.2l-13.2-9c-8.1-0.2-16.7,4.1-24.1-0.4
		c-0.2-1.5-0.9-3.6-0.2-5.1c3.8,3.6,9.2,5.3,14.7,3.8c3.2-2.1,8.8-3.8,8.1-8.8c0.2-1.5,1.9-0.7,2.8-1.3c1.3-1.9,3.8-4.3,2.3-7.2
		c2.1-2.3,5.3-2.8,4.7-6.8c-0.4-2.8,3.4-3,4.3-5.3c3,0,6.6,0,9.4,0.9c4.5,13.2-1.3,26.5-2.1,39.7c-1.5,7.9-5.8,15-6.8,22.7l0,0l0,0
		l5.3,0c0,0,0,0,0,0c0.1-0.2,0.1-0.3,0.1-0.4c4.5-10.7,8.7-21.4,10.2-33.5l1.1-1.1c1.2,1.8,2.3,3.6,3.2,5.5
		c-0.4-0.2-0.8-0.3-1.3-0.5c-2.8,1.5-2.8,4.7-2.4,5.8c1.5-0.5,2-1.6,3.7-2.1c-3.5,4.4-4.4,9.7-5.7,14.9c0.9,3.4-0.1,7.9,1.7,11.2
		l0,0l0,0h4c0,0,0,0,0,0c0-0.1-0.1-0.1-0.1-0.2C184,190.2,183.4,180.4,190,174.6z M92.7,53.5c-0.6,1.8-1.3,3.5-2.3,3.2
		c-1-0.4-0.8-1-0.3-2.9c0.5-1.9,3.8-8.3,3.8-8.3l0.9,1.9C94.8,47.3,93.3,51.8,92.7,53.5z M143.2,31.8c0.3,0.6,0.9,2.7,0.9,2.7
		l-1.4,1l-0.8-2.9C141.9,32.6,142.9,31.2,143.2,31.8z M99.4,43c0.3-1.1,0.4-2.2,1.6-7.1c1.2-4.9,3.9-7.9,6.2-9
		c2.3-1.2,4.3-3.5,4.3-3.5s-0.9,0.3-2.9,1c-2,0.7-3.6,0.6-5,0.6c-1.4,0-1.3-1.2-2.6-3c-1.2-1.8,3.3-3,5.1-4.2
		c1.8-1.2,3.8-1.4,6.5-1.1c2.8,0.4,3.4-0.7,4.5-1.7c1.1-1,1.7-2.1,1.4-2.6c-0.4-0.5-1.1-1.8-1.5-1.7c-0.5,0.1-4.5,0.4-6.6,0.7
		c-2.1,0.4-2.7,0.4-4.4,2.2c-1.7,1.9-3.2,1-2.6-0.4c0.6-1.4,4.3-9.3,17.1-9.3c12.8,0,16,7.6,16.4,9.7c0.4,2.1-2,0.4-3-0.5
		c-1.1-1-1.7-1.7-4.7-2.1c-3-0.4-5.6-0.5-6.4,0.4c-0.8,0.9-0.7,2-0.3,2.6c0.4,0.6,2.7,2.8,2.7,2.8s4.7-0.3,6.8-0.2
		c2.1,0.1,4.1,2.1,6.3,3.5c2.1,1.4,1,2.9,0.4,4.1c-0.6,1.2-2.4,0.9-4.3,0.9c-1.9,0-5-1.8-5-1.8s1,1.8,2.9,3.1c2,1.3,5.4,3.7,6.5,7.1
		c1.2,3.5,2.7,9.6,2.3,10.8c-0.4,1.2-1.3,2.9-1.6,2.4c-0.3-0.4-4.1-4.3-7.4-6.9c-3.3-2.6-5.5-5.4-12.2-5.4c-6.8,0-8.9,2.8-11.9,5.7
		c-2.9,3-6.6,6.4-6.6,6.4s-0.4,0-0.9-0.6C100,45.3,99.1,44,99.4,43z M96.7,33.1c0.4-1,1.3-3,1.1-1.3c-0.1,1.8-0.6,3.5-0.6,3.5l-1-1
		C96.2,34.3,96.3,34.1,96.7,33.1z M120.8,183.8l-9,5.5c-6.6,0-13.7,0.4-19.2-2.1c3.2-5.3,6.4-10.9,9.8-16.2c4.7-3.9,10.9-0.4,16,0.4
		l3.8,2.8C122.1,177.2,121.5,180.8,120.8,183.8z M105.9,166.1c1.7-4.5,4.7-6.2,7.7-9.8c1.5-0.8,3.2-1.3,4.9-1.5
		c1.1,0.5,1.3,2.1,2.6,2.2c-0.4,2.6,0,6-1.1,8.7C115.9,169.1,110.4,166.5,105.9,166.1z M146.7,157c-0.1,0.2-0.2,0.3-0.2,0.4
		c-0.2,0.3-0.3,0.6-0.5,0.9c-0.1,0.1-0.2,0.3-0.4,0.4c-0.2,0.2-0.5,0.5-0.7,0.7c-0.1,0.1-0.3,0.2-0.4,0.3c-0.3,0.2-0.6,0.4-0.9,0.5
		c-0.1,0.1-0.3,0.1-0.4,0.2c-0.3,0.1-0.7,0.3-1.1,0.3c-0.1,0-0.3,0-0.4,0.1c-0.4,0.1-0.8,0.2-1.2,0.2c-0.1,0-0.2,0-0.3,0
		c-1.6,0.2-3.3,0.2-4.9,0.2c-1.5-0.7-3.6-1.5-4.1-3.6c0-0.8,0.3-1.5,0.8-2c1.1-1.1,3.1-1.7,4.4-2.3c0.4,0,0.8,0,1.2,0
		c0.1,0,0.2,0,0.3,0c0,0,0,0,0,0c1.3,0,2.6,0,3.9,0.1c0,0,0,0,0,0c0.4,0,0.7,0.1,1,0.2c0.1,0,0.1,0,0.2,0c0.3,0.1,0.6,0.2,0.9,0.3
		c0.1,0,0.2,0.1,0.3,0.1c0.3,0.1,0.5,0.2,0.7,0.4c0.1,0.1,0.2,0.1,0.3,0.2c0.2,0.1,0.4,0.3,0.6,0.5c0.1,0.1,0.2,0.2,0.3,0.2
		c0.2,0.2,0.3,0.4,0.4,0.6c0,0.1,0.1,0.1,0.2,0.2v0.1c0.1,0.1,0.1,0.2,0.2,0.3C146.9,156.7,146.8,156.8,146.7,157L146.7,157z
		 M162.2,126.6c-2.4,1.3-4.5-1.5-6.4-2.3c-2.6-1.9-5.6-3.8-8.1-5.5c-0.4,1.7,1.3,3.2,1.7,4.9l10.9,7.9c0.9,1.7-0.4,2.6-1.9,3.2
		c-4.3-2.1-8.6-4-11.8-7c-0.9,7.7,8.5,7,10,13.4c-1.3,1.9-3.2,1.3-5.1,0.2c-2.6-2.1-6.2-3.2-7.9-6.2c-2.4,6.8,6.2,8.3,8.5,13.2
		c-0.4,0.9,0,2.8-1.7,3c-3.8-2.3-7.3-4.5-10.3-7.7c-2.6,4-7.3,5.1-11.7,7.7c-5.3,0.6-9.6-3.2-14.1-1.5c-7.7,2.1-10.7,10.3-16,15.2
		l-12.8,20.9l-24.8,19.2c-10,0.6-20.9,3.9-30.9,0.8c-7.5-4-4.9-12-6.4-18.4c-1.3-13.2,0-27.5-3-40.1c1.5-8.7,3-17.3,6.6-25
		c2.4-0.9,5.1,0.9,6.8,0l-5.8-9.2c-2.8-7.3,0-14.1,1.9-20.9l9.8-8.1C53,79.9,70,81.1,80.9,72.6l15.2-5.8c0.8,3.4-0.4,7.5,0.9,10.7
		c4.6-9.8,3.8-22.6,10.4-30.3c0.6,4.5,1.1,12.8,6.4,15.4c-3-7.7-2.8-15.8,3.5-20.3c3-0.6,6.3,0.4,8.2,2.3c2.8,2.6,1.3,7.5,1.3,11.1
		c-1.1,2.1-2.3,4.1-4,5.6c2.4,4.1,0,8.7,1.1,13.4c2.4-2.1,1.7-7.1,3.4-10.2c4.3-2.4,4.8-9.4,5.3-14.7l1.1-1.5
		c6.8,4.9,1.5,18.6,8.6,23.3l0.8-7.2c6.4,0.7-1.5,8.3,5.5,9.8c0.9,0.9,2.8,1.1,2.3,2.6c-3.4,0-3.6-4.9-7.5-4.1
		c-6,1.1-9.2,6.2-12.2,10.9c-3,0.7-6.8,1.7-8.5,4c-2.3,0.2-2.1-1.9-4-2.3c-9.2-1.7-18.4-3.2-28.2-3.4c-0.4,0-0.6,0.4-0.9,0.2
		c5.6,5.8,17.7,2.4,23.7,8.3l3.8,4.1c-2.1,8.5,0.2,19.6-8.8,23.3c-8.3,3.6-18.3,4.1-27.3,4.9c-4.9-0.7-10-1.1-14.7-2.3
		c-7.3-4.7-0.7-13.4-0.4-19.8l3.8-10.7l-1.1,0.4L60,101l-4.7,12.4c-6.2,4.7-12.8,7.1-19.9,10.2l0.7,0.4l10.5-0.4l9.4-3.2
		c1.1,4.5,3.6,7.7,6.2,11.1c-2.6,7,2.1,15.6-2.6,21.8c-4.7,2.1-9.8,4.7-14.9,6.6c-7.5,0-6.6-8.5-9.8-12.8c-2.4,3.6-1.1,9.6,0,14.1
		c1.1,2.6,6.2,4.7,3,7.7c-3,2.1-2.1,6-2.6,9l1.5-0.2l8.7-10.2c10.5-9,24.8-10.7,37.1-16.6c17.1-8.8,35.4-17.7,47.4-31
		c6-2.6,10.3-9.8,18.6-8.1c3.6,4.5,8.8,6.8,13,10.4C162.2,123.6,163.5,125.5,162.2,126.6z M133.4,110.8c-0.9,1.9-2.6,2.8-4.3,3.9
		l-3.6-3.6L125.1,94c0.9-0.9,1.5-1.7,2.6-2.4C125.5,98.2,129.3,105.3,133.4,110.8z M118.7,123.2l-6.8,5.6
		c-14.3,6.6-28.8,14.5-43.3,20.5c-2.3-5.5-1.1-12.2,2.4-16.7c14.7,0.9,27.7-2.6,40.3-6.8l7-3.2L118.7,123.2z M175.5,126.9l-7.9-1.3
		c1.3,0.1,3.8-0.1,6.1-1c1.9-0.7,3.8-2.1,4.7-2.3C178.5,124.9,177.2,125.7,175.5,126.9z M172.5,119.1c-0.6,0.3-1.1,0.5-1.7,0.7
		c-3.3,1.1-5.9,0.1-8.2-1.7c-2.7-2-5.1-5.1-7.9-6.8c-0.3-0.3-0.6-0.7-0.9-1c-1.9-2.4-3.6-4.6-7-4c-0.4,0.1-0.9,0.2-1.4,0.4
		c-1.3,0.4-2.8,0.6-4.2,0.7c-0.8,0-1.7-0.1-2.4-0.3c-3.4-2.8-5.6-7.5-6.6-12.4c0.3-1.2,0.6-2.3,1-3.5c0.7-2.1,1.5-4.2,2.6-6.1
		c0.9-1.6,1.8-3.1,3-4.5c1-0.4,2.3-1.1,3.5-1.2c0.1,0,0.2,0,0.3,0c0.5,0,0.9,0.2,1.4,0.4c0.1,0.1,0.2,0.2,0.3,0.3
		c1.2,1.3,3.2,2.2,5.6,2.1c0.4,0,0.7-0.1,1.1-0.1c0.3-0.3,0.6-0.5,1-0.7c1.9-1.1,4.4-1.7,4.8-4.4c-0.1-1-0.5-1.7-1-2.3
		c-0.8-0.9-2-1.4-3-2.2c-0.7-0.6-1.4-1.4-1.7-2.9c0,0,0,0,0,0c0.1-0.3,0.1-0.7,0.2-1c0,0,0,0,0-0.1c0-0.1,0-0.1,0.1-0.2
		c1-3.4,3.3-6.6,6.3-8.6c1.5-1,3.2-1.7,5.1-2h8.8l5,2.5l7.4,3.7c2.1,3.3,3.8,7.6,4.1,11.8c0.3,2.9-0.1,5.8-1.3,8.4
		c-3.5,2.2-10.6-0.9-12.6,4c-0.1,0.2-0.1,0.3-0.2,0.5c-1,2.6-0.6,4.9,1.5,6.6c0.2,0.1,0.4,0.3,0.6,0.4c2,1.1,5.4,0.2,7.6,0.9
		c1.1,0.4,1.9,1.2,2,3c0,0,0,0,0,0c-0.1,0.8-0.2,1.6-0.4,2.4C184,109.3,179.7,116.4,172.5,119.1z"/>
	<path d="M107.7,35.2c0.4-0.3,1.9-1.3,3.1-2.4c1.1-1.1,3.8-2.8,3.8-2.8l11.2,0.1c0,0,5.8,3.9,7,4.8c1.2,0.9,0.8,0.3-1-1.7
		c-1.7-2-5-6.1-6.4-6.1c-1.4,0-3.7,0.5-5,0.4c-1.3-0.1-2.6-0.6-3.7-0.6c-1,0-5.7,3.6-7.4,5.8C105.9,36.9,107.4,35.6,107.7,35.2z"/>
	<path d="M125.1,23.9c2.3,0,0.4-2.3,0.4-3.2c-1.9-0.9-2.3-5.7-5.8-4.5c-2.3,2.3-3.4,3.9-4.7,6.8C117.4,24.8,121.9,21.8,125.1,23.9z"
		/>
	<path class="st1" d="M146.7,156.1c0-0.1-0.1-0.1-0.2-0.2c-0.1-0.2-0.3-0.4-0.4-0.6c-0.1-0.1-0.2-0.2-0.3-0.2
		c-0.2-0.2-0.4-0.3-0.6-0.5c-0.1-0.1-0.2-0.1-0.3-0.2c-0.2-0.1-0.5-0.3-0.7-0.4c-0.1,0-0.2-0.1-0.3-0.1c-0.3-0.1-0.6-0.2-0.9-0.3
		c-0.1,0-0.1,0-0.2,0c-0.3-0.1-0.7-0.1-1-0.2c0,0,0,0,0,0c-1.3-0.1-2.6-0.1-3.9-0.1c0,0,0,0,0,0c-0.1,0-0.2,0-0.3,0
		c-0.4,0-0.8,0-1.2,0c-1.3,0.6-3.3,1.2-4.4,2.3c-0.5,0.5-0.8,1.2-0.8,2c0.6,2.1,2.6,2.8,4.1,3.6c1.6-0.1,3.3-0.1,4.9-0.2
		c0.1,0,0.2,0,0.3,0c0.4-0.1,0.8-0.1,1.2-0.2c0.1,0,0.3,0,0.4-0.1c0.4-0.1,0.7-0.2,1.1-0.3c0.1-0.1,0.3-0.1,0.4-0.2
		c0.3-0.1,0.6-0.3,0.9-0.5c0.1-0.1,0.3-0.2,0.4-0.3c0.3-0.2,0.5-0.4,0.7-0.7c0.1-0.1,0.3-0.3,0.4-0.4c0.2-0.3,0.4-0.6,0.5-0.9
		c0.1-0.1,0.2-0.2,0.2-0.4v-0.1V156.1L146.7,156.1z"/>
</g>
</svg>
